{
.appVersion = "895";
DisplayStrings = (

glyphs = (
{
color = 1;
glyphname = A;
layers = (
{
anchors = (
{
name = ogonek;
position = "{595, 10}";
},
{
name = top;
position = "{291, 641}";
}
);
layerId = "7C736124-E567-4D27-84C2-A192D2C2BC4A";
paths = (
{
closed = 1;
nodes = (
"255 641 LINE",
"13 0 LINE SMOOTH",
"99 0 LINE",
"115 70 LINE",
"299 554 LINE",
"306 554 LINE",
"456 66 LINE",
"471 0 LINE",
"559 0 LINE",
"355 641 LINE"
);
},
{
closed = 1;
nodes = (
"295 241 LINE",
"9 260 LINE",
"33 130 LINE",
"288 141 LINE",
"573 122 LINE",
"605 260 LINE"
);
}
);
width = 580;
}
);
leftKerningGroup = A;
rightKerningGroup = A;
unicode = 0041;
},
{
color = 0;
glyphname = Aogonek;
layers = (
{
components = (
{
name = A;
}
);
layerId = "7C736124-E567-4D27-84C2-A192D2C2BC4A";
paths = (
{
closed = 1;
nodes = (
"462 0 LINE",
"437 -26 OFFCURVE",
"433 -47 OFFCURVE",
"433 -94 CURVE SMOOTH",
"433 -183 OFFCURVE",
"472 -197 OFFCURVE",
"503 -197 CURVE SMOOTH",
"548 -197 OFFCURVE",
"580 -178 OFFCURVE",
"612 -144 CURVE",
"601 -72 LINE",
"596 -72 LINE",
"573 -62 OFFCURVE",
"555 -68 OFFCURVE",
"522 -68 CURVE SMOOTH",
"540 -68 OFFCURVE",
"561 -105 OFFCURVE",
"561 -82 CURVE SMOOTH",
"561 -43 OFFCURVE",
"564 -24 OFFCURVE",
"587 9 CURVE"
);
}
);
width = 580;
}
);
leftKerningGroup = A;
rightKerningGroup = A;
unicode = 0104;
},
{
color = 0;
glyphname = Aringacute;
layers = (
{
components = (
{
name = ringcomb_acutecomb;
transform = "{1, 0, 0, 1, 103, 88}";
}
);
layerId = "7C736124-E567-4D27-84C2-A192D2C2BC4A";
paths = (
{
closed = 1;
nodes = (
"252 639 LINE",
"13 0 LINE SMOOTH",
"99 0 LINE",
"115 69 LINE",
"299 548 LINE",
"306 548 LINE",
"456 65 LINE",
"471 0 LINE",
"559 0 LINE",
"341 639 LINE"
);
},
{
closed = 1;
nodes = (
"295 247 LINE",
"9 274 LINE",
"33 128 LINE",
"288 139 LINE",
"573 120 LINE",
"605 274 LINE"
);
},
{
closed = 0;
nodes = (
"296 294 LINE"
);
}
);
width = 580;
}
);
leftKerningGroup = A;
rightKerningGroup = A;
unicode = 01FA;
},
{
color = 1;
glyphname = AE;
layers = (
{
anchors = (
{
name = top;
position = "{498, 641}";
}
);
layerId = "7C736124-E567-4D27-84C2-A192D2C2BC4A";
paths = (
{
closed = 1;
nodes = (
"327 641 LINE",
"-8 0 LINE",
"80 0 LINE",
"106 70 LINE",
"360 554 LINE",
"358 554 LINE",
"438 66 LINE",
"443 0 LINE",
"795 0 LINE",
"802 99 LINE",
"796 107 LINE",
"632 77 LINE",
"520 77 LINE",
"448 563 LINE",
"536 563 LINE",
"705 534 LINE",
"713 633 LINE",
"707 641 LINE"
);
},
{
closed = 1;
nodes = (
"449 377 LINE",
"148 308 LINE",
"123 215 LINE",
"464 294 LINE",
"698 342 LINE",
"693 420 LINE",
"686 426 LINE"
);
}
);
width = 809;
}
);
leftKerningGroup = A;
rightKerningGroup = E;
unicode = 00C6;
},
{
color = 1;
glyphname = B;
layers = (
{
layerId = "7C736124-E567-4D27-84C2-A192D2C2BC4A";
paths = (
{
closed = 1;
nodes = (
"92 641 LINE",
"136 507 LINE",
"187 508 OFFCURVE",
"294 500 OFFCURVE",
"329 500 CURVE SMOOTH",
"406 500 OFFCURVE",
"368 544 OFFCURVE",
"368 468 CURVE SMOOTH",
"368 410 OFFCURVE",
"336 422 OFFCURVE",
"292 408 CURVE",
"132 396 LINE",
"132 259 LINE",
"296 261 LINE",
"366 251 OFFCURVE",
"400 240 OFFCURVE",
"400 192 CURVE SMOOTH",
"400 156 OFFCURVE",
"348 155 OFFCURVE",
"250 155 CURVE SMOOTH",
"237 155 OFFCURVE",
"181 158 OFFCURVE",
"149 154 CURVE",
"92 0 LINE",
"85 -3 OFFCURVE",
"327 -4 OFFCURVE",
"221 -4 CURVE SMOOTH",
"446 -4 OFFCURVE",
"495 58 OFFCURVE",
"495 171 CURVE SMOOTH",
"495 240 OFFCURVE",
"491 308 OFFCURVE",
"376 334 CURVE",
"429 360 OFFCURVE",
"464 421 OFFCURVE",
"464 470 CURVE SMOOTH",
"464 597 OFFCURVE",
"394 642 OFFCURVE",
"275 642 CURVE"
);
},
{
closed = 1;
nodes = (
"83 641 LINE",
"105 193 LINE",
"83 0 LINE",
"202 0 LINE",
"190 200 LINE",
"203 641 LINE"
);
}
);
width = 541;
}
);
leftKerningGroup = H;
rightKerningGroup = B;
unicode = 0042;
},
{
color = 1;
glyphname = C;
layers = (
{
anchors = (
{
name = bottom;
position = "{308, 0}";
},
{
name = top;
position = "{314, 641}";
}
);
layerId = "7C736124-E567-4D27-84C2-A192D2C2BC4A";
paths = (
{
closed = 1;
nodes = (
"150 647 OFFCURVE",
"37 528 OFFCURVE",
"37 299 CURVE SMOOTH",
"37 108 OFFCURVE",
"169 -7 OFFCURVE",
"262 -7 CURVE SMOOTH",
"399 -7 OFFCURVE",
"406 1 OFFCURVE",
"486 15 CURVE",
"493 201 LINE",
"483 206 LINE",
"436 120 OFFCURVE",
"393 66 OFFCURVE",
"285 66 CURVE SMOOTH",
"221 66 OFFCURVE",
"126 146 OFFCURVE",
"126 307 CURVE SMOOTH",
"126 490 OFFCURVE",
"212 575 OFFCURVE",
"279 575 CURVE SMOOTH",
"412 575 OFFCURVE",
"422 522 OFFCURVE",
"472 439 CURVE",
"481 441 LINE",
"498 600 LINE",
"458 630 OFFCURVE",
"407 647 OFFCURVE",
"291 647 CURVE SMOOTH"
);
}
);
width = 520;
}
);
leftKerningGroup = O;
rightKerningGroup = C;
unicode = 0043;
},
{
color = 1;
glyphname = D;
layers = (
{
anchors = (
{
name = center;
position = "{327, 321}";
},
{
name = top;
position = "{315, 641}";
}
);
layerId = "7C736124-E567-4D27-84C2-A192D2C2BC4A";
paths = (
{
closed = 1;
nodes = (
"92 641 LINE",
"164 553 LINE",
"194 555 OFFCURVE",
"296 558 OFFCURVE",
"320 558 CURVE SMOOTH",
"453 558 OFFCURVE",
"522 494 OFFCURVE",
"522 325 CURVE SMOOTH",
"522 149 OFFCURVE",
"447 105 OFFCURVE",
"316 105 CURVE SMOOTH",
"299 105 OFFCURVE",
"195 109 OFFCURVE",
"80 122 CURVE",
"92 0 LINE",
"148 -3 OFFCURVE",
"263 -6 OFFCURVE",
"302 -6 CURVE",
"500 -6 OFFCURVE",
"610 118 OFFCURVE",
"610 343 CURVE SMOOTH",
"610 538 OFFCURVE",
"509 645 OFFCURVE",
"326 645 CURVE"
);
},
{
closed = 1;
nodes = (
"83 641 LINE",
"105 193 LINE",
"83 0 LINE",
"186 0 LINE",
"174 200 LINE",
"187 641 LINE"
);
}
);
width = 647;
}
);
leftKerningGroup = H;
rightKerningGroup = O;
unicode = 0044;
},
{
color = 1;
glyphname = E;
layers = (
{
anchors = (
{
name = bottom;
position = "{282, 0}";
},
{
name = ogonek;
position = "{469, 10}";
},
{
name = top;
position = "{275, 641}";
}
);
layerId = "7C736124-E567-4D27-84C2-A192D2C2BC4A";
paths = (
{
closed = 1;
nodes = (
"83 641 LINE",
"105 193 LINE",
"83 0 LINE",
"186 0 LINE",
"174 200 LINE",
"187 641 LINE"
);
},
{
closed = 1;
nodes = (
"384 86 LINE",
"158 104 LINE",
"147 7 LINE",
"158 0 LINE",
"464 0 LINE",
"462 99 LINE",
"465 107 LINE"
);
},
{
closed = 1;
nodes = (
"287 362 LINE",
"153 380 LINE",
"150 283 LINE",
"153 276 LINE",
"288 294 LINE",
"392 275 LINE",
"407 374 LINE",
"393 381 LINE"
);
},
{
closed = 1;
nodes = (
"158 641 LINE",
"147 543 LINE",
"158 536 LINE",
"304 554 LINE",
"455 534 LINE",
"462 633 LINE",
"465 641 LINE"
);
}
);
width = 485;
}
);
leftKerningGroup = H;
rightKerningGroup = E;
unicode = 0045;
},
{
color = 1;
glyphname = F;
layers = (
{
layerId = "7C736124-E567-4D27-84C2-A192D2C2BC4A";
paths = (
{
closed = 1;
nodes = (
"83 641 LINE",
"105 193 LINE",
"83 0 LINE",
"186 0 LINE",
"174 200 LINE",
"187 641 LINE"
);
},
{
closed = 1;
nodes = (
"282 365 LINE",
"153 383 LINE",
"153 288 LINE",
"274 297 LINE",
"386 286 LINE",
"393 376 LINE",
"387 384 LINE"
);
},
{
closed = 1;
nodes = (
"149 641 LINE",
"138 543 LINE",
"149 536 LINE",
"280 554 LINE",
"436 516 LINE",
"435 633 LINE",
"429 641 LINE"
);
}
);
width = 436;
}
);
leftKerningGroup = H;
rightKerningGroup = F;
unicode = 0046;
},
{
color = 1;
glyphname = G;
lastChange = "2016-10-28 13:26:40 +0000";
layers = (
{
anchors = (
{
name = bottom;
position = "{307, 0}";
},
{
name = top;
position = "{326, 641}";
}
);
layerId = "7C736124-E567-4D27-84C2-A192D2C2BC4A";
paths = (
{
closed = 1;
nodes = (
"152 647 OFFCURVE",
"37 529 OFFCURVE",
"37 267 CURVE SMOOTH",
"37 108 OFFCURVE",
"89 1 OFFCURVE",
"398 1 CURVE SMOOTH",
"363 -15 OFFCURVE",
"467 4 OFFCURVE",
"570 31 CURVE",
"534 140 LINE",
"544 259 LINE",
"447 253 LINE",
"457 128 LINE",
"430 161 LINE",
"373 119 OFFCURVE",
"342 114 OFFCURVE",
"386 114 CURVE SMOOTH",
"199 114 OFFCURVE",
"134 132 OFFCURVE",
"134 279 CURVE SMOOTH",
"134 476 OFFCURVE",
"199 559 OFFCURVE",
"298 559 CURVE SMOOTH",
"390 559 OFFCURVE",
"407 559 OFFCURVE",
"528 463 CURVE",
"538 481 LINE",
"540 602 LINE",
"421 658 OFFCURVE",
"401 647 OFFCURVE",
"303 647 CURVE SMOOTH"
);
}
);
width = 600;
}
);
leftKerningGroup = O;
rightKerningGroup = G;
unicode = 0047;
},
{
color = 1;
glyphname = H;
layers = (
{
anchors = (
{
name = center;
position = "{339, 321}";
},
{
name = top;
position = "{339, 641}";
}
);
layerId = "7C736124-E567-4D27-84C2-A192D2C2BC4A";
paths = (
{
closed = 1;
nodes = (
"506 641 LINE",
"510 193 LINE",
"506 0 LINE",
"591 0 LINE",
"589 200 LINE",
"593 641 LINE"
);
},
{
closed = 1;
nodes = (
"92 641 LINE",
"96 193 LINE",
"92 0 LINE",
"177 0 LINE",
"174 200 LINE",
"178 641 LINE"
);
},
{
closed = 1;
nodes = (
"163 287 LINE",
"335 288 LINE",
"520 287 LINE",
"520 359 LINE",
"342 358 LINE",
"163 359 LINE"
);
}
);
width = 685;
}
);
leftKerningGroup = H;
rightKerningGroup = H;
unicode = 0048;
},
{
color = 0;
glyphname = Hbar;
layers = (
{
components = (
{
name = H;
transform = "{1, 0, 0, 1, 14, 0}";
}
);
layerId = "7C736124-E567-4D27-84C2-A192D2C2BC4A";
paths = (
{
closed = 1;
nodes = (
"51 601 LINE",
"39 458 LINE",
"44 453 LINE",
"674 453 LINE",
"686 595 LINE",
"681 601 LINE"
);
}
);
width = 716;
}
);
leftKerningGroup = H;
rightKerningGroup = H;
unicode = 0126;
},
{
color = 1;
glyphname = I;
layers = (
{
anchors = (
{
name = ogonek;
position = "{234, 10}";
},
{
name = top;
position = "{135, 641}";
}
);
layerId = "7C736124-E567-4D27-84C2-A192D2C2BC4A";
paths = (
{
closed = 1;
nodes = (
"83 641 LINE",
"105 193 LINE",
"83 0 LINE",
"186 0 LINE",
"174 200 LINE",
"187 641 LINE"
);
}
);
width = 271;
}
);
leftKerningGroup = H;
rightKerningGroup = H;
unicode = 0049;
},
{
color = 0;
glyphname = Iogonek;
layers = (
{
components = (
{
name = I;
}
);
layerId = "7C736124-E567-4D27-84C2-A192D2C2BC4A";
paths = (
{
closed = 1;
nodes = (
"83 0 LINE",
"33 -35 OFFCURVE",
"93 17 OFFCURVE",
"93 -6 CURVE SMOOTH",
"93 -159 OFFCURVE",
"164 -197 OFFCURVE",
"234 -197 CURVE SMOOTH",
"228 -197 OFFCURVE",
"235 -227 OFFCURVE",
"216 -320 CURVE",
"247 -158 LINE",
"216 -158 LINE",
"211 -91 OFFCURVE",
"237 -68 OFFCURVE",
"253 -68 CURVE SMOOTH",
"250 -68 OFFCURVE",
"213 -73 OFFCURVE",
"213 15 CURVE SMOOTH",
"213 45 OFFCURVE",
"168 -17 OFFCURVE",
"176 -32 CURVE"
);
}
);
width = 271;
}
);
leftKerningGroup = H;
rightKerningGroup = H;
unicode = 012E;
},
{
color = 1;
glyphname = J;
layers = (
{
anchors = (
{
name = top;
position = "{191, 641}";
}
);
layerId = "7C736124-E567-4D27-84C2-A192D2C2BC4A";
paths = (
{
closed = 1;
nodes = (
"216 641 LINE",
"237 212 LINE",
"237 101 LINE SMOOTH",
"237 18 OFFCURVE",
"135 52 OFFCURVE",
"-35 -4 CURVE",
"-35 -14 LINE",
"54 -94 LINE",
"238 -10 OFFCURVE",
"308 41 OFFCURVE",
"308 118 CURVE SMOOTH",
"298 212 LINE",
"311 641 LINE"
);
},
{
closed = 1;
nodes = (
"3 641 LINE",
"-10 538 LINE",
"14 531 LINE",
"248 532 LINE",
"239 641 LINE"
);
}
);
width = 410;
}
);
leftKerningGroup = J;
rightKerningGroup = H;
unicode = 004A;
},
{
color = 0;
glyphname = K;
layers = (
{
anchors = (
{
name = bottom;
position = "{288, 0}";
},
{
name = top;
position = "{276, 641}";
}
);
layerId = "7C736124-E567-4D27-84C2-A192D2C2BC4A";
paths = (
{
closed = 1;
nodes = (
"420 641 LINE",
"389 585 LINE",
"178 333 LINE",
"178 327 LINE",
"263 210 OFFCURVE",
"356 105 OFFCURVE",
"450 -4 CURVE",
"452 -9 LINE",
"488 -5 OFFCURVE",
"507 0 OFFCURVE",
"542 8 CURVE",
"543 18 LINE",
"447 119 OFFCURVE",
"361 230 OFFCURVE",
"277 340 CURVE",
"525 641 LINE"
);
},
{
closed = 1;
nodes = (
"74 641 LINE",
"96 193 LINE",
"74 0 LINE",
"177 0 LINE",
"165 200 LINE",
"178 641 LINE"
);
}
);
width = 542;
}
);
leftKerningGroup = H;
rightKerningGroup = X;
unicode = 004B;
},
{
color = 1;
glyphname = L;
layers = (
{
anchors = (
{
name = bottom;
position = "{235, 0}";
},
{
name = top;
position = "{205, 641}";
}
);
layerId = "7C736124-E567-4D27-84C2-A192D2C2BC4A";
paths = (
{
closed = 1;
nodes = (
"80 641 LINE",
"102 193 LINE",
"80 0 LINE",
"175 0 LINE",
"163 200 LINE",
"176 641 LINE"
);
},
{
closed = 1;
nodes = (
"150 72 LINE",
"139 7 LINE",
"150 0 LINE",
"416 0 LINE",
"423 64 LINE",
"417 72 LINE"
);
}
);
width = 418;
}
);
leftKerningGroup = H;
rightKerningGroup = L;
unicode = 004C;
},
{
color = 0;
glyphname = Lcaron;
layers = (
{
components = (
{
name = L;
},
{
name = caron.alt;
transform = "{1, 0, 0, 1, -50, -141}";
}
);
layerId = "7C736124-E567-4D27-84C2-A192D2C2BC4A";
paths = (
{
closed = 0;
nodes = (
"216 197 LINE"
);
}
);
width = 242;
}
);
leftKerningGroup = H;
rightKerningGroup = L;
unicode = 013D;
},
{
color = 0;
glyphname = Lslash;
layers = (
{
components = (
{
name = L;
transform = "{1, 0, 0, 1, 14, 0}";
}
);
layerId = "7C736124-E567-4D27-84C2-A192D2C2BC4A";
paths = (
{
closed = 1;
nodes = (
"9 303 LINE",
"25 252 LINE",
"35 247 LINE",
"340 408 LINE",
"324 459 LINE",
"314 463 LINE"
);
}
);
width = 431;
}
);
leftKerningGroup = H;
rightKerningGroup = L;
unicode = 0141;
},
{
color = 1;
glyphname = M;
layers = (
{
layerId = "7C736124-E567-4D27-84C2-A192D2C2BC4A";
paths = (
{
closed = 1;
nodes = (
"571 641 LINE",
"539 549 LINE",
"397 177 LINE",
"390 177 LINE",
"247 544 LINE",
"215 641 LINE",
"125 641 LINE",
"58 0 LINE",
"123 0 LINE",
"140 202 LINE",
"181 515 LINE",
"189 515 LINE",
"354 65 LINE",
"424 65 LINE",
"599 515 LINE",
"606 515 LINE",
"647 195 LINE",
"653 0 LINE",
"730 0 LINE",
"668 641 LINE"
);
}
);
width = 790;
}
);
leftKerningGroup = M;
rightKerningGroup = M;
unicode = 004D;
},
{
color = 1;
glyphname = N;
layers = (
{
anchors = (
{
name = bottom;
position = "{339, 0}";
},
{
name = top;
position = "{340, 641}";
}
);
layerId = "7C736124-E567-4D27-84C2-A192D2C2BC4A";
paths = (
{
closed = 1;
nodes = (
"504 637 LINE",
"514 136 LINE",
"507 136 LINE",
"192 641 LINE",
"93 641 LINE",
"105 190 LINE",
"83 0 LINE",
"188 0 LINE",
"168 212 LINE",
"169 505 LINE",
"184 505 LINE",
"499 0 LINE",
"590 0 LINE",
"579 189 LINE",
"602 643 LINE"
);
}
);
width = 684;
}
);
leftKerningGroup = H;
rightKerningGroup = H;
unicode = 004E;
},
{
color = 1;
glyphname = Eng;
lastChange = "2016-10-28 13:26:40 +0000";
layers = (
{
layerId = "7C736124-E567-4D27-84C2-A192D2C2BC4A";
paths = (
{
closed = 1;
nodes = (
"504 637 LINE",
"514 98 LINE",
"507 98 LINE",
"192 641 LINE",
"93 641 LINE",
"105 190 LINE",
"83 0 LINE",
"188 0 LINE",
"168 212 LINE",
"169 505 LINE",
"184 505 LINE",
"476 -15 LINE",
"403 -39 OFFCURVE",
"311 -78 OFFCURVE",
"238 -104 CURVE",
"238 -122 LINE",
"327 -194 LINE",
"503 -86 OFFCURVE",
"589 13 OFFCURVE",
"589 170 CURVE SMOOTH",
"579 189 LINE",
"602 643 LINE"
);
}
);
width = 684;
}
);
leftKerningGroup = H;
rightKerningGroup = H;
unicode = 014A;
},
{
color = 1;
glyphname = O;
layers = (
{
anchors = (
{
name = top;
position = "{319, 641}";
}
);
layerId = "7C736124-E567-4D27-84C2-A192D2C2BC4A";
paths = (
{
closed = 1;
nodes = (
"141 648 OFFCURVE",
"37 529 OFFCURVE",
"37 315 CURVE SMOOTH",
"37 109 OFFCURVE",
"135 -8 OFFCURVE",
"309 -8 CURVE SMOOTH",
"495 -8 OFFCURVE",
"600 115 OFFCURVE",
"600 333 CURVE SMOOTH",
"600 535 OFFCURVE",
"502 648 OFFCURVE",
"326 648 CURVE"
);
},
{
closed = 1;
nodes = (
"448 578 OFFCURVE",
"511 496 OFFCURVE",
"511 317 CURVE SMOOTH",
"511 142 OFFCURVE",
"446 59 OFFCURVE",
"316 59 CURVE SMOOTH",
"188 59 OFFCURVE",
"125 143 OFFCURVE",
"125 325 CURVE SMOOTH",
"125 496 OFFCURVE",
"190 578 OFFCURVE",
"320 578 CURVE SMOOTH"
);
}
);
width = 636;
}
);
leftKerningGroup = O;
rightKerningGroup = O;
unicode = 004F;
},
{
color = 1;
glyphname = Ohorn;
layers = (
{
anchors = (
{
name = top;
position = "{229, 641}";
}
);
layerId = "7C736124-E567-4D27-84C2-A192D2C2BC4A";
paths = (
{
closed = 1;
nodes = (
"573 766 OFFCURVE",
"549 759 OFFCURVE",
"536 749 CURVE",
"534 741 LINE",
"563 721 OFFCURVE",
"566 696 OFFCURVE",
"566 673 CURVE SMOOTH",
"566 635 OFFCURVE",
"534 614 OFFCURVE",
"496 614 CURVE SMOOTH",
"458 614 OFFCURVE",
"414 648 OFFCURVE",
"330 648 CURVE SMOOTH",
"143 648 OFFCURVE",
"37 529 OFFCURVE",
"37 315 CURVE SMOOTH",
"37 109 OFFCURVE",
"143 -8 OFFCURVE",
"311 -8 CURVE SMOOTH",
"495 -8 OFFCURVE",
"600 118 OFFCURVE",
"600 329 CURVE SMOOTH",
"600 437 OFFCURVE",
"572 518 OFFCURVE",
"517 572 CURVE",
"583 576 OFFCURVE",
"642 614 OFFCURVE",
"642 679 CURVE SMOOTH",
"642 729 OFFCURVE",
"604 766 OFFCURVE",
"578 766 CURVE SMOOTH"
);
},
{
closed = 1;
nodes = (
"448 569 OFFCURVE",
"511 479 OFFCURVE",
"511 310 CURVE SMOOTH",
"511 170 OFFCURVE",
"437 95 OFFCURVE",
"300 95 CURVE SMOOTH",
"180 95 OFFCURVE",
"125 179 OFFCURVE",
"125 374 CURVE SMOOTH",
"125 487 OFFCURVE",
"189 569 OFFCURVE",
"327 569 CURVE SMOOTH"
);
}
);
width = 641;
}
);
leftKerningGroup = O;
rightKerningGroup = O;
unicode = 01A0;
},
{
color = 11;
glyphname = Oslash;
layers = (
{
anchors = (
{
name = top;
position = "{317, 642}";
}
);
components = (
{
name = O;
}
);
layerId = "7C736124-E567-4D27-84C2-A192D2C2BC4A";
paths = (
{
closed = 1;
nodes = (
"446 725 LINE",
"79 -77 LINE",
"75 -85 LINE",
"167 -104 LINE",
"534 696 LINE",
"537 706 LINE"
);
}
);
width = 636;
}
);
leftKerningGroup = O;
rightKerningGroup = O;
unicode = 00D8;
},
{
color = 1;
glyphname = OE;
layers = (
{
anchors = (
{
name = top;
position = "{564, 641}";
}
);
layerId = "7C736124-E567-4D27-84C2-A192D2C2BC4A";
paths = (
{
closed = 1;
nodes = (
"153 653 OFFCURVE",
"37 529 OFFCURVE",
"37 316 CURVE SMOOTH",
"37 109 OFFCURVE",
"147 -12 OFFCURVE",
"339 -12 CURVE SMOOTH",
"401 -12 OFFCURVE",
"466 1 OFFCURVE",
"525 0 CURVE SMOOTH",
"823 0 LINE",
"830 99 LINE",
"824 107 LINE",
"667 86 LINE",
"543 104 LINE",
"542 196 LINE",
"542 276 LINE",
"651 294 LINE",
"768 275 LINE",
"775 374 LINE",
"778 381 LINE",
"665 362 LINE",
"544 380 LINE",
"545 554 LINE",
"679 554 LINE",
"823 534 LINE",
"830 633 LINE",
"824 641 LINE",
"525 641 LINE SMOOTH",
"469 641 OFFCURVE",
"426 653 OFFCURVE",
"363 653 CURVE SMOOTH"
);
},
{
closed = 1;
nodes = (
"390 582 OFFCURVE",
"433 575 OFFCURVE",
"447 569 CURVE SMOOTH",
"448 565 OFFCURVE",
"469 556 OFFCURVE",
"469 531 CURVE SMOOTH",
"481 129 LINE SMOOTH",
"481 108 OFFCURVE",
"450 99 OFFCURVE",
"432 93 CURVE SMOOTH",
"425 88 OFFCURVE",
"376 99 OFFCURVE",
"339 99 CURVE SMOOTH",
"197 99 OFFCURVE",
"125 147 OFFCURVE",
"125 321 CURVE SMOOTH",
"125 494 OFFCURVE",
"200 582 OFFCURVE",
"348 582 CURVE SMOOTH"
);
}
);
width = 853;
}
);
leftKerningGroup = O;
rightKerningGroup = E;
unicode = 0152;
},
{
color = 1;
glyphname = P;
layers = (
{
layerId = "7C736124-E567-4D27-84C2-A192D2C2BC4A";
paths = (
{
closed = 1;
nodes = (
"92 641 LINE",
"138 512 LINE",
"272 516 LINE",
"357 513 OFFCURVE",
"402 530 OFFCURVE",
"402 446 CURVE SMOOTH",
"402 358 OFFCURVE",
"359 329 OFFCURVE",
"279 316 CURVE",
"124 319 LINE",
"124 207 LINE",
"249 207 LINE",
"400 207 OFFCURVE",
"490 311 OFFCURVE",
"490 453 CURVE SMOOTH",
"490 575 OFFCURVE",
"419 642 OFFCURVE",
"293 642 CURVE"
);
},
{
closed = 1;
nodes = (
"83 641 LINE",
"105 193 LINE",
"83 0 LINE",
"186 0 LINE",
"174 200 LINE",
"187 641 LINE"
);
}
);
width = 523;
}
);
leftKerningGroup = H;
rightKerningGroup = P;
unicode = 0050;
},
{
color = 1;
glyphname = Thorn;
layers = (
{
layerId = "7C736124-E567-4D27-84C2-A192D2C2BC4A";
paths = (
{
closed = 1;
nodes = (
"101 539 LINE",
"139 419 LINE",
"274 423 LINE",
"359 419 OFFCURVE",
"404 420 OFFCURVE",
"404 336 CURVE SMOOTH",
"404 247 OFFCURVE",
"359 222 OFFCURVE",
"280 207 CURVE",
"124 211 LINE",
"124 97 LINE",
"251 99 LINE",
"407 99 OFFCURVE",
"493 198 OFFCURVE",
"493 342 CURVE SMOOTH",
"493 466 OFFCURVE",
"422 540 OFFCURVE",
"295 540 CURVE"
);
},
{
closed = 1;
nodes = (
"92 641 LINE",
"96 193 LINE",
"92 0 LINE",
"178 0 LINE",
"175 200 LINE",
"179 641 LINE"
);
}
);
width = 529;
}
);
leftKerningGroup = H;
rightKerningGroup = Thorn;
unicode = 00DE;
},
{
color = 0;
glyphname = Q;
layers = (
{
layerId = "7C736124-E567-4D27-84C2-A192D2C2BC4A";
paths = (
{
closed = 1;
nodes = (
"141 648 OFFCURVE",
"37 529 OFFCURVE",
"37 315 CURVE SMOOTH",
"37 109 OFFCURVE",
"126 -8 OFFCURVE",
"336 -8 CURVE SMOOTH",
"495 -8 OFFCURVE",
"600 133 OFFCURVE",
"600 306 CURVE SMOOTH",
"600 544 OFFCURVE",
"502 648 OFFCURVE",
"335 648 CURVE"
);
},
{
closed = 1;
nodes = (
"323 3 LINE",
"436 -74 OFFCURVE",
"563 -133 OFFCURVE",
"694 -193 CURVE",
"694 -190 LINE",
"726 -159 OFFCURVE",
"712 -169 OFFCURVE",
"733 -119 CURVE",
"730 -108 LINE",
"559 -76 OFFCURVE",
"483 -47 OFFCURVE",
"366 14 CURVE"
);
},
{
closed = 1;
nodes = (
"439 569 OFFCURVE",
"511 487 OFFCURVE",
"511 362 CURVE SMOOTH",
"511 187 OFFCURVE",
"419 95 OFFCURVE",
"334 95 CURVE SMOOTH",
"197 95 OFFCURVE",
"125 179 OFFCURVE",
"125 298 CURVE SMOOTH",
"125 487 OFFCURVE",
"172 569 OFFCURVE",
"302 569 CURVE SMOOTH"
);
}
);
width = 640;
}
);
leftKerningGroup = O;
rightKerningGroup = O;
unicode = 0051;
},
{
color = 1;
glyphname = R;
layers = (
{
anchors = (
{
name = bottom;
position = "{280, 0}";
},
{
name = top;
position = "{280, 641}";
}
);
layerId = "7C736124-E567-4D27-84C2-A192D2C2BC4A";
paths = (
{
closed = 1;
nodes = (
"92 641 LINE",
"138 512 LINE",
"272 516 LINE",
"357 513 OFFCURVE",
"402 532 OFFCURVE",
"402 451 CURVE SMOOTH",
"402 374 OFFCURVE",
"364 350 OFFCURVE",
"293 329 CURVE",
"124 333 LINE",
"124 220 LINE",
"297 220 LINE",
"418 249 OFFCURVE",
"491 349 OFFCURVE",
"491 458 CURVE SMOOTH",
"491 577 OFFCURVE",
"419 642 OFFCURVE",
"293 642 CURVE"
);
},
{
closed = 1;
nodes = (
"83 641 LINE",
"105 193 LINE",
"83 0 LINE",
"186 0 LINE",
"174 200 LINE",
"187 641 LINE"
);
},
{
closed = 1;
nodes = (
"265 281 LINE",
"315 185 OFFCURVE",
"373 90 OFFCURVE",
"433 -2 CURVE",
"444 -9 LINE",
"472 -6 OFFCURVE",
"498 0 OFFCURVE",
"524 10 CURVE",
"525 20 LINE",
"460 106 OFFCURVE",
"400 193 OFFCURVE",
"354 282 CURVE"
);
}
);
width = 559;
}
);
leftKerningGroup = H;
rightKerningGroup = R;
unicode = 0052;
},
{
color = 1;
glyphname = S;
layers = (
{
anchors = (
{
name = bottom;
position = "{238, 0}";
},
{
name = top;
position = "{257, 641}";
}
);
layerId = "7C736124-E567-4D27-84C2-A192D2C2BC4A";
paths = (
{
closed = 1;
nodes = (
"151 647 OFFCURVE",
"65 567 OFFCURVE",
"65 466 CURVE SMOOTH",
"65 280 OFFCURVE",
"356 290 OFFCURVE",
"356 174 CURVE SMOOTH",
"356 113 OFFCURVE",
"302 86 OFFCURVE",
"248 86 CURVE SMOOTH",
"176 86 OFFCURVE",
"121 114 OFFCURVE",
"79 243 CURVE",
"60 238 LINE",
"49 37 LINE",
"103 8 OFFCURVE",
"167 -7 OFFCURVE",
"223 -7 CURVE SMOOTH",
"362 -7 OFFCURVE",
"441 77 OFFCURVE",
"441 178 CURVE SMOOTH",
"441 356 OFFCURVE",
"157 359 OFFCURVE",
"157 477 CURVE SMOOTH",
"157 525 OFFCURVE",
"191 569 OFFCURVE",
"258 569 CURVE SMOOTH",
"389 569 OFFCURVE",
"411 512 OFFCURVE",
"402 441 CURVE",
"408 446 LINE",
"422 616 LINE",
"367 639 OFFCURVE",
"324 647 OFFCURVE",
"285 647 CURVE SMOOTH"
);
}
);
width = 475;
}
);
leftKerningGroup = S;
rightKerningGroup = S;
unicode = 0053;
},
{
color = 0;
glyphname = Saltillo;
layers = (
{
components = (
{
name = quotesingle;
transform = "{1, 0, 0, 1.0468, -66, -8}";
}
);
layerId = "7C736124-E567-4D27-84C2-A192D2C2BC4A";
paths = (
{
closed = 0;
nodes = (
"48 153 LINE"
);
}
);
width = 41;
}
);
leftKerningGroup = asterisk;
rightKerningGroup = asterisk;
unicode = A78B;
},
{
color = 1;
glyphname = Germandbls;
layers = (
{
layerId = "7C736124-E567-4D27-84C2-A192D2C2BC4A";
paths = (
{
closed = 1;
nodes = (
"167 647 OFFCURVE",
"64 557 OFFCURVE",
"82 423 CURVE SMOOTH",
"93 190 LINE",
"63 0 LINE",
"166 0 LINE",
"154 201 LINE",
"156 423 LINE SMOOTH",
"173 519 OFFCURVE",
"215 568 OFFCURVE",
"344 568 CURVE SMOOTH",
"363 568 OFFCURVE",
"406 558 OFFCURVE",
"464 535 CURVE",
"292 337 LINE",
"305 319 LINE",
"511 235 OFFCURVE",
"529 218 OFFCURVE",
"529 155 CURVE SMOOTH",
"529 105 OFFCURVE",
"485 78 OFFCURVE",
"461 78 CURVE SMOOTH",
"355 78 OFFCURVE",
"305 160 OFFCURVE",
"267 243 CURVE",
"248 238 LINE",
"245 37 LINE",
"329 8 OFFCURVE",
"359 -7 OFFCURVE",
"413 -7 CURVE SMOOTH",
"516 -7 OFFCURVE",
"614 50 OFFCURVE",
"614 172 CURVE SMOOTH",
"614 299 OFFCURVE",
"532 339 OFFCURVE",
"440 406 CURVE",
"588 535 LINE",
"592 568 LINE",
"586 573 OFFCURVE",
"437 647 OFFCURVE",
"306 647 CURVE SMOOTH"
);
}
);
width = 635;
}
);
leftKerningGroup = Germandbls;
rightKerningGroup = Germandbls;
unicode = 1E9E;
},
{
color = 1;
glyphname = T;
layers = (
{
anchors = (
{
name = bottom;
position = "{241, 0}";
},
{
name = center;
position = "{249, 321}";
},
{
name = top;
position = "{249, 641}";
}
);
layerId = "7C736124-E567-4D27-84C2-A192D2C2BC4A";
paths = (
{
closed = 1;
nodes = (
"187 663 LINE",
"225 193 LINE",
"195 0 LINE",
"298 0 LINE",
"286 200 LINE",
"307 663 LINE"
);
},
{
closed = 1;
nodes = (
"36 641 LINE",
"21 551 LINE",
"27 543 LINE",
"142 581 LINE",
"352 581 LINE",
"473 543 LINE",
"471 633 LINE",
"465 641 LINE"
);
}
);
width = 483;
}
);
leftKerningGroup = T;
rightKerningGroup = T;
unicode = 0054;
},
{
color = 0;
glyphname = Tbar;
layers = (
{
components = (
{
name = T;
}
);
layerId = "7C736124-E567-4D27-84C2-A192D2C2BC4A";
paths = (
{
closed = 1;
nodes = (
"86 345 LINE",
"74 266 LINE",
"80 268 LINE",
"451 268 LINE",
"455 347 LINE",
"440 345 LINE"
);
}
);
width = 491;
}
);
leftKerningGroup = T;
rightKerningGroup = T;
unicode = 0166;
},
{
color = 1;
glyphname = U;
layers = (
{
anchors = (
{
name = ogonek;
position = "{518, 10}";
},
{
name = top;
position = "{316, 641}";
}
);
layerId = "7C736124-E567-4D27-84C2-A192D2C2BC4A";
paths = (
{
closed = 1;
nodes = (
"469 641 LINE",
"481 243 LINE SMOOTH",
"490 131 OFFCURVE",
"418 108 OFFCURVE",
"313 108 CURVE SMOOTH",
"207 108 OFFCURVE",
"153 167 OFFCURVE",
"154 342 CURVE SMOOTH",
"166 641 LINE",
"81 641 LINE",
"74 321 LINE",
"73 323 LINE SMOOTH",
"62 120 OFFCURVE",
"146 -7 OFFCURVE",
"274 -7 CURVE SMOOTH",
"457 -7 OFFCURVE",
"555 149 OFFCURVE",
"552 404 CURVE",
"553 315 LINE",
"555 641 LINE"
);
}
);
width = 627;
}
);
leftKerningGroup = U;
rightKerningGroup = U;
unicode = 0055;
},
{
color = 0;
glyphname = Uhorn;
layers = (
{
anchors = (
{
name = top;
position = "{316, 641}";
}
);
components = (
{
name = U;
}
);
layerId = "7C736124-E567-4D27-84C2-A192D2C2BC4A";
paths = (
{
closed = 1;
nodes = (
"564 777 OFFCURVE",
"558 770 OFFCURVE",
"544 760 CURVE",
"533 752 LINE",
"565 731 OFFCURVE",
"574 712 OFFCURVE",
"574 692 CURVE SMOOTH",
"574 659 OFFCURVE",
"551 641 OFFCURVE",
"509 641 CURVE",
"511 595 LINE",
"592 600 OFFCURVE",
"641 642 OFFCURVE",
"641 698 CURVE SMOOTH",
"641 743 OFFCURVE",
"610 777 OFFCURVE",
"577 777 CURVE SMOOTH"
);
}
);
width = 637;
}
);
leftKerningGroup = U;
rightKerningGroup = Uhorn;
unicode = 01AF;
},
{
color = 0;
glyphname = Uogonek;
layers = (
{
components = (
{
name = U;
}
);
layerId = "7C736124-E567-4D27-84C2-A192D2C2BC4A";
paths = (
{
closed = 1;
nodes = (
"372 57 LINE",
"335 -49 LINE SMOOTH",
"319 -73 OFFCURVE",
"337 -79 OFFCURVE",
"337 -84 CURVE SMOOTH",
"337 -156 OFFCURVE",
"368 -197 OFFCURVE",
"416 -197 CURVE SMOOTH",
"452 -197 OFFCURVE",
"484 -178 OFFCURVE",
"516 -144 CURVE",
"496 -72 LINE",
"491 -72 LINE",
"468 -89 OFFCURVE",
"442 -77 OFFCURVE",
"435 -77 CURVE SMOOTH",
"426 -77 OFFCURVE",
"439 -96 OFFCURVE",
"439 -108 CURVE SMOOTH",
"439 -102 OFFCURVE",
"453 -59 OFFCURVE",
"448 -58 CURVE SMOOTH",
"470 57 LINE"
);
}
);
width = 627;
}
);
leftKerningGroup = U;
rightKerningGroup = U;
unicode = 0172;
},
{
color = 1;
glyphname = V;
layers = (
{
layerId = "7C736124-E567-4D27-84C2-A192D2C2BC4A";
paths = (
{
closed = 1;
nodes = (
"474 641 LINE",
"458 570 LINE",
"274 86 LINE",
"276 86 LINE",
"117 574 LINE",
"102 641 LINE",
"14 641 LINE",
"227 0 LINE",
"327 0 LINE",
"560 641 LINE SMOOTH"
);
}
);
width = 566;
}
);
leftKerningGroup = V;
rightKerningGroup = V;
unicode = 0056;
},
{
color = 1;
glyphname = W;
layers = (
{
anchors = (
{
name = top;
position = "{440, 641}";
}
);
layerId = "7C736124-E567-4D27-84C2-A192D2C2BC4A";
paths = (
{
closed = 1;
nodes = (
"805 641 LINE",
"790 573 LINE",
"613 94 LINE",
"606 94 LINE",
"461 570 LINE",
"421 641 LINE",
"325 641 LINE",
"411 480 LINE",
"276 94 LINE",
"269 94 LINE",
"109 586 LINE",
"106 641 LINE",
"21 641 LINE",
"222 0 LINE",
"312 0 LINE",
"432 373 LINE",
"447 373 LINE",
"569 0 LINE",
"658 0 LINE",
"878 641 LINE"
);
}
);
width = 886;
}
);
leftKerningGroup = V;
rightKerningGroup = V;
unicode = 0057;
},
{
color = 1;
glyphname = X;
layers = (
{
layerId = "7C736124-E567-4D27-84C2-A192D2C2BC4A";
paths = (
{
closed = 1;
nodes = (
"447 641 LINE",
"429 590 LINE",
"286 389 LINE",
"152 589 LINE",
"125 641 LINE",
"29 641 LINE",
"238 323 LINE",
"22 0 LINE",
"113 0 LINE",
"139 48 LINE",
"280 267 LINE",
"424 53 LINE",
"460 0 LINE",
"564 0 LINE",
"346 334 LINE",
"548 641 LINE"
);
}
);
width = 591;
}
);
leftKerningGroup = X;
rightKerningGroup = X;
unicode = 0058;
},
{
color = 1;
glyphname = Y;
layers = (
{
anchors = (
{
name = top;
position = "{260, 641}";
}
);
layerId = "7C736124-E567-4D27-84C2-A192D2C2BC4A";
paths = (
{
closed = 1;
nodes = (
"429 641 LINE",
"414 602 LINE",
"272 321 LINE",
"256 321 LINE",
"119 604 LINE",
"106 641 LINE",
"14 641 LINE",
"259 179 LINE",
"287 179 LINE",
"528 641 LINE SMOOTH"
);
},
{
closed = 1;
nodes = (
"225 273 LINE",
"227 186 LINE",
"205 0 LINE",
"308 0 LINE",
"296 186 LINE",
"290 273 LINE"
);
}
);
width = 531;
}
);
leftKerningGroup = Y;
rightKerningGroup = Y;
unicode = 0059;
},
{
color = 1;
glyphname = Z;
layers = (
{
anchors = (
{
name = top;
position = "{270, 641}";
}
);
layerId = "7C736124-E567-4D27-84C2-A192D2C2BC4A";
paths = (
{
closed = 1;
nodes = (
"446 641 LINE",
"324 641 LINE",
"57 642 LINE",
"50 513 LINE",
"55 507 LINE",
"307 547 LINE",
"379 547 LINE",
"31 60 LINE",
"31 -3 LINE",
"90 0 LINE",
"295 0 LINE",
"496 -2 LINE",
"495 127 LINE",
"499 133 LINE",
"321 93 LINE",
"142 93 LINE",
"497 578 LINE",
"497 642 LINE"
);
}
);
width = 530;
}
);
leftKerningGroup = Z;
rightKerningGroup = Z;
unicode = 005A;
},
{
color = 0;
glyphname = Q.corta;
layers = (
{
layerId = "7C736124-E567-4D27-84C2-A192D2C2BC4A";
paths = (
{
closed = 1;
nodes = (
"141 648 OFFCURVE",
"37 529 OFFCURVE",
"37 315 CURVE SMOOTH",
"37 109 OFFCURVE",
"126 -8 OFFCURVE",
"336 -8 CURVE SMOOTH",
"495 -8 OFFCURVE",
"600 133 OFFCURVE",
"600 306 CURVE SMOOTH",
"600 544 OFFCURVE",
"502 648 OFFCURVE",
"335 648 CURVE"
);
},
{
closed = 1;
nodes = (
"323 3 LINE",
"428 -57 OFFCURVE",
"517 -109 OFFCURVE",
"597 -188 CURVE",
"605 -185 LINE",
"620 -154 OFFCURVE",
"641 -118 OFFCURVE",
"645 -77 CURVE",
"642 -67 LINE",
"540 -35 OFFCURVE",
"458 -4 OFFCURVE",
"384 32 CURVE"
);
},
{
closed = 1;
nodes = (
"439 569 OFFCURVE",
"511 487 OFFCURVE",
"511 371 CURVE SMOOTH",
"511 187 OFFCURVE",
"428 95 OFFCURVE",
"325 95 CURVE SMOOTH",
"197 95 OFFCURVE",
"125 188 OFFCURVE",
"125 298 CURVE SMOOTH",
"125 487 OFFCURVE",
"172 569 OFFCURVE",
"302 569 CURVE SMOOTH"
);
}
);
width = 640;
}
);
leftKerningGroup = O;
rightKerningGroup = O;
},
{
color = 1;
glyphname = C.ss01;
layers = (
{
anchors = (
{
name = bottom;
position = "{264, 8}";
},
{
name = top;
position = "{263, 500}";
}
);
layerId = "7C736124-E567-4D27-84C2-A192D2C2BC4A";
paths = (
{
closed = 1;
nodes = (
"-100 463 LINE",
"560 463 LINE",
"560 499 LINE",
"-100 499 LINE"
);
},
{
closed = 1;
nodes = (
"-100 0 LINE",
"560 0 LINE",
"560 36 LINE",
"-100 36 LINE"
);
},
{
closed = 1;
nodes = (
"142 505 OFFCURVE",
"49 432 OFFCURVE",
"49 247 CURVE SMOOTH",
"49 89 OFFCURVE",
"153 10 OFFCURVE",
"240 10 CURVE SMOOTH",
"356 10 OFFCURVE",
"359 22 OFFCURVE",
"410 36 CURVE",
"416 196 LINE",
"416 192 LINE",
"371 133 OFFCURVE",
"322 75 OFFCURVE",
"227 75 CURVE SMOOTH",
"190 75 OFFCURVE",
"138 148 OFFCURVE",
"138 245 CURVE SMOOTH",
"138 391 OFFCURVE",
"190 433 OFFCURVE",
"210 433 CURVE SMOOTH",
"323 433 OFFCURVE",
"375 384 OFFCURVE",
"399 317 CURVE",
"416 320 LINE",
"430 472 LINE",
"391 493 OFFCURVE",
"352 505 OFFCURVE",
"266 505 CURVE SMOOTH"
);
}
);
width = 460;
}
);
},
{
color = 1;
glyphname = D.ss01;
layers = (
{
anchors = (
{
name = center;
position = "{270, 249}";
},
{
name = top;
position = "{268, 500}";
}
);
layerId = "7C736124-E567-4D27-84C2-A192D2C2BC4A";
paths = (
{
closed = 1;
nodes = (
"-100 463 LINE",
"666 463 LINE",
"666 499 LINE",
"-100 499 LINE"
);
},
{
closed = 1;
nodes = (
"-100 0 LINE",
"666 0 LINE",
"666 36 LINE",
"-100 36 LINE"
);
},
{
closed = 1;
nodes = (
"94 500 LINE",
"169 392 LINE",
"193 395 OFFCURVE",
"262 405 OFFCURVE",
"272 405 CURVE SMOOTH",
"376 405 OFFCURVE",
"436 374 OFFCURVE",
"436 249 CURVE SMOOTH",
"436 131 OFFCURVE",
"370 96 OFFCURVE",
"270 96 CURVE SMOOTH",
"258 96 OFFCURVE",
"184 100 OFFCURVE",
"150 103 CURVE",
"94 6 LINE",
"141 3 OFFCURVE",
"232 9 OFFCURVE",
"266 9 CURVE",
"418 9 OFFCURVE",
"516 104 OFFCURVE",
"516 266 CURVE SMOOTH",
"516 413 OFFCURVE",
"426 495 OFFCURVE",
"278 495 CURVE"
);
},
{
closed = 1;
nodes = (
"94 500 LINE",
"89 160 LINE",
"94 6 LINE",
"171 6 LINE",
"177 159 LINE",
"172 500 LINE"
);
}
);
width = 566;
}
);
},
{
color = 1;
glyphname = I.ss01;
layers = (
{
anchors = (
{
name = ogonek;
position = "{196, 9}";
},
{
name = top;
position = "{132, 497}";
}
);
layerId = "7C736124-E567-4D27-84C2-A192D2C2BC4A";
paths = (
{
closed = 1;
nodes = (
"-100 463 LINE",
"361 463 LINE",
"361 499 LINE",
"-100 499 LINE"
);
},
{
closed = 1;
nodes = (
"-100 0 LINE",
"361 0 LINE",
"361 36 LINE",
"-100 36 LINE"
);
},
{
closed = 1;
nodes = (
"88 497 LINE",
"91 150 LINE",
"88 1 LINE",
"168 1 LINE",
"165 157 LINE",
"169 497 LINE"
);
}
);
width = 261;
}
);
},
{
color = 11;
glyphname = L.ss01;
layers = (
{
layerId = "7C736124-E567-4D27-84C2-A192D2C2BC4A";
paths = (
{
closed = 1;
nodes = (
"87 498 LINE",
"90 161 LINE",
"87 2 LINE",
"376 2 LINE",
"378 156 LINE",
"323 153 LINE",
"318 68 LINE",
"163 68 LINE",
"163 168 LINE",
"175 498 LINE"
);
},
{
closed = 1;
nodes = (
"-100 36 LINE",
"-100 0 LINE",
"496 0 LINE",
"496 36 LINE"
);
},
{
closed = 1;
nodes = (
"-100 499 LINE",
"-100 463 LINE",
"496 463 LINE",
"496 499 LINE"
);
}
);
width = 396;
}
);
},
{
color = 1;
glyphname = M.ss01;
layers = (
{
layerId = "7C736124-E567-4D27-84C2-A192D2C2BC4A";
paths = (
{
closed = 1;
nodes = (
"-100 499 LINE",
"-100 463 LINE",
"783 463 LINE",
"783 499 LINE"
);
},
{
closed = 1;
nodes = (
"-100 36 LINE",
"-100 0 LINE",
"783 0 LINE",
"783 36 LINE"
);
},
{
closed = 1;
nodes = (
"473 488 LINE",
"439 424 LINE",
"342 183 LINE",
"336 183 LINE",
"236 422 LINE",
"212 488 LINE",
"115 488 LINE",
"71 11 LINE",
"137 11 LINE",
"149 170 LINE",
"173 378 LINE",
"178 378 LINE",
"304 84 LINE",
"366 84 LINE",
"499 378 LINE",
"505 378 LINE",
"528 165 LINE",
"539 11 LINE",
"607 11 LINE",
"559 488 LINE"
);
}
);
width = 683;
}
);
},
{
color = 1;
glyphname = V.ss01;
layers = (
{
layerId = "7C736124-E567-4D27-84C2-A192D2C2BC4A";
paths = (
{
closed = 1;
nodes = (
"-100 463 LINE",
"602 463 LINE",
"602 499 LINE",
"-100 499 LINE"
);
},
{
closed = 1;
nodes = (
"-100 0 LINE",
"602 0 LINE",
"602 36 LINE",
"-100 36 LINE"
);
},
{
closed = 1;
nodes = (
"392 501 LINE",
"396 433 LINE",
"252 90 LINE",
"255 90 LINE",
"141 437 LINE",
"128 501 LINE",
"32 501 LINE",
"193 6 LINE",
"310 6 LINE",
"486 501 LINE SMOOTH"
);
}
);
width = 502;
}
);
},
{
color = 1;
glyphname = X.ss01;
layers = (
{
layerId = "7C736124-E567-4D27-84C2-A192D2C2BC4A";
paths = (
{
closed = 1;
nodes = (
"-100 463 LINE",
"622 463 LINE",
"622 499 LINE",
"-100 499 LINE"
);
},
{
closed = 1;
nodes = (
"-100 0 LINE",
"622 0 LINE",
"622 36 LINE",
"-100 36 LINE"
);
},
{
closed = 1;
nodes = (
"385 494 LINE",
"365 446 LINE",
"280 341 LINE",
"196 445 LINE",
"183 494 LINE",
"41 494 LINE",
"214 251 LINE",
"37 15 LINE",
"157 15 LINE",
"178 61 LINE",
"266 178 LINE",
"357 73 LINE",
"370 15 LINE",
"511 15 LINE",
"341 269 LINE",
"499 494 LINE"
);
}
);
width = 522;
}
);
},
{
color = 1;
glyphname = a;
layers = (
{
anchors = (
{
name = ogonek;
position = "{428, 10}";
},
{
name = top;
position = "{224, 459}";
}
);
layerId = "7C736124-E567-4D27-84C2-A192D2C2BC4A";
paths = (
{
closed = 1;
nodes = (
"158 467 OFFCURVE",
"131 454 OFFCURVE",
"59 414 CURVE",
"70 288 LINE",
"78 284 LINE",
"114 377 OFFCURVE",
"134 406 OFFCURVE",
"236 406 CURVE SMOOTH",
"244 406 OFFCURVE",
"289 379 OFFCURVE",
"289 327 CURVE",
"296 305 LINE",
"135 227 LINE SMOOTH",
"75 189 OFFCURVE",
"41 205 OFFCURVE",
"41 103 CURVE SMOOTH",
"41 50 OFFCURVE",
"118 -7 OFFCURVE",
"282 -7 CURVE",
"279 72 OFFCURVE",
"249 82 OFFCURVE",
"266 60 CURVE",
"289 60 LINE",
"260 89 OFFCURVE",
"318 14 OFFCURVE",
"400 -6 CURVE SMOOTH",
"372 -4 OFFCURVE",
"401 20 OFFCURVE",
"426 14 CURVE",
"426 62 LINE",
"418 85 LINE",
"354 105 OFFCURVE",
"377 120 OFFCURVE",
"385 120 CURVE SMOOTH",
"338 120 OFFCURVE",
"330 97 OFFCURVE",
"330 109 CURVE SMOOTH",
"330 225 OFFCURVE",
"375 270 OFFCURVE",
"375 378 CURVE SMOOTH",
"375 422 OFFCURVE",
"279 467 OFFCURVE",
"249 467 CURVE SMOOTH"
);
},
{
closed = 1;
nodes = (
"292 244 LINE",
"224 185 OFFCURVE",
"213 135 OFFCURVE",
"126 135 CURVE SMOOTH",
"143 135 OFFCURVE",
"125 152 OFFCURVE",
"125 163 CURVE SMOOTH",
"125 151 OFFCURVE",
"72 90 OFFCURVE",
"16 80 CURVE SMOOTH",
"287 171 LINE"
);
}
);
width = 464;
}
);
leftKerningGroup = a;
rightKerningGroup = n;
unicode = 0061;
},
{
color = 0;
glyphname = aogonek;
layers = (
{
components = (
{
name = a;
}
);
layerId = "7C736124-E567-4D27-84C2-A192D2C2BC4A";
paths = (
{
closed = 1;
nodes = (
"368 18 LINE",
"302 -59 OFFCURVE",
"282 -89 OFFCURVE",
"282 -124 CURVE SMOOTH",
"282 -169 OFFCURVE",
"315 -197 OFFCURVE",
"356 -197 CURVE SMOOTH",
"391 -197 OFFCURVE",
"427 -177 OFFCURVE",
"454 -189 CURVE",
"424 -81 LINE",
"428 -81 LINE",
"401 -80 OFFCURVE",
"389 -59 OFFCURVE",
"385 -59 CURVE SMOOTH",
"400 -59 OFFCURVE",
"419 -91 OFFCURVE",
"419 -103 CURVE SMOOTH",
"419 -89 OFFCURVE",
"419 -64 OFFCURVE",
"426 14 CURVE"
);
}
);
width = 464;
}
);
leftKerningGroup = a;
rightKerningGroup = n;
unicode = 0105;
},
{
color = 1;
glyphname = ae;
layers = (
{
anchors = (
{
name = top;
position = "{344, 459}";
}
);
layerId = "7C736124-E567-4D27-84C2-A192D2C2BC4A";
paths = (
{
closed = 1;
nodes = (
"271 187 LINE",
"665 231 LINE",
"674 243 LINE",
"627 357 LINE",
"271 293 LINE"
);
},
{
closed = 1;
nodes = (
"271 293 LINE",
"132 271 LINE SMOOTH",
"62 253 OFFCURVE",
"38 188 OFFCURVE",
"38 128 CURVE SMOOTH",
"38 24 OFFCURVE",
"120 -7 OFFCURVE",
"252 -7 CURVE",
"347 109 OFFCURVE",
"423 182 OFFCURVE",
"322 89 CURVE",
"354 26 OFFCURVE",
"411 -8 OFFCURVE",
"486 -8 CURVE SMOOTH",
"530 -8 OFFCURVE",
"580 6 OFFCURVE",
"611 28 CURVE",
"605 161 LINE",
"588 166 LINE",
"558 97 OFFCURVE",
"527 56 OFFCURVE",
"476 56 CURVE SMOOTH",
"411 56 OFFCURVE",
"359 119 OFFCURVE",
"359 237 CURVE SMOOTH",
"359 273 LINE SMOOTH",
"359 347 OFFCURVE",
"403 408 OFFCURVE",
"463 408 CURVE SMOOTH",
"502 408 OFFCURVE",
"589 378 OFFCURVE",
"573 300 CURVE",
"674 243 LINE",
"703 451 OFFCURVE",
"570 466 OFFCURVE",
"539 466 CURVE SMOOTH",
"506 466 OFFCURVE",
"413 467 OFFCURVE",
"394 519 CURVE",
"329 438 OFFCURVE",
"298 467 OFFCURVE",
"217 467 CURVE SMOOTH",
"177 467 OFFCURVE",
"119 446 OFFCURVE",
"64 406 CURVE",
"84 288 LINE",
"92 284 LINE",
"138 369 OFFCURVE",
"183 406 OFFCURVE",
"215 406 CURVE SMOOTH",
"264 406 OFFCURVE",
"291 379 OFFCURVE",
"291 327 CURVE SMOOTH",
"291 232 LINE SMOOTH",
"291 237 OFFCURVE",
"285 238 OFFCURVE",
"275 160 CURVE",
"183 114 OFFCURVE",
"195 144 OFFCURVE",
"167 144 CURVE SMOOTH",
"184 144 OFFCURVE",
"114 85 OFFCURVE",
"114 153 CURVE SMOOTH",
"114 140 OFFCURVE",
"110 158 OFFCURVE",
"139 157 CURVE SMOOTH",
"271 187 LINE"
);
}
);
width = 680;
}
);
leftKerningGroup = a;
rightKerningGroup = e;
unicode = 00E6;
},
{
color = 1;
glyphname = b;
layers = (
{
anchors = (
{
name = bottom;
position = "{266, 0}";
},
{
name = top;
position = "{266, 459}";
}
);
layerId = "7C736124-E567-4D27-84C2-A192D2C2BC4A";
paths = (
{
closed = 1;
nodes = (
"239 377 OFFCURVE",
"328 424 OFFCURVE",
"203 428 CURVE",
"243 428 LINE",
"195 244 LINE",
"373 371 OFFCURVE",
"381 378 OFFCURVE",
"399 378 CURVE SMOOTH",
"378 378 OFFCURVE",
"375 319 OFFCURVE",
"393 266 CURVE SMOOTH",
"411 127 OFFCURVE",
"365 93 OFFCURVE",
"380 93 CURVE SMOOTH",
"218 93 OFFCURVE",
"190 217 OFFCURVE",
"109 501 CURVE",
"105 256 LINE",
"153 110 OFFCURVE",
"199 -8 OFFCURVE",
"285 -8 CURVE SMOOTH",
"406 -8 OFFCURVE",
"481 90 OFFCURVE",
"481 268 CURVE SMOOTH",
"481 373 OFFCURVE",
"453 464 OFFCURVE",
"279 464 CURVE SMOOTH"
);
},
{
closed = 1;
nodes = (
"83 695 LINE",
"121 192 LINE",
"74 -68 LINE",
"137 -76 LINE",
"199 20 LINE",
"154 202 LINE",
"184 702 LINE"
);
}
);
width = 523;
}
);
leftKerningGroup = h;
leftMetricsKey = l;
rightKerningGroup = o;
rightMetricsKey = o;
unicode = 0062;
},
{
color = 1;
glyphname = c;
layers = (
{
anchors = (
{
name = bottom;
position = "{227, 0}";
},
{
name = top;
position = "{237, 459}";
}
);
layerId = "7C736124-E567-4D27-84C2-A192D2C2BC4A";
paths = (
{
closed = 1;
nodes = (
"118 467 OFFCURVE",
"41 374 OFFCURVE",
"41 242 CURVE SMOOTH",
"41 81 OFFCURVE",
"131 -8 OFFCURVE",
"302 -8 CURVE SMOOTH",
"303 -8 OFFCURVE",
"323 -22 OFFCURVE",
"359 -56 CURVE",
"368 88 LINE",
"359 93 LINE",
"325 73 OFFCURVE",
"284 60 OFFCURVE",
"256 60 CURVE SMOOTH",
"168 60 OFFCURVE",
"121 133 OFFCURVE",
"121 223 CURVE SMOOTH",
"121 344 OFFCURVE",
"167 397 OFFCURVE",
"243 397 CURVE SMOOTH",
"279 397 OFFCURVE",
"315 383 OFFCURVE",
"345 364 CURVE",
"354 367 LINE",
"369 521 LINE",
"336 489 OFFCURVE",
"288 467 OFFCURVE",
"270 467 CURVE SMOOTH"
);
}
);
width = 385;
}
);
leftKerningGroup = o;
leftMetricsKey = o;
rightKerningGroup = c;
unicode = 0063;
},
{
color = 1;
glyphname = d;
lastChange = "2016-10-28 13:26:40 +0000";
layers = (
{
anchors = (
{
name = center;
position = "{259, 230}";
}
);
layerId = "7C736124-E567-4D27-84C2-A192D2C2BC4A";
paths = (
{
closed = 1;
nodes = (
"338 695 LINE",
"348 490 LINE",
"319 488 OFFCURVE",
"290 475 OFFCURVE",
"238 475 CURVE SMOOTH",
"107 475 OFFCURVE",
"23 389 OFFCURVE",
"23 293 CURVE SMOOTH",
"23 80 OFFCURVE",
"95 3 OFFCURVE",
"423 3 CURVE SMOOTH",
"391 117 OFFCURVE",
"305 87 OFFCURVE",
"360 48 CURVE",
"400 48 LINE",
"381 89 OFFCURVE",
"405 14 OFFCURVE",
"487 -6 CURVE SMOOTH",
"467 -4 OFFCURVE",
"496 20 OFFCURVE",
"513 14 CURVE",
"521 62 LINE",
"513 85 LINE",
"449 105 OFFCURVE",
"464 120 OFFCURVE",
"463 120 CURVE SMOOTH",
"434 120 OFFCURVE",
"436 89 OFFCURVE",
"427 84 CURVE SMOOTH",
"408 218 LINE",
"439 702 LINE"
);
},
{
closed = 1;
nodes = (
"219 415 OFFCURVE",
"266 374 OFFCURVE",
"340 310 CURVE",
"367 211 LINE",
"349 156 LINE",
"237 88 OFFCURVE",
"236 139 OFFCURVE",
"266 139 CURVE SMOOTH",
"175 139 OFFCURVE",
"137 191 OFFCURVE",
"119 261 CURVE SMOOTH",
"101 358 OFFCURVE",
"179 415 OFFCURVE",
"164 415 CURVE SMOOTH"
);
}
);
width = 517;
}
);
leftKerningGroup = o;
leftMetricsKey = o;
rightKerningGroup = l;
unicode = 0064;
},
{
color = 1;
glyphname = eth;
layers = (
{
layerId = "7C736124-E567-4D27-84C2-A192D2C2BC4A";
paths = (
{
closed = 1;
nodes = (
"84 706 LINE",
"59 684 LINE",
"59 673 LINE",
"219 627 OFFCURVE",
"380 465 OFFCURVE",
"380 273 CURVE SMOOTH",
"380 103 OFFCURVE",
"331 41 OFFCURVE",
"230 41 CURVE SMOOTH",
"132 41 OFFCURVE",
"67 107 OFFCURVE",
"67 224 CURVE SMOOTH",
"67 348 OFFCURVE",
"131 442 OFFCURVE",
"234 442 CURVE SMOOTH",
"281 442 OFFCURVE",
"327 416 OFFCURVE",
"360 373 CURVE",
"375 405 LINE",
"339 456 OFFCURVE",
"292 467 OFFCURVE",
"230 467 CURVE SMOOTH",
"100 467 OFFCURVE",
"34 371 OFFCURVE",
"34 224 CURVE SMOOTH",
"34 84 OFFCURVE",
"110 -8 OFFCURVE",
"217 -8 CURVE SMOOTH",
"340 -8 OFFCURVE",
"413 85 OFFCURVE",
"413 246 CURVE SMOOTH",
"413 455 OFFCURVE",
"300 621 OFFCURVE",
"90 706 CURVE"
);
},
{
closed = 1;
nodes = (
"72 604 LINE",
"90 532 LINE",
"98 529 LINE",
"367 659 LINE",
"333 731 LINE",
"333 734 LINE"
);
}
);
width = 433;
}
);
leftKerningGroup = eth;
rightKerningGroup = eth;
unicode = 00F0;
},
{
color = 0;
glyphname = dcaron;
layers = (
{
components = (
{
name = d;
},
{
name = caron.alt;
transform = "{1, 0, 0, 1, 332, -43}";
}
);
layerId = "7C736124-E567-4D27-84C2-A192D2C2BC4A";
paths = (
{
closed = 0;
nodes = (
"227 243 LINE"
);
}
);
width = 541;
}
);
leftKerningGroup = o;
rightKerningGroup = l;
unicode = 010F;
},
{
color = 0;
glyphname = dcroat;
layers = (
{
components = (
{
name = d;
}
);
layerId = "7C736124-E567-4D27-84C2-A192D2C2BC4A";
paths = (
{
closed = 1;
nodes = (
"199 687 LINE",
"186 626 LINE",
"192 620 LINE",
"470 620 LINE",
"483 680 LINE",
"476 687 LINE"
);
}
);
width = 521;
}
);
leftKerningGroup = o;
leftMetricsKey = d;
rightKerningGroup = l;
unicode = 0111;
},
{
color = 1;
glyphname = e;
layers = (
{
anchors = (
{
name = bottom;
position = "{302, 0}";
},
{
name = ogonek;
position = "{493, 10}";
},
{
name = top;
position = "{319, 459}";
}
);
layerId = "7C736124-E567-4D27-84C2-A192D2C2BC4A";
paths = (
{
closed = 1;
nodes = (
"158 466 OFFCURVE",
"41 375 OFFCURVE",
"41 226 CURVE SMOOTH",
"41 82 OFFCURVE",
"110 -8 OFFCURVE",
"251 -8 CURVE SMOOTH",
"274 -8 OFFCURVE",
"364 6 OFFCURVE",
"447 28 CURVE",
"424 188 LINE",
"415 193 LINE",
"340 140 OFFCURVE",
"258 100 OFFCURVE",
"216 100 CURVE SMOOTH",
"165 100 OFFCURVE",
"153 156 OFFCURVE",
"153 247 CURVE SMOOTH",
"153 350 OFFCURVE",
"194 382 OFFCURVE",
"275 382 CURVE SMOOTH",
"264 382 OFFCURVE",
"301 431 OFFCURVE",
"301 345 CURVE",
"299 349 LINE",
"147 367 LINE",
"147 231 LINE",
"358 167 LINE",
"423 189 LINE",
"425 209 OFFCURVE",
"418 289 OFFCURVE",
"418 293 CURVE SMOOTH",
"418 409 OFFCURVE",
"383 466 OFFCURVE",
"330 466 CURVE SMOOTH"
);
}
);
width = 446;
}
);
leftKerningGroup = o;
leftMetricsKey = o;
rightKerningGroup = e;
unicode = 0065;
},
{
color = 1;
glyphname = f;
layers = (
{
layerId = "7C736124-E567-4D27-84C2-A192D2C2BC4A";
paths = (
{
closed = 1;
nodes = (
"168 704 OFFCURVE",
"98 644 OFFCURVE",
"107 535 CURVE SMOOTH",
"126 235 LINE",
"96 0 LINE",
"197 0 LINE",
"167 226 LINE",
"188 548 LINE SMOOTH",
"197 611 OFFCURVE",
"217 642 OFFCURVE",
"268 642 CURVE SMOOTH",
"291 642 OFFCURVE",
"313 638 OFFCURVE",
"342 600 CURVE",
"348 605 LINE",
"354 695 LINE",
"326 701 OFFCURVE",
"300 704 OFFCURVE",
"275 704 CURVE SMOOTH"
);
},
{
closed = 1;
nodes = (
"40 457 LINE",
"35 383 LINE",
"39 377 LINE",
"304 377 LINE",
"309 451 LINE",
"314 457 LINE"
);
}
);
width = 306;
}
);
leftKerningGroup = f;
rightKerningGroup = f;
unicode = 0066;
},
{
color = 1;
glyphname = g;
layers = (
{
anchors = (
{
name = top;
position = "{246, 433}";
}
);
layerId = "7C736124-E567-4D27-84C2-A192D2C2BC4A";
paths = (
{
closed = 1;
nodes = (
"137 163 LINE",
"143 170 OFFCURVE",
"138 141 OFFCURVE",
"91 102 CURVE",
"90 -62 OFFCURVE",
"310 41 OFFCURVE",
"310 -64 CURVE SMOOTH",
"310 -77 OFFCURVE",
"294 -54 OFFCURVE",
"243 -54 CURVE SMOOTH",
"213 -54 OFFCURVE",
"217 -65 OFFCURVE",
"217 -69 CURVE SMOOTH",
"217 -86 OFFCURVE",
"174 -75 OFFCURVE",
"231 -13 CURVE",
"117 19 LINE",
"117 16 LINE",
"202 50 OFFCURVE",
"163 49 OFFCURVE",
"78 28 CURVE",
"78 -80 OFFCURVE",
"89 -185 OFFCURVE",
"201 -185 CURVE SMOOTH",
"314 -185 OFFCURVE",
"425 -118 OFFCURVE",
"425 -24 CURVE SMOOTH",
"425 76 OFFCURVE",
"267 47 OFFCURVE",
"267 112 CURVE SMOOTH",
"267 150 OFFCURVE",
"267 152 OFFCURVE",
"228 147 CURVE",
"137 182 LINE"
);
},
{
closed = 1;
nodes = (
"307 375 OFFCURVE",
"292 348 OFFCURVE",
"292 327 CURVE SMOOTH",
"292 286 OFFCURVE",
"287 231 OFFCURVE",
"246 231 CURVE SMOOTH",
"214 231 OFFCURVE",
"203 277 OFFCURVE",
"203 299 CURVE SMOOTH",
"203 356 OFFCURVE",
"233 375 OFFCURVE",
"250 375 CURVE SMOOTH"
);
},
{
closed = 1;
nodes = (
"191 456 OFFCURVE",
"95 405 OFFCURVE",
"95 287 CURVE SMOOTH",
"95 217 OFFCURVE",
"124 142 OFFCURVE",
"218 142 CURVE SMOOTH",
"339 142 OFFCURVE",
"400 213 OFFCURVE",
"400 302 CURVE SMOOTH",
"400 387 OFFCURVE",
"385 456 OFFCURVE",
"251 456 CURVE SMOOTH"
);
},
{
closed = 1;
nodes = (
"381 490 OFFCURVE",
"377 511 OFFCURVE",
"309 502 CURVE",
"438 347 LINE",
"446 348 LINE",
"493 370 OFFCURVE",
"540 384 OFFCURVE",
"520 409 CURVE",
"520 499 LINE",
"504 505 LINE"
);
}
);
width = 488;
}
);
leftKerningGroup = g;
rightKerningGroup = g;
unicode = 0067;
},
{
color = 0;
glyphname = h;
layers = (
{
anchors = (
{
name = center;
position = "{261, 230}";
},
{
name = top;
position = "{123, 647}";
}
);
components = (
{
name = l;
}
);
layerId = "7C736124-E567-4D27-84C2-A192D2C2BC4A";
paths = (
{
closed = 1;
nodes = (
"207 414 OFFCURVE",
"203 422 OFFCURVE",
"178 475 CURVE",
"154 475 LINE",
"154 252 LINE",
"232 325 OFFCURVE",
"296 370 OFFCURVE",
"400 370 CURVE SMOOTH",
"411 370 OFFCURVE",
"380 353 OFFCURVE",
"371 390 CURVE SMOOTH",
"357 0 LINE",
"467 0 LINE",
"447 200 LINE",
"449 330 LINE SMOOTH",
"442 416 OFFCURVE",
"373 465 OFFCURVE",
"158 465 CURVE SMOOTH"
);
},
{
closed = 0;
nodes = (
"175 470 LINE"
);
}
);
width = 513;
}
);
leftKerningGroup = h;
leftMetricsKey = l;
rightKerningGroup = n;
rightMetricsKey = n;
unicode = 0068;
},
{
color = 0;
glyphname = hbar;
layers = (
{
components = (
{
name = h;
transform = "{1, 0, 0, 1, -4, 0}";
}
);
layerId = "7C736124-E567-4D27-84C2-A192D2C2BC4A";
paths = (
{
closed = 1;
nodes = (
"8 687 LINE",
"4 626 LINE",
"10 620 LINE",
"288 620 LINE",
"300 680 LINE",
"285 687 LINE"
);
}
);
width = 516;
}
);
leftKerningGroup = h;
rightKerningGroup = n;
unicode = 0127;
},
{
color = 1;
glyphname = idotless;
layers = (
{
anchors = (
{
name = bottom;
position = "{120, 0}";
},
{
name = ogonek;
position = "{216, 10}";
},
{
name = top;
position = "{120, 459}";
}
);
layerId = "7C736124-E567-4D27-84C2-A192D2C2BC4A";
paths = (
{
closed = 1;
nodes = (
"170 0 LINE",
"132 201 LINE",
"171 461 LINE",
"70 453 LINE",
"99 194 LINE",
"69 0 LINE"
);
}
);
width = 240;
}
);
leftKerningGroup = l;
rightKerningGroup = l;
unicode = 0131;
},
{
color = 0;
glyphname = iogonek;
layers = (
{
components = (
{
name = idotless;
},
{
name = dotaccentcomb;
transform = "{1, 0, 0, 1, -1, 0}";
}
);
layerId = "7C736124-E567-4D27-84C2-A192D2C2BC4A";
paths = (
{
closed = 1;
nodes = (
"69 0 LINE",
"19 -35 OFFCURVE",
"71 17 OFFCURVE",
"71 -6 CURVE SMOOTH",
"71 -159 OFFCURVE",
"150 -197 OFFCURVE",
"220 -197 CURVE SMOOTH",
"214 -197 OFFCURVE",
"213 -227 OFFCURVE",
"202 -320 CURVE",
"225 -158 LINE",
"202 -158 LINE",
"197 -91 OFFCURVE",
"223 -68 OFFCURVE",
"239 -68 CURVE SMOOTH",
"236 -68 OFFCURVE",
"199 -73 OFFCURVE",
"199 15 CURVE SMOOTH",
"199 45 OFFCURVE",
"154 -17 OFFCURVE",
"154 -32 CURVE"
);
}
);
width = 240;
}
);
leftKerningGroup = l;
rightKerningGroup = l;
unicode = 012F;
},
{
color = 1;
glyphname = jdotless;
layers = (
{
anchors = (
{
name = top;
position = "{176, 459}";
}
);
layerId = "7C736124-E567-4D27-84C2-A192D2C2BC4A";
paths = (
{
closed = 1;
nodes = (
"168 457 LINE",
"-55 457 LINE",
"-60 392 LINE",
"-54 377 LINE",
"167 377 LINE",
"195 194 LINE",
"177 16 LINE",
"177 -64 OFFCURVE",
"121 -97 OFFCURVE",
"-54 -138 CURVE",
"-54 -156 LINE",
"-6 -194 LINE",
"186 -141 OFFCURVE",
"257 -85 OFFCURVE",
"257 20 CURVE",
"228 201 LINE",
"267 459 LINE",
"264 461 LINE"
);
}
);
width = 405;
}
);
leftKerningGroup = j;
rightKerningGroup = j;
unicode = 0237;
},
{
color = 0;
glyphname = k;
layers = (
{
anchors = (
{
name = bottom;
position = "{245, 0}";
}
);
components = (
{
name = l;
}
);
layerId = "7C736124-E567-4D27-84C2-A192D2C2BC4A";
paths = (
{
closed = 1;
nodes = (
"313 459 LINE",
"287 417 LINE",
"179 248 LINE",
"179 241 LINE",
"228 156 OFFCURVE",
"283 66 OFFCURVE",
"341 -5 CURVE",
"359 -9 LINE",
"385 -5 OFFCURVE",
"411 -2 OFFCURVE",
"444 5 CURVE",
"436 15 LINE",
"388 90 OFFCURVE",
"314 169 OFFCURVE",
"263 249 CURVE",
"432 459 LINE"
);
}
);
width = 444;
}
);
leftKerningGroup = h;
leftMetricsKey = l;
rightKerningGroup = x;
unicode = 006B;
},
{
color = 0;
glyphname = kgreenlandic;
layers = (
{
anchors = (
{
name = bottom;
position = "{229, 0}";
},
{
name = ogonek;
position = "{216, 10}";
},
{
name = top;
position = "{229, 459}";
}
);
layerId = "7C736124-E567-4D27-84C2-A192D2C2BC4A";
paths = (
{
closed = 1;
nodes = (
"345 459 LINE",
"319 417 LINE",
"175 248 LINE",
"175 241 LINE",
"233 156 OFFCURVE",
"297 75 OFFCURVE",
"364 -5 CURVE",
"373 -9 LINE",
"399 -5 OFFCURVE",
"424 -2 OFFCURVE",
"449 5 CURVE",
"449 15 LINE",
"383 90 OFFCURVE",
"318 169 OFFCURVE",
"258 249 CURVE",
"436 459 LINE"
);
},
{
closed = 1;
nodes = (
"161 0 LINE",
"159 201 LINE",
"162 461 LINE",
"79 453 LINE",
"81 194 LINE",
"78 0 LINE"
);
}
);
width = 457;
}
);
leftKerningGroup = h;
rightKerningGroup = x;
rightMetricsKey = k;
unicode = 0138;
},
{
color = 1;
glyphname = l;
layers = (
{
anchors = (
{
name = bottom;
position = "{124, 0}";
},
{
name = top;
position = "{124, 680}";
},
{
name = topright;
position = "{229, 459}";
}
);
layerId = "7C736124-E567-4D27-84C2-A192D2C2BC4A";
paths = (
{
closed = 1;
nodes = (
"83 695 LINE",
"104 211 LINE",
"74 0 LINE",
"175 0 LINE",
"145 218 LINE",
"184 702 LINE"
);
}
);
width = 249;
}
);
leftKerningGroup = h;
rightKerningGroup = l;
unicode = 006C;
},
{
color = 0;
glyphname = lcaron;
layers = (
{
components = (
{
name = l;
},
{
name = caron.alt;
transform = "{1, 0, 0, 1, -33, -3}";
}
);
layerId = "7C736124-E567-4D27-84C2-A192D2C2BC4A";
paths = (
{
closed = 0;
nodes = (
"160 -5 LINE"
);
}
);
width = 11;
}
);
leftKerningGroup = h;
rightKerningGroup = l;
unicode = 013E;
},
{
color = 0;
glyphname = ldot;
layers = (
{
components = (
{
name = l;
},
{
name = periodcentered;
transform = "{1, 0, 0, 1, 156, 35}";
}
);
layerId = "7C736124-E567-4D27-84C2-A192D2C2BC4A";
paths = (
{
closed = 0;
nodes = (
"176 -78 LINE"
);
}
);
width = 331;
}
);
leftKerningGroup = h;
rightKerningGroup = l;
unicode = 0140;
},
{
color = 0;
glyphname = lslash;
layers = (
{
components = (
{
name = l;
transform = "{1, 0, 0, 1, 7, 0}";
}
);
layerId = "7C736124-E567-4D27-84C2-A192D2C2BC4A";
paths = (
{
closed = 1;
nodes = (
"35 411 LINE",
"-8 344 LINE",
"161 414 LINE",
"187 303 LINE",
"176 292 LINE",
"92 264 LINE",
"135 331 LINE",
"103 335 LINE",
"69 446 LINE",
"80 448 LINE"
);
}
);
width = 263;
}
);
leftKerningGroup = lslash;
rightKerningGroup = lslash;
unicode = 0142;
},
{
color = 1;
glyphname = m;
layers = (
{
anchors = (
{
name = bottom;
position = "{399, 0}";
},
{
name = top;
position = "{399, 459}";
}
);
layerId = "7C736124-E567-4D27-84C2-A192D2C2BC4A";
paths = (
{
closed = 1;
nodes = (
"483 405 OFFCURVE",
"467 420 OFFCURVE",
"440 454 CURVE",
"440 454 LINE",
"449 228 LINE",
"527 309 OFFCURVE",
"591 370 OFFCURVE",
"695 370 CURVE SMOOTH",
"714 370 OFFCURVE",
"683 345 OFFCURVE",
"674 390 CURVE SMOOTH",
"660 0 LINE",
"770 0 LINE",
"742 200 LINE",
"752 330 LINE SMOOTH",
"753 416 OFFCURVE",
"676 465 OFFCURVE",
"461 465 CURVE SMOOTH"
);
},
{
closed = 1;
nodes = (
"70 453 LINE",
"90 194 LINE",
"69 0 LINE",
"170 0 LINE",
"149 201 LINE",
"167 461 LINE"
);
},
{
closed = 1;
nodes = (
"202 414 OFFCURVE",
"198 422 OFFCURVE",
"173 475 CURVE",
"149 475 LINE",
"149 252 LINE",
"219 317 OFFCURVE",
"299 370 OFFCURVE",
"403 370 CURVE SMOOTH",
"414 370 OFFCURVE",
"383 345 OFFCURVE",
"374 390 CURVE SMOOTH",
"360 0 LINE",
"470 0 LINE",
"450 200 LINE",
"460 330 LINE SMOOTH",
"461 416 OFFCURVE",
"376 465 OFFCURVE",
"161 465 CURVE SMOOTH"
);
}
);
width = 824;
}
);
leftKerningGroup = n;
leftMetricsKey = idotless;
rightKerningGroup = n;
rightMetricsKey = n;
unicode = 006D;
},
{
color = 1;
glyphname = n;
layers = (
{
anchors = (
{
name = bottom;
position = "{260, 0}";
},
{
name = top;
position = "{273, 459}";
}
);
layerId = "7C736124-E567-4D27-84C2-A192D2C2BC4A";
paths = (
{
closed = 1;
nodes = (
"202 414 OFFCURVE",
"198 422 OFFCURVE",
"173 475 CURVE",
"149 475 LINE",
"149 252 LINE",
"227 325 OFFCURVE",
"291 370 OFFCURVE",
"395 370 CURVE SMOOTH",
"406 370 OFFCURVE",
"375 353 OFFCURVE",
"366 390 CURVE SMOOTH",
"352 0 LINE",
"454 0 LINE",
"434 200 LINE",
"444 330 LINE SMOOTH",
"445 416 OFFCURVE",
"368 465 OFFCURVE",
"153 465 CURVE SMOOTH"
);
},
{
closed = 1;
nodes = (
"70 453 LINE",
"90 194 LINE",
"69 0 LINE",
"170 0 LINE",
"141 201 LINE",
"159 461 LINE"
);
}
);
width = 516;
}
);
leftKerningGroup = n;
leftMetricsKey = idotless;
rightKerningGroup = n;
unicode = 006E;
},
{
color = 1;
glyphname = eng;
layers = (
{
layerId = "7C736124-E567-4D27-84C2-A192D2C2BC4A";
paths = (
{
closed = 1;
nodes = (
"202 414 OFFCURVE",
"198 422 OFFCURVE",
"173 475 CURVE",
"149 475 LINE",
"149 252 LINE",
"227 325 OFFCURVE",
"291 370 OFFCURVE",
"395 370 CURVE SMOOTH",
"406 370 OFFCURVE",
"366 353 OFFCURVE",
"366 390 CURVE SMOOTH",
"375 16 LINE SMOOTH",
"375 -64 OFFCURVE",
"319 -105 OFFCURVE",
"128 -146 CURVE",
"128 -156 LINE",
"168 -194 LINE",
"384 -141 OFFCURVE",
"463 -85 OFFCURVE",
"463 20 CURVE SMOOTH",
"434 192 LINE",
"444 330 LINE SMOOTH",
"445 416 OFFCURVE",
"368 465 OFFCURVE",
"153 465 CURVE SMOOTH"
);
},
{
closed = 1;
nodes = (
"70 453 LINE",
"90 194 LINE",
"69 0 LINE",
"170 0 LINE",
"141 201 LINE",
"159 461 LINE"
);
}
);
width = 609;
}
);
leftKerningGroup = n;
leftMetricsKey = n;
rightKerningGroup = j;
rightMetricsKey = j;
unicode = 014B;
},
{
color = 1;
glyphname = o;
layers = (
{
anchors = (
{
name = top;
position = "{246, 459}";
}
);
layerId = "7C736124-E567-4D27-84C2-A192D2C2BC4A";
paths = (
{
closed = 1;
nodes = (
"117 467 OFFCURVE",
"41 378 OFFCURVE",
"41 231 CURVE SMOOTH",
"41 76 OFFCURVE",
"113 -8 OFFCURVE",
"239 -8 CURVE SMOOTH",
"373 -8 OFFCURVE",
"449 81 OFFCURVE",
"449 236 CURVE SMOOTH",
"449 383 OFFCURVE",
"377 467 OFFCURVE",
"259 467 CURVE SMOOTH"
);
},
{
closed = 1;
nodes = (
"326 407 OFFCURVE",
"361 311 OFFCURVE",
"361 160 CURVE SMOOTH",
"361 82 OFFCURVE",
"326 60 OFFCURVE",
"244 60 CURVE SMOOTH",
"172 60 OFFCURVE",
"137 146 OFFCURVE",
"137 307 CURVE SMOOTH",
"137 358 OFFCURVE",
"172 407 OFFCURVE",
"254 407 CURVE SMOOTH"
);
}
);
width = 491;
}
);
leftKerningGroup = o;
rightKerningGroup = o;
unicode = 006F;
},
{
color = 1;
glyphname = ohorn;
layers = (
{
anchors = (
{
name = top;
position = "{245, 459}";
}
);
layerId = "7C736124-E567-4D27-84C2-A192D2C2BC4A";
paths = (
{
closed = 1;
nodes = (
"450 585 OFFCURVE",
"436 578 OFFCURVE",
"421 566 CURVE",
"418 557 LINE",
"439 537 OFFCURVE",
"459 515 OFFCURVE",
"459 492 CURVE SMOOTH",
"459 459 OFFCURVE",
"435 472 OFFCURVE",
"388 472 CURVE SMOOTH",
"345 472 OFFCURVE",
"318 467 OFFCURVE",
"259 467 CURVE SMOOTH",
"117 467 OFFCURVE",
"41 378 OFFCURVE",
"41 224 CURVE SMOOTH",
"41 76 OFFCURVE",
"112 -8 OFFCURVE",
"249 -8 CURVE SMOOTH",
"373 -8 OFFCURVE",
"449 81 OFFCURVE",
"449 235 CURVE",
"449 278 OFFCURVE",
"459 314 OFFCURVE",
"444 336 CURVE",
"483 368 OFFCURVE",
"518 405 OFFCURVE",
"518 504 CURVE SMOOTH",
"518 551 OFFCURVE",
"487 585 OFFCURVE",
"463 585 CURVE SMOOTH"
);
},
{
closed = 1;
nodes = (
"327 407 OFFCURVE",
"361 347 OFFCURVE",
"361 259 CURVE SMOOTH",
"361 118 OFFCURVE",
"334 60 OFFCURVE",
"236 60 CURVE SMOOTH",
"171 60 OFFCURVE",
"137 110 OFFCURVE",
"137 208 CURVE SMOOTH",
"137 331 OFFCURVE",
"164 407 OFFCURVE",
"262 407 CURVE SMOOTH"
);
}
);
width = 492;
}
);
leftKerningGroup = o;
leftMetricsKey = o;
rightKerningGroup = o;
unicode = 01A1;
},
{
color = 0;
glyphname = ohorngrave;
layers = (
{
components = (
{
name = ohorn;
}
);
layerId = "7C736124-E567-4D27-84C2-A192D2C2BC4A";
paths = (
{
closed = 1;
nodes = (
"134 699 LINE",
"111 654 LINE",
"113 645 LINE",
"173 599 OFFCURVE",
"219 559 OFFCURVE",
"277 519 CURVE",
"295 520 LINE",
"318 554 LINE",
"253 600 OFFCURVE",
"209 645 OFFCURVE",
"152 700 CURVE"
);
}
);
width = 492;
}
);
leftKerningGroup = o;
rightKerningGroup = ohorngrave;
unicode = 1EDD;
},
{
color = 11;
glyphname = oslash;
layers = (
{
anchors = (
{
name = top;
position = "{245, 459}";
}
);
components = (
{
name = o;
}
);
layerId = "7C736124-E567-4D27-84C2-A192D2C2BC4A";
paths = (
{
closed = 1;
nodes = (
"345 553 LINE",
"21 -87 LINE",
"24 -95 LINE",
"111 -125 LINE",
"434 515 LINE",
"421 524 LINE"
);
}
);
width = 491;
}
);
leftKerningGroup = o;
rightKerningGroup = o;
unicode = 00F8;
},
{
color = 1;
glyphname = oe;
layers = (
{
anchors = (
{
name = top;
position = "{471, 459}";
}
);
layerId = "7C736124-E567-4D27-84C2-A192D2C2BC4A";
paths = (
{
closed = 1;
nodes = (
"113 466 OFFCURVE",
"36 378 OFFCURVE",
"36 224 CURVE SMOOTH",
"36 76 OFFCURVE",
"108 -8 OFFCURVE",
"224 -8 CURVE SMOOTH",
"394 -8 OFFCURVE",
"482 81 OFFCURVE",
"482 235 CURVE SMOOTH",
"482 384 OFFCURVE",
"406 466 OFFCURVE",
"234 466 CURVE SMOOTH"
);
},
{
closed = 1;
nodes = (
"358 407 OFFCURVE",
"401 311 OFFCURVE",
"401 160 CURVE SMOOTH",
"401 82 OFFCURVE",
"366 60 OFFCURVE",
"276 60 CURVE SMOOTH",
"212 60 OFFCURVE",
"169 146 OFFCURVE",
"169 307 CURVE SMOOTH",
"169 358 OFFCURVE",
"204 407 OFFCURVE",
"294 407 CURVE SMOOTH"
);
},
{
closed = 1;
nodes = (
"466 466 OFFCURVE",
"354 375 OFFCURVE",
"354 226 CURVE SMOOTH",
"354 82 OFFCURVE",
"418 -8 OFFCURVE",
"579 -8 CURVE SMOOTH",
"610 -8 OFFCURVE",
"692 6 OFFCURVE",
"783 28 CURVE",
"760 188 LINE",
"751 193 LINE",
"676 140 OFFCURVE",
"594 100 OFFCURVE",
"552 100 CURVE SMOOTH",
"457 100 OFFCURVE",
"444 156 OFFCURVE",
"444 247 CURVE SMOOTH",
"444 350 OFFCURVE",
"495 382 OFFCURVE",
"611 382 CURVE SMOOTH",
"592 382 OFFCURVE",
"637 431 OFFCURVE",
"637 345 CURVE",
"627 357 LINE",
"475 375 LINE",
"475 231 LINE",
"686 167 LINE",
"751 189 LINE",
"753 209 OFFCURVE",
"754 289 OFFCURVE",
"754 293 CURVE SMOOTH",
"754 409 OFFCURVE",
"711 466 OFFCURVE",
"666 466 CURVE SMOOTH"
);
}
);
width = 774;
}
);
leftKerningGroup = o;
rightKerningGroup = e;
unicode = 0153;
},
{
color = 1;
glyphname = p;
layers = (
{
anchors = (
{
name = bottom;
position = "{254, 0}";
},
{
name = top;
position = "{254, 459}";
}
);
layerId = "7C736124-E567-4D27-84C2-A192D2C2BC4A";
paths = (
{
closed = 1;
nodes = (
"226 378 OFFCURVE",
"315 433 OFFCURVE",
"181 420 CURVE",
"229 420 LINE",
"173 236 LINE",
"342 354 OFFCURVE",
"358 370 OFFCURVE",
"377 370 CURVE SMOOTH",
"355 370 OFFCURVE",
"361 321 OFFCURVE",
"379 266 CURVE SMOOTH",
"397 175 OFFCURVE",
"381 85 OFFCURVE",
"366 85 CURVE SMOOTH",
"244 85 OFFCURVE",
"233 139 OFFCURVE",
"87 337 CURVE",
"91 -14 LINE",
"141 10 OFFCURVE",
"237 -8 OFFCURVE",
"235 -8 CURVE SMOOTH",
"386 -8 OFFCURVE",
"467 75 OFFCURVE",
"467 251 CURVE SMOOTH",
"467 401 OFFCURVE",
"420 456 OFFCURVE",
"265 456 CURVE SMOOTH"
);
},
{
closed = 1;
nodes = (
"61 453 LINE",
"99 194 LINE",
"69 -185 LINE",
"161 -185 LINE",
"140 201 LINE",
"167 461 LINE"
);
}
);
width = 509;
}
);
leftKerningGroup = p;
leftMetricsKey = idotless;
rightKerningGroup = o;
rightMetricsKey = o;
unicode = 0070;
},
{
color = 1;
glyphname = thorn;
layers = (
{
layerId = "7C736124-E567-4D27-84C2-A192D2C2BC4A";
paths = (
{
closed = 1;
nodes = (
"230 377 OFFCURVE",
"319 424 OFFCURVE",
"194 428 CURVE",
"226 428 LINE",
"186 244 LINE",
"356 371 OFFCURVE",
"372 378 OFFCURVE",
"382 378 CURVE SMOOTH",
"369 378 OFFCURVE",
"366 311 OFFCURVE",
"384 250 CURVE SMOOTH",
"402 127 OFFCURVE",
"356 93 OFFCURVE",
"379 93 CURVE SMOOTH",
"217 93 OFFCURVE",
"181 225 OFFCURVE",
"100 517 CURVE",
"80 280 LINE",
"128 110 OFFCURVE",
"182 -8 OFFCURVE",
"276 -8 CURVE SMOOTH",
"397 -8 OFFCURVE",
"472 90 OFFCURVE",
"472 268 CURVE SMOOTH",
"472 373 OFFCURVE",
"452 464 OFFCURVE",
"278 464 CURVE SMOOTH"
);
},
{
closed = 1;
nodes = (
"74 695 LINE",
"112 194 LINE",
"74 -185 LINE",
"182 -185 LINE",
"153 185 LINE",
"183 702 LINE"
);
}
);
width = 513;
}
);
leftKerningGroup = h;
leftMetricsKey = l;
rightKerningGroup = o;
rightMetricsKey = b;
unicode = 00FE;
},
{
color = 1;
glyphname = q;
layers = (
{
layerId = "7C736124-E567-4D27-84C2-A192D2C2BC4A";
paths = (
{
closed = 1;
nodes = (
"366 492 OFFCURVE",
"293 475 OFFCURVE",
"277 475 CURVE SMOOTH",
"83 475 OFFCURVE",
"23 407 OFFCURVE",
"23 258 CURVE SMOOTH",
"23 106 OFFCURVE",
"85 3 OFFCURVE",
"378 3 CURVE SMOOTH",
"371 124 OFFCURVE",
"283 58 OFFCURVE",
"309 -11 CURVE",
"358 -11 LINE",
"358 34 LINE",
"346 -185 LINE",
"438 -185 LINE",
"408 297 LINE",
"439 460 LINE",
"439 465 LINE",
"437 473 LINE"
);
},
{
closed = 1;
nodes = (
"235 406 OFFCURVE",
"289 365 OFFCURVE",
"348 266 CURVE",
"367 305 LINE",
"358 157 LINE",
"202 72 OFFCURVE",
"192 139 OFFCURVE",
"230 139 CURVE SMOOTH",
"157 139 OFFCURVE",
"137 200 OFFCURVE",
"119 233 CURVE SMOOTH",
"101 375 OFFCURVE",
"187 406 OFFCURVE",
"163 406 CURVE SMOOTH"
);
}
);
width = 507;
}
);
leftKerningGroup = o;
leftMetricsKey = o;
rightMetricsKey = idotless;
unicode = 0071;
},
{
color = 0;
glyphname = r;
layers = (
{
anchors = (
{
name = bottom;
position = "{120, 0}";
},
{
name = top;
position = "{195, 459}";
}
);
layerId = "7C736124-E567-4D27-84C2-A192D2C2BC4A";
paths = (
{
closed = 1;
nodes = (
"70 453 LINE",
"99 194 LINE",
"69 0 LINE",
"170 0 LINE",
"132 201 LINE",
"159 461 LINE"
);
},
{
closed = 1;
nodes = (
"358 460 OFFCURVE",
"245 552 OFFCURVE",
"164 448 CURVE",
"150 448 LINE",
"150 60 LINE",
"156 278 OFFCURVE",
"145 321 OFFCURVE",
"215 321 CURVE SMOOTH",
"207 321 OFFCURVE",
"262 328 OFFCURVE",
"308 316 CURVE",
"318 319 LINE",
"318 458 LINE",
"319 459 OFFCURVE",
"301 460 OFFCURVE",
"284 460 CURVE SMOOTH"
);
}
);
width = 325;
}
);
leftKerningGroup = n;
leftMetricsKey = idotless;
rightKerningGroup = r;
unicode = 0072;
},
{
color = 1;
glyphname = s;
layers = (
{
anchors = (
{
name = bottom;
position = "{175, 0}";
},
{
name = top;
position = "{185, 459}";
}
);
layerId = "7C736124-E567-4D27-84C2-A192D2C2BC4A";
paths = (
{
closed = 1;
nodes = (
"89 474 OFFCURVE",
"46 409 OFFCURVE",
"46 324 CURVE SMOOTH",
"46 157 OFFCURVE",
"181 184 OFFCURVE",
"181 110 CURVE SMOOTH",
"181 109 OFFCURVE",
"176 84 OFFCURVE",
"182 84 CURVE SMOOTH",
"145 84 OFFCURVE",
"89 118 OFFCURVE",
"59 192 CURVE",
"41 186 LINE",
"31 24 LINE",
"74 3 OFFCURVE",
"114 -8 OFFCURVE",
"174 -8 CURVE SMOOTH",
"266 -8 OFFCURVE",
"315 68 OFFCURVE",
"315 157 CURVE SMOOTH",
"315 304 OFFCURVE",
"180 277 OFFCURVE",
"180 343 CURVE SMOOTH",
"180 343 OFFCURVE",
"183 373 OFFCURVE",
"180 373 CURVE SMOOTH",
"268 373 OFFCURVE",
"260 354 OFFCURVE",
"270 307 CURVE",
"290 310 LINE",
"294 452 LINE",
"282 467 OFFCURVE",
"234 474 OFFCURVE",
"198 474 CURVE SMOOTH"
);
}
);
width = 355;
}
);
leftKerningGroup = s;
rightKerningGroup = s;
unicode = 0073;
},
{
color = 0;
glyphname = saltillo;
layers = (
{
components = (
{
name = quotesingle;
transform = "{1, 0, 0, 0.2238, -66, 273}";
}
);
layerId = "7C736124-E567-4D27-84C2-A192D2C2BC4A";
paths = (
{
closed = 0;
nodes = (
"48 11 LINE"
);
}
);
width = 41;
}
);
unicode = A78C;
},
{
color = 1;
glyphname = germandbls;
lastChange = "2016-10-28 13:26:40 +0000";
layers = (
{
layerId = "7C736124-E567-4D27-84C2-A192D2C2BC4A";
paths = (
{
closed = 1;
nodes = (
"185 704 OFFCURVE",
"114 632 OFFCURVE",
"114 503 CURVE SMOOTH",
"125 190 LINE",
"95 0 LINE",
"196 0 LINE",
"166 199 LINE",
"186 512 LINE SMOOTH",
"195 599 OFFCURVE",
"232 642 OFFCURVE",
"305 642 CURVE SMOOTH",
"355 642 OFFCURVE",
"400 615 OFFCURVE",
"400 571 CURVE SMOOTH",
"400 461 OFFCURVE",
"242 480 OFFCURVE",
"242 356 CURVE SMOOTH",
"242 223 OFFCURVE",
"450 209 OFFCURVE",
"450 118 CURVE SMOOTH",
"450 82 OFFCURVE",
"419 84 OFFCURVE",
"408 84 CURVE SMOOTH",
"345 84 OFFCURVE",
"309 118 OFFCURVE",
"264 192 CURVE",
"255 186 LINE",
"236 24 LINE",
"286 3 OFFCURVE",
"342 -8 OFFCURVE",
"393 -8 CURVE SMOOTH",
"500 -8 OFFCURVE",
"576 58 OFFCURVE",
"576 132 CURVE SMOOTH",
"576 268 OFFCURVE",
"376 265 OFFCURVE",
"376 370 CURVE SMOOTH",
"376 440 OFFCURVE",
"471 474 OFFCURVE",
"471 566 CURVE SMOOTH",
"471 651 OFFCURVE",
"415 704 OFFCURVE",
"317 704 CURVE SMOOTH"
);
},
{
closed = 1;
nodes = (
"31 457 LINE",
"26 383 LINE",
"30 377 LINE",
"148 377 LINE",
"153 451 LINE",
"149 457 LINE"
);
}
);
width = 568;
}
);
leftKerningGroup = f;
leftMetricsKey = f;
rightKerningGroup = s;
unicode = 00DF;
},
{
color = 0;
glyphname = tbar;
layers = (
{
components = (
{
name = t;
transform = "{1, 0, 0, 1, 2, 0}";
}
);
layerId = "7C736124-E567-4D27-84C2-A192D2C2BC4A";
paths = (
{
closed = 1;
nodes = (
"22 291 LINE",
"18 204 LINE",
"16 206 LINE",
"327 206 LINE",
"339 285 LINE",
"324 291 LINE"
);
}
);
width = 325;
}
);
leftKerningGroup = t;
rightKerningGroup = t;
unicode = 0167;
},
{
color = 1;
glyphname = u;
layers = (
{
anchors = (
{
name = ogonek;
position = "{438, 10}";
},
{
name = top;
position = "{248, 459}";
}
);
layerId = "7C736124-E567-4D27-84C2-A192D2C2BC4A";
paths = (
{
closed = 1;
nodes = (
"322 453 LINE",
"322 83 LINE",
"291 94 OFFCURVE",
"225 73 OFFCURVE",
"185 73 CURVE SMOOTH",
"143 73 OFFCURVE",
"142 114 OFFCURVE",
"151 77 CURVE SMOOTH",
"205 461 LINE",
"71 453 LINE",
"91 531 LINE",
"81 121 LINE SMOOTH",
"72 35 OFFCURVE",
"173 -14 OFFCURVE",
"411 -14 CURVE SMOOTH",
"346 45 OFFCURVE",
"339 11 OFFCURVE",
"347 -58 CURVE",
"363 -58 LINE",
"361 56 OFFCURVE",
"376 14 OFFCURVE",
"458 -6 CURVE SMOOTH",
"430 -4 OFFCURVE",
"467 20 OFFCURVE",
"484 14 CURVE",
"484 62 LINE",
"476 85 LINE",
"420 105 OFFCURVE",
"435 120 OFFCURVE",
"434 120 CURVE SMOOTH",
"397 120 OFFCURVE",
"397 89 OFFCURVE",
"397 68 CURVE SMOOTH",
"419 461 LINE"
);
}
);
width = 488;
}
);
leftKerningGroup = u;
leftMetricsKey = "|n";
rightKerningGroup = u;
rightMetricsKey = d;
unicode = 0075;
},
{
color = 1;
glyphname = uhorn;
layers = (
{
anchors = (
{
name = top;
position = "{209, 459}";
}
);
layerId = "7C736124-E567-4D27-84C2-A192D2C2BC4A";
paths = (
{
closed = 1;
nodes = (
"421 608 OFFCURVE",
"398 601 OFFCURVE",
"383 589 CURVE",
"389 581 LINE",
"411 559 OFFCURVE",
"421 536 OFFCURVE",
"421 516 CURVE SMOOTH",
"421 485 OFFCURVE",
"398 466 OFFCURVE",
"338 458 CURVE SMOOTH",
"314 453 LINE",
"314 83 LINE",
"291 102 OFFCURVE",
"225 73 OFFCURVE",
"177 73 CURVE SMOOTH",
"143 73 OFFCURVE",
"142 114 OFFCURVE",
"151 77 CURVE SMOOTH",
"205 461 LINE",
"71 453 LINE",
"91 587 LINE",
"81 121 LINE SMOOTH",
"72 43 OFFCURVE",
"165 -14 OFFCURVE",
"411 -14 CURVE SMOOTH",
"362 45 OFFCURVE",
"355 43 OFFCURVE",
"347 -42 CURVE",
"379 -42 LINE",
"361 80 OFFCURVE",
"384 22 OFFCURVE",
"434 -14 CURVE SMOOTH",
"430 4 OFFCURVE",
"451 20 OFFCURVE",
"468 14 CURVE",
"460 62 LINE",
"460 77 LINE",
"396 97 OFFCURVE",
"411 120 OFFCURVE",
"410 120 CURVE SMOOTH",
"381 120 OFFCURVE",
"381 81 OFFCURVE",
"381 60 CURVE SMOOTH",
"402 425 LINE",
"462 451 OFFCURVE",
"480 479 OFFCURVE",
"480 529 CURVE SMOOTH",
"480 574 OFFCURVE",
"458 608 OFFCURVE",
"434 608 CURVE SMOOTH"
);
}
);
width = 488;
}
);
leftKerningGroup = u;
leftMetricsKey = u;
rightKerningGroup = u;
unicode = 01B0;
},
{
color = 0;
glyphname = uogonek;
layers = (
{
components = (
{
name = u;
}
);
layerId = "7C736124-E567-4D27-84C2-A192D2C2BC4A";
paths = (
{
closed = 1;
nodes = (
"390 18 LINE",
"324 -59 OFFCURVE",
"312 -89 OFFCURVE",
"312 -124 CURVE SMOOTH",
"312 -169 OFFCURVE",
"345 -197 OFFCURVE",
"378 -197 CURVE SMOOTH",
"421 -197 OFFCURVE",
"457 -177 OFFCURVE",
"484 -189 CURVE",
"446 -81 LINE",
"450 -81 LINE",
"431 -80 OFFCURVE",
"411 -59 OFFCURVE",
"407 -59 CURVE SMOOTH",
"422 -59 OFFCURVE",
"441 -91 OFFCURVE",
"441 -103 CURVE SMOOTH",
"441 -89 OFFCURVE",
"449 -64 OFFCURVE",
"448 14 CURVE"
);
}
);
width = 464;
}
);
leftKerningGroup = u;
rightKerningGroup = u;
unicode = 0173;
},
{
color = 1;
glyphname = v;
layers = (
{
layerId = "7C736124-E567-4D27-84C2-A192D2C2BC4A";
paths = (
{
closed = 1;
nodes = (
"20 457 LINE",
"153 0 LINE",
"252 0 LINE",
"419 459 LINE",
"343 459 LINE",
"327 395 LINE",
"214 84 LINE",
"208 84 LINE",
"112 399 LINE",
"99 462 LINE"
);
}
);
width = 427;
}
);
leftKerningGroup = v;
rightKerningGroup = v;
unicode = 0076;
},
{
color = 1;
glyphname = w;
layers = (
{
anchors = (
{
name = top;
position = "{343, 459}";
}
);
layerId = "7C736124-E567-4D27-84C2-A192D2C2BC4A";
paths = (
{
closed = 1;
nodes = (
"20 457 LINE",
"147 0 LINE",
"239 0 LINE",
"339 341 LINE",
"346 341 LINE",
"431 0 LINE",
"520 0 LINE",
"662 459 LINE",
"580 459 LINE",
"565 397 LINE",
"479 99 LINE",
"473 99 LINE",
"400 401 LINE",
"389 459 LINE",
"298 459 LINE",
"274 397 LINE",
"196 107 LINE",
"190 107 LINE",
"109 401 LINE",
"106 462 LINE"
);
}
);
width = 678;
}
);
leftKerningGroup = v;
leftMetricsKey = v;
rightKerningGroup = v;
rightMetricsKey = v;
unicode = 0077;
},
{
color = 1;
glyphname = x;
layers = (
{
layerId = "7C736124-E567-4D27-84C2-A192D2C2BC4A";
paths = (
{
closed = 1;
nodes = (
"7 456 LINE",
"176 233 LINE",
"63 0 LINE",
"141 0 LINE",
"153 40 LINE",
"222 193 LINE",
"341 44 LINE",
"355 -4 LINE",
"445 4 LINE",
"261 234 LINE",
"378 459 LINE",
"300 459 LINE",
"277 417 LINE",
"233 274 LINE",
"109 417 LINE",
"98 462 LINE"
);
}
);
width = 438;
}
);
rightKerningGroup = x;
unicode = 0078;
},
{
color = 1;
glyphname = y;
layers = (
{
anchors = (
{
name = top;
position = "{209, 459}";
}
);
layerId = "7C736124-E567-4D27-84C2-A192D2C2BC4A";
paths = (
{
closed = 1;
nodes = (
"8 457 LINE",
"185 0 LINE",
"191 48 OFFCURVE",
"71 -68 OFFCURVE",
"-60 -95 CURVE",
"-71 -105 LINE",
"-53 -141 OFFCURVE",
"-24 -158 OFFCURVE",
"9 -191 CURVE",
"26 -191 LINE",
"100 -151 OFFCURVE",
"279 37 OFFCURVE",
"274 27 CURVE SMOOTH",
"419 459 LINE",
"317 459 LINE",
"310 385 LINE",
"227 118 LINE",
"220 118 LINE",
"130 401 LINE",
"115 462 LINE"
);
}
);
width = 420;
}
);
leftKerningGroup = v;
rightKerningGroup = v;
unicode = 0079;
},
{
color = 0;
glyphname = ydotbelow;
layers = (
{
components = (
{
name = y;
},
{
name = dotbelowcomb;
transform = "{0.9660, 0, 0, 0.9660, 204, 4}";
}
);
layerId = "7C736124-E567-4D27-84C2-A192D2C2BC4A";
paths = (
{
closed = 0;
nodes = (
"249 329 LINE"
);
}
);
width = 437;
}
);
leftKerningGroup = y;
rightKerningGroup = y;
unicode = 1EF5;
},
{
color = 1;
glyphname = z;
layers = (
{
anchors = (
{
name = top;
position = "{206, 459}";
}
);
layerId = "7C736124-E567-4D27-84C2-A192D2C2BC4A";
paths = (
{
closed = 1;
nodes = (
"39 335 LINE",
"45 328 LINE",
"199 376 LINE",
"278 376 LINE",
"40 41 LINE",
"49 -2 LINE",
"97 0 LINE",
"198 0 LINE",
"358 -2 LINE",
"365 124 LINE",
"368 131 LINE",
"219 83 LINE",
"123 83 LINE",
"368 408 LINE",
"350 460 LINE",
"310 459 LINE",
"203 459 LINE",
"46 461 LINE"
);
}
);
width = 413;
}
);
leftKerningGroup = z;
rightKerningGroup = z;
unicode = 007A;
},
{
color = 1;
glyphname = f.f;
layers = (
{
anchors = (
{
name = bottom;
position = "{177, 0}";
},
{
name = top;
position = "{285, 749}";
}
);
layerId = "7C736124-E567-4D27-84C2-A192D2C2BC4A";
paths = (
{
closed = 1;
nodes = (
"192 682 OFFCURVE",
"98 638 OFFCURVE",
"107 561 CURVE SMOOTH",
"126 235 LINE",
"96 0 LINE",
"197 0 LINE",
"167 226 LINE",
"196 566 LINE SMOOTH",
"197 613 OFFCURVE",
"249 612 OFFCURVE",
"316 612 CURVE SMOOTH",
"339 612 OFFCURVE",
"337 608 OFFCURVE",
"390 562 CURVE",
"372 583 LINE",
"370 689 LINE",
"342 679 OFFCURVE",
"332 682 OFFCURVE",
"331 682 CURVE SMOOTH"
);
},
{
closed = 1;
nodes = (
"40 457 LINE",
"35 383 LINE",
"39 377 LINE",
"458 377 LINE",
"463 451 LINE",
"468 457 LINE"
);
}
);
width = 304;
}
);
leftKerningGroup = f;
leftMetricsKey = f;
rightKerningGroup = f.f;
},
{
color = 1;
glyphname = f.l;
layers = (
{
layerId = "7C736124-E567-4D27-84C2-A192D2C2BC4A";
paths = (
{
closed = 1;
nodes = (
"192 711 OFFCURVE",
"89 624 OFFCURVE",
"98 446 CURVE SMOOTH",
"126 226 LINE",
"96 0 LINE",
"197 0 LINE",
"167 199 LINE",
"187 483 LINE SMOOTH",
"188 600 OFFCURVE",
"244 649 OFFCURVE",
"295 649 CURVE SMOOTH",
"384 649 OFFCURVE",
"441 632 OFFCURVE",
"513 588 CURVE",
"511 593 LINE",
"528 724 LINE",
"467 721 OFFCURVE",
"386 711 OFFCURVE",
"324 711 CURVE SMOOTH"
);
},
{
closed = 1;
nodes = (
"40 457 LINE",
"35 383 LINE",
"39 377 LINE",
"304 377 LINE",
"317 451 LINE",
"314 457 LINE"
);
}
);
width = 414;
}
);
leftKerningGroup = f;
rightKerningGroup = f.l;
},
{
color = 1;
glyphname = a.sups;
layers = (
{
anchors = (
{
name = ogonek;
position = "{300, 6}";
},
{
name = top;
position = "{187, 338}";
}
);
layerId = "7C736124-E567-4D27-84C2-A192D2C2BC4A";
paths = (
{
closed = 1;
nodes = (
"151 657 OFFCURVE",
"108 643 OFFCURVE",
"80 627 CURVE",
"97 513 LINE",
"103 519 LINE",
"131 535 OFFCURVE",
"153 539 OFFCURVE",
"162 539 CURVE SMOOTH",
"161 539 OFFCURVE",
"160 540 OFFCURVE",
"160 517 CURVE",
"167 531 LINE",
"123 520 LINE SMOOTH",
"63 512 OFFCURVE",
"49 487 OFFCURVE",
"49 421 CURVE SMOOTH",
"49 358 OFFCURVE",
"84 317 OFFCURVE",
"150 299 CURVE",
"160 313 OFFCURVE",
"162 331 OFFCURVE",
"184 348 CURVE",
"187 348 LINE",
"210 313 OFFCURVE",
"207 300 OFFCURVE",
"245 300 CURVE SMOOTH",
"270 300 OFFCURVE",
"283 313 OFFCURVE",
"296 331 CURVE",
"312 421 LINE",
"306 434 LINE",
"308 421 OFFCURVE",
"309 428 OFFCURVE",
"312 428 CURVE SMOOTH",
"317 428 OFFCURVE",
"312 428 OFFCURVE",
"312 438 CURVE SMOOTH",
"312 454 OFFCURVE",
"318 528 OFFCURVE",
"318 547 CURVE SMOOTH",
"318 618 OFFCURVE",
"273 657 OFFCURVE",
"199 657 CURVE SMOOTH"
);
},
{
closed = 1;
nodes = (
"165 419 LINE",
"163 413 OFFCURVE",
"174 417 OFFCURVE",
"189 417 CURVE SMOOTH",
"196 417 OFFCURVE",
"206 434 OFFCURVE",
"206 444 CURVE SMOOTH",
"206 447 OFFCURVE",
"200 459 OFFCURVE",
"195 455 CURVE SMOOTH",
"158 454 LINE"
);
}
);
width = 330;
}
);
},
{
color = 1;
glyphname = b.sups;
layers = (
{
layerId = "7C736124-E567-4D27-84C2-A192D2C2BC4A";
paths = (
{
closed = 1;
nodes = (
"140 669 OFFCURVE",
"145 625 OFFCURVE",
"131 598 CURVE",
"124 598 LINE",
"110 516 LINE",
"115 516 OFFCURVE",
"97 522 OFFCURVE",
"82 522 CURVE SMOOTH",
"78 522 OFFCURVE",
"77 495 OFFCURVE",
"77 473 CURVE SMOOTH",
"77 414 OFFCURVE",
"78 413 OFFCURVE",
"107 413 CURVE SMOOTH",
"74 413 OFFCURVE",
"27 433 OFFCURVE",
"-2 510 CURVE",
"-4 345 LINE",
"30 315 OFFCURVE",
"77 298 OFFCURVE",
"112 298 CURVE SMOOTH",
"179 298 OFFCURVE",
"228 366 OFFCURVE",
"228 481 CURVE SMOOTH",
"228 591 OFFCURVE",
"193 637 OFFCURVE",
"144 637 CURVE SMOOTH"
);
},
{
closed = 1;
nodes = (
"-41 796 LINE",
"-31 439 LINE",
"-33 316 LINE",
"-26 300 LINE",
"137 337 LINE",
"127 474 LINE",
"140 801 LINE"
);
}
);
width = 258;
}
);
leftMetricsKey = n.sups;
rightMetricsKey = o.sups;
},
{
color = 1;
glyphname = c.sups;
layers = (
{
anchors = (
{
name = bottom;
position = "{175, 0}";
},
{
name = top;
position = "{175, 303}";
}
);
layerId = "7C736124-E567-4D27-84C2-A192D2C2BC4A";
paths = (
{
closed = 1;
nodes = (
"100 657 OFFCURVE",
"30 605 OFFCURVE",
"30 478 CURVE SMOOTH",
"30 366 OFFCURVE",
"78 298 OFFCURVE",
"167 298 CURVE SMOOTH",
"198 298 OFFCURVE",
"211 306 OFFCURVE",
"236 300 CURVE",
"260 438 LINE",
"254 442 LINE",
"222 439 OFFCURVE",
"214 440 OFFCURVE",
"208 440 CURVE SMOOTH",
"193 440 OFFCURVE",
"190 444 OFFCURVE",
"190 493 CURVE SMOOTH",
"190 521 OFFCURVE",
"192 523 OFFCURVE",
"204 523 CURVE SMOOTH",
"210 523 OFFCURVE",
"215 514 OFFCURVE",
"226 502 CURVE",
"241 513 LINE",
"271 644 LINE",
"257 648 OFFCURVE",
"226 657 OFFCURVE",
"204 657 CURVE SMOOTH"
);
}
);
width = 267;
}
);
leftMetricsKey = o.sups;
},
{
color = 1;
glyphname = d.sups;
layers = (
{
anchors = (
{
name = center;
position = "{182, 152}";
}
);
layerId = "7C736124-E567-4D27-84C2-A192D2C2BC4A";
paths = (
{
closed = 1;
nodes = (
"154 796 LINE",
"163 650 LINE",
"154 662 OFFCURVE",
"163 665 OFFCURVE",
"166 665 CURVE SMOOTH",
"97 665 OFFCURVE",
"30 600 OFFCURVE",
"30 468 CURVE SMOOTH",
"30 366 OFFCURVE",
"79 326 OFFCURVE",
"147 326 CURVE SMOOTH",
"151 286 OFFCURVE",
"168 329 OFFCURVE",
"165 346 CURVE",
"168 346 LINE",
"184 312 OFFCURVE",
"208 300 OFFCURVE",
"235 300 CURVE SMOOTH",
"269 300 OFFCURVE",
"293 313 OFFCURVE",
"315 331 CURVE",
"332 421 LINE",
"326 434 LINE",
"319 421 OFFCURVE",
"320 428 OFFCURVE",
"323 428 CURVE SMOOTH",
"328 428 OFFCURVE",
"323 428 OFFCURVE",
"323 438 CURVE SMOOTH",
"334 801 LINE"
);
},
{
closed = 1;
nodes = (
"164 539 OFFCURVE",
"164 536 OFFCURVE",
"155 548 CURVE",
"174 440 LINE",
"171 442 OFFCURVE",
"166 430 OFFCURVE",
"184 430 CURVE SMOOTH",
"183 430 OFFCURVE",
"189 448 OFFCURVE",
"189 493 CURVE SMOOTH",
"189 540 OFFCURVE",
"176 539 OFFCURVE",
"164 539 CURVE SMOOTH"
);
}
);
width = 353;
}
);
leftMetricsKey = o.sups;
},
{
color = 1;
glyphname = e.sups;
layers = (
{
anchors = (
{
name = bottom;
position = "{174, 0}";
},
{
name = ogonek;
position = "{282, 6}";
},
{
name = top;
position = "{159, 303}";
}
);
layerId = "7C736124-E567-4D27-84C2-A192D2C2BC4A";
paths = (
{
closed = 1;
nodes = (
"84 657 OFFCURVE",
"30 597 OFFCURVE",
"30 480 CURVE SMOOTH",
"30 367 OFFCURVE",
"83 298 OFFCURVE",
"175 298 CURVE SMOOTH",
"192 298 OFFCURVE",
"219 307 OFFCURVE",
"248 303 CURVE",
"255 430 LINE",
"249 443 LINE",
"219 427 OFFCURVE",
"194 428 OFFCURVE",
"190 428 CURVE SMOOTH",
"174 428 OFFCURVE",
"189 449 OFFCURVE",
"189 493 CURVE SMOOTH",
"189 544 OFFCURVE",
"164 541 OFFCURVE",
"151 541 CURVE SMOOTH",
"136 541 OFFCURVE",
"127 542 OFFCURVE",
"127 534 CURVE",
"127 531 OFFCURVE",
"127 529 OFFCURVE",
"126 513 CURVE",
"178 513 LINE",
"178 435 LINE",
"264 435 LINE",
"262 452 LINE",
"263 470 OFFCURVE",
"264 501 OFFCURVE",
"264 509 CURVE SMOOTH",
"264 602 OFFCURVE",
"229 657 OFFCURVE",
"161 657 CURVE SMOOTH"
);
}
);
width = 326;
}
);
leftMetricsKey = o.sups;
},
{
color = 1;
glyphname = f.sups;
layers = (
{
layerId = "7C736124-E567-4D27-84C2-A192D2C2BC4A";
paths = (
{
closed = 1;
nodes = (
"117 803 OFFCURVE",
"64 753 OFFCURVE",
"64 643 CURVE SMOOTH",
"75 438 LINE",
"55 313 LINE",
"235 313 LINE",
"224 462 LINE",
"225 680 LINE SMOOTH",
"225 692 OFFCURVE",
"209 684 OFFCURVE",
"179 684 CURVE SMOOTH",
"185 684 OFFCURVE",
"192 681 OFFCURVE",
"221 664 CURVE",
"235 677 LINE",
"239 797 LINE",
"229 801 OFFCURVE",
"220 803 OFFCURVE",
"203 803 CURVE SMOOTH"
);
},
{
closed = 1;
nodes = (
"46 641 LINE",
"43 560 LINE",
"46 547 LINE",
"223 547 LINE",
"226 637 LINE",
"224 641 LINE"
);
}
);
width = 208;
}
);
},
{
color = 1;
glyphname = g.sups;
layers = (
{
anchors = (
{
name = top;
position = "{194, 298}";
}
);
layerId = "7C736124-E567-4D27-84C2-A192D2C2BC4A";
paths = (
{
closed = 1;
nodes = (
"101 444 LINE",
"82 422 OFFCURVE",
"74 417 OFFCURVE",
"57 386 CURVE",
"56 247 OFFCURVE",
"173 324 OFFCURVE",
"173 277 CURVE SMOOTH",
"173 264 OFFCURVE",
"180 260 OFFCURVE",
"193 260 CURVE SMOOTH",
"182 260 OFFCURVE",
"183 271 OFFCURVE",
"183 279 CURVE SMOOTH",
"183 292 OFFCURVE",
"168 282 OFFCURVE",
"144 289 CURVE",
"74 309 LINE",
"74 300 LINE",
"77 300 OFFCURVE",
"28 298 OFFCURVE",
"49 274 CURVE SMOOTH",
"49 220 OFFCURVE",
"93 168 OFFCURVE",
"171 168 CURVE SMOOTH",
"274 168 OFFCURVE",
"327 220 OFFCURVE",
"327 297 CURVE SMOOTH",
"327 455 OFFCURVE",
"192 384 OFFCURVE",
"192 421 CURVE SMOOTH",
"192 429 OFFCURVE",
"187 426 OFFCURVE",
"171 430 CURVE",
"101 451 LINE"
);
},
{
closed = 1;
nodes = (
"177 560 OFFCURVE",
"174 548 OFFCURVE",
"174 543 CURVE SMOOTH",
"174 520 OFFCURVE",
"176 516 OFFCURVE",
"186 516 CURVE SMOOTH",
"197 516 OFFCURVE",
"209 520 OFFCURVE",
"209 542 CURVE SMOOTH",
"209 547 OFFCURVE",
"198 560 OFFCURVE",
"188 560 CURVE SMOOTH"
);
},
{
closed = 1;
nodes = (
"101 656 OFFCURVE",
"45 608 OFFCURVE",
"45 541 CURVE SMOOTH",
"45 460 OFFCURVE",
"99 430 OFFCURVE",
"185 430 CURVE SMOOTH",
"264 430 OFFCURVE",
"321 470 OFFCURVE",
"321 545 CURVE SMOOTH",
"321 605 OFFCURVE",
"263 656 OFFCURVE",
"180 656 CURVE SMOOTH"
);
},
{
closed = 1;
nodes = (
"295 674 OFFCURVE",
"275 646 OFFCURVE",
"243 649 CURVE",
"325 543 LINE",
"332 565 LINE",
"342 559 OFFCURVE",
"333 570 OFFCURVE",
"337 566 CURVE",
"337 680 LINE",
"314 684 LINE"
);
}
);
width = 339;
}
);
},
{
color = 1;
glyphname = h.sups;
layers = (
{
anchors = (
{
name = center;
position = "{94, 152}";
},
{
name = top;
position = "{9, 428}";
}
);
layerId = "7C736124-E567-4D27-84C2-A192D2C2BC4A";
paths = (
{
closed = 1;
nodes = (
"130 669 OFFCURVE",
"134 623 OFFCURVE",
"141 612 CURVE",
"103 612 LINE",
"103 514 LINE",
"103 516 OFFCURVE",
"88 513 OFFCURVE",
"78 513 CURVE SMOOTH",
"60 513 OFFCURVE",
"63 510 OFFCURVE",
"63 480 CURVE SMOOTH",
"50 313 LINE",
"222 313 LINE",
"220 463 LINE",
"222 558 LINE SMOOTH",
"223 632 OFFCURVE",
"197 637 OFFCURVE",
"145 637 CURVE SMOOTH"
);
},
{
closed = 0;
nodes = (
"103 416 LINE"
);
},
{
closed = 1;
nodes = (
"-32 796 LINE",
"-13 440 LINE",
"-33 313 LINE",
"140 313 LINE",
"137 455 LINE",
"140 801 LINE"
);
}
);
width = 149;
}
);
leftMetricsKey = n.sups;
rightMetricsKey = n.sups;
},
{
color = 1;
glyphname = i.sups;
layers = (
{
layerId = "7C736124-E567-4D27-84C2-A192D2C2BC4A";
paths = (
{
closed = 1;
nodes = (
"-55 638 LINE",
"-44 440 LINE",
"-56 313 LINE",
"125 313 LINE",
"105 455 LINE",
"125 653 LINE"
);
},
{
closed = 1;
nodes = (
"-17 846 OFFCURVE",
"-41 804 OFFCURVE",
"-41 763 CURVE SMOOTH",
"-41 705 OFFCURVE",
"-11 674 OFFCURVE",
"21 674 CURVE SMOOTH",
"79 674 OFFCURVE",
"94 698 OFFCURVE",
"94 765 CURVE SMOOTH",
"94 814 OFFCURVE",
"89 846 OFFCURVE",
"41 846 CURVE SMOOTH"
);
}
);
width = 0;
}
);
leftMetricsKey = n.sups;
},
{
color = 1;
glyphname = j.sups;
layers = (
{
layerId = "7C736124-E567-4D27-84C2-A192D2C2BC4A";
paths = (
{
closed = 1;
nodes = (
"-12 846 OFFCURVE",
"-36 804 OFFCURVE",
"-36 763 CURVE SMOOTH",
"-36 705 OFFCURVE",
"-5 674 OFFCURVE",
"35 674 CURVE SMOOTH",
"67 674 OFFCURVE",
"99 698 OFFCURVE",
"99 765 CURVE SMOOTH",
"99 814 OFFCURVE",
"69 846 OFFCURVE",
"29 846 CURVE SMOOTH"
);
},
{
closed = 1;
nodes = (
"-42 641 LINE",
"33 641 LINE",
"29 524 LINE",
"24 510 LINE",
"-51 520 LINE",
"-50 440 LINE",
"-50 334 LINE",
"-50 301 OFFCURVE",
"-37 274 OFFCURVE",
"24 266 CURVE",
"24 251 LINE",
"83 168 LINE",
"76 211 OFFCURVE",
"101 276 OFFCURVE",
"101 337 CURVE",
"98 455 LINE",
"102 660 LINE",
"108 653 LINE"
);
}
);
width = 269;
}
);
rightMetricsKey = i;
},
{
color = 0;
glyphname = k.sups;
layers = (
{
anchors = (
{
name = bottom;
position = "{64, 0}";
}
);
layerId = "7C736124-E567-4D27-84C2-A192D2C2BC4A";
paths = (
{
closed = 1;
nodes = (
"7 660 LINE",
"8 596 LINE",
"92 494 LINE",
"92 481 LINE",
"49 425 OFFCURVE",
"19 362 OFFCURVE",
"-26 310 CURVE",
"-1 315 LINE",
"55 310 OFFCURVE",
"110 312 OFFCURVE",
"165 317 CURVE",
"165 342 LINE",
"194 401 OFFCURVE",
"213 452 OFFCURVE",
"254 504 CURVE",
"166 660 LINE"
);
},
{
closed = 1;
nodes = (
"-32 796 LINE",
"-13 440 LINE",
"-33 313 LINE",
"140 313 LINE",
"128 455 LINE",
"140 801 LINE"
);
}
);
width = 199;
}
);
leftMetricsKey = n.sups;
},
{
color = 1;
glyphname = l.sups;
layers = (
{
anchors = (
{
name = bottom;
position = "{55, 0}";
},
{
name = top;
position = "{55, 447}";
},
{
name = topright;
position = "{128, 303}";
}
);
layerId = "7C736124-E567-4D27-84C2-A192D2C2BC4A";
paths = (
{
closed = 1;
nodes = (
"-32 796 LINE",
"-13 440 LINE",
"-33 313 LINE",
"139 313 LINE",
"128 455 LINE",
"139 801 LINE"
);
}
);
width = 134;
}
);
leftMetricsKey = n.sups;
},
{
color = 1;
glyphname = m.sups;
layers = (
{
layerId = "7C736124-E567-4D27-84C2-A192D2C2BC4A";
paths = (
{
closed = 1;
nodes = (
"292 669 OFFCURVE",
"275 623 OFFCURVE",
"273 602 CURVE",
"243 602 LINE",
"239 516 LINE",
"248 517 OFFCURVE",
"250 523 OFFCURVE",
"250 523 CURVE SMOOTH",
"258 523 OFFCURVE",
"243 519 OFFCURVE",
"243 489 CURVE SMOOTH",
"240 313 LINE",
"411 313 LINE",
"410 463 LINE",
"411 558 LINE SMOOTH",
"411 632 OFFCURVE",
"369 637 OFFCURVE",
"317 637 CURVE SMOOTH"
);
},
{
closed = 1;
nodes = (
"-32 638 LINE",
"-13 440 LINE",
"-33 313 LINE",
"138 313 LINE",
"128 455 LINE",
"136 653 LINE"
);
},
{
closed = 0;
nodes = (
"120 377 LINE"
);
},
{
closed = 1;
nodes = (
"165 669 OFFCURVE",
"151 623 OFFCURVE",
"140 612 CURVE",
"120 612 LINE",
"103 506 LINE",
"121 516 OFFCURVE",
"113 523 OFFCURVE",
"113 523 CURVE SMOOTH",
"122 523 OFFCURVE",
"107 519 OFFCURVE",
"107 489 CURVE SMOOTH",
"112 313 LINE",
"275 313 LINE",
"264 463 LINE",
"283 558 LINE SMOOTH",
"275 632 OFFCURVE",
"242 637 OFFCURVE",
"189 637 CURVE SMOOTH"
);
}
);
width = 338;
}
);
leftMetricsKey = n.sups;
rightMetricsKey = n.sups;
},
{
color = 1;
glyphname = n.sups;
layers = (
{
anchors = (
{
name = bottom;
position = "{105, 0}";
},
{
name = top;
position = "{114, 303}";
}
);
layerId = "7C736124-E567-4D27-84C2-A192D2C2BC4A";
paths = (
{
closed = 1;
nodes = (
"139 669 OFFCURVE",
"142 623 OFFCURVE",
"149 612 CURVE",
"111 612 LINE",
"111 514 LINE",
"103 516 OFFCURVE",
"97 513 OFFCURVE",
"78 513 CURVE SMOOTH",
"78 513 OFFCURVE",
"63 510 OFFCURVE",
"63 480 CURVE SMOOTH",
"50 313 LINE",
"223 313 LINE",
"229 463 LINE",
"230 558 LINE SMOOTH",
"231 632 OFFCURVE",
"206 637 OFFCURVE",
"163 637 CURVE SMOOTH"
);
},
{
closed = 1;
nodes = (
"-32 638 LINE",
"-13 440 LINE",
"-33 313 LINE",
"140 313 LINE",
"137 455 LINE",
"137 653 LINE"
);
}
);
width = 158;
}
);
},
{
color = 1;
glyphname = o.sups;
layers = (
{
anchors = (
{
name = top;
position = "{190, 303}";
}
);
layerId = "7C736124-E567-4D27-84C2-A192D2C2BC4A";
paths = (
{
closed = 1;
nodes = (
"81 657 OFFCURVE",
"30 599 OFFCURVE",
"30 469 CURVE SMOOTH",
"30 353 OFFCURVE",
"78 298 OFFCURVE",
"174 298 CURVE SMOOTH",
"267 298 OFFCURVE",
"318 365 OFFCURVE",
"318 478 CURVE SMOOTH",
"318 602 OFFCURVE",
"287 657 OFFCURVE",
"174 657 CURVE SMOOTH"
);
},
{
closed = 1;
nodes = (
"185 539 OFFCURVE",
"168 530 OFFCURVE",
"168 462 CURVE SMOOTH",
"168 414 OFFCURVE",
"185 415 OFFCURVE",
"187 415 CURVE SMOOTH",
"189 415 OFFCURVE",
"207 424 OFFCURVE",
"207 493 CURVE SMOOTH",
"207 540 OFFCURVE",
"181 539 OFFCURVE",
"179 539 CURVE SMOOTH"
);
}
);
width = 348;
}
);
},
{
color = 1;
glyphname = p.sups;
layers = (
{
layerId = "7C736124-E567-4D27-84C2-A192D2C2BC4A";
paths = (
{
closed = 1;
nodes = (
"130 669 OFFCURVE",
"144 625 OFFCURVE",
"139 599 CURVE",
"123 599 LINE",
"110 516 LINE",
"114 517 OFFCURVE",
"105 513 OFFCURVE",
"89 513 CURVE SMOOTH",
"86 513 OFFCURVE",
"76 504 OFFCURVE",
"76 465 CURVE SMOOTH",
"76 414 OFFCURVE",
"86 413 OFFCURVE",
"107 413 CURVE SMOOTH",
"80 413 OFFCURVE",
"32 443 OFFCURVE",
"-11 493 CURVE",
"-4 356 LINE",
"51 314 OFFCURVE",
"85 298 OFFCURVE",
"119 298 CURVE SMOOTH",
"187 298 OFFCURVE",
"244 366 OFFCURVE",
"244 490 CURVE SMOOTH",
"244 592 OFFCURVE",
"201 637 OFFCURVE",
"152 637 CURVE SMOOTH"
);
},
{
closed = 1;
nodes = (
"-33 638 LINE",
"-31 440 LINE",
"-41 183 LINE",
"138 183 LINE",
"127 455 LINE",
"127 653 LINE"
);
},
{
closed = 1;
nodes = (
"127 343 LINE",
"127 639 LINE"
);
}
);
width = 210;
}
);
leftMetricsKey = n.sups;
rightMetricsKey = n.sups;
},
{
color = 1;
glyphname = q.sups;
layers = (
{
layerId = "7C736124-E567-4D27-84C2-A192D2C2BC4A";
paths = (
{
closed = 1;
nodes = (
"199 650 OFFCURVE",
"172 665 OFFCURVE",
"153 665 CURVE SMOOTH",
"89 665 OFFCURVE",
"30 600 OFFCURVE",
"30 469 CURVE SMOOTH",
"30 383 OFFCURVE",
"61 326 OFFCURVE",
"129 326 CURVE SMOOTH",
"124 294 OFFCURVE",
"130 328 OFFCURVE",
"126 334 CURVE",
"138 334 LINE",
"138 322 LINE",
"135 183 LINE",
"306 183 LINE",
"304 466 LINE",
"306 652 LINE",
"301 665 LINE",
"215 635 LINE"
);
},
{
closed = 1;
nodes = (
"153 539 OFFCURVE",
"136 537 OFFCURVE",
"138 539 CURVE",
"138 431 LINE",
"136 434 OFFCURVE",
"140 430 OFFCURVE",
"157 430 CURVE SMOOTH",
"182 430 OFFCURVE",
"189 448 OFFCURVE",
"189 493 CURVE SMOOTH",
"189 540 OFFCURVE",
"167 539 OFFCURVE",
"154 539 CURVE SMOOTH"
);
}
);
width = 193;
}
);
leftMetricsKey = o.sups;
rightMetricsKey = i.sups;
},
{
color = 0;
glyphname = r.sups;
layers = (
{
anchors = (
{
name = bottom;
position = "{1, 0}";
},
{
name = top;
position = "{43, 303}";
}
);
layerId = "7C736124-E567-4D27-84C2-A192D2C2BC4A";
paths = (
{
closed = 1;
nodes = (
"-32 638 LINE",
"-13 440 LINE",
"-33 313 LINE",
"140 313 LINE",
"128 455 LINE",
"128 653 LINE"
);
},
{
closed = 1;
nodes = (
"111 652 OFFCURVE",
"111 630 OFFCURVE",
"132 587 CURVE",
"112 587 LINE",
"112 465 LINE",
"97 493 OFFCURVE",
"86 487 OFFCURVE",
"90 487 CURVE SMOOTH",
"96 487 OFFCURVE",
"86 486 OFFCURVE",
"93 484 CURVE",
"118 504 LINE",
"118 651 LINE",
"104 652 OFFCURVE",
"107 652 OFFCURVE",
"111 652 CURVE SMOOTH"
);
}
);
width = 129;
}
);
leftMetricsKey = n.sups;
},
{
color = 1;
glyphname = s.sups;
layers = (
{
anchors = (
{
name = bottom;
position = "{133, 0}";
},
{
name = top;
position = "{139, 312}";
}
);
layerId = "7C736124-E567-4D27-84C2-A192D2C2BC4A";
paths = (
{
closed = 1;
nodes = (
"65 656 OFFCURVE",
"31 600 OFFCURVE",
"31 520 CURVE SMOOTH",
"31 411 OFFCURVE",
"60 412 OFFCURVE",
"60 400 CURVE SMOOTH",
"60 414 OFFCURVE",
"85 421 OFFCURVE",
"138 421 CURVE SMOOTH",
"122 421 OFFCURVE",
"89 432 OFFCURVE",
"54 462 CURVE",
"47 457 LINE",
"30 310 LINE",
"78 296 OFFCURVE",
"86 289 OFFCURVE",
"123 289 CURVE SMOOTH",
"209 289 OFFCURVE",
"213 362 OFFCURVE",
"213 427 CURVE SMOOTH",
"213 546 OFFCURVE",
"193 545 OFFCURVE",
"193 546 CURVE SMOOTH",
"193 542 OFFCURVE",
"159 550 OFFCURVE",
"119 550 CURVE SMOOTH",
"135 550 OFFCURVE",
"161 517 OFFCURVE",
"195 494 CURVE",
"204 506 LINE",
"222 642 LINE",
"214 651 OFFCURVE",
"187 656 OFFCURVE",
"144 656 CURVE SMOOTH"
);
}
);
width = 261;
}
);
},
{
color = 1;
glyphname = t.sups;
layers = (
{
anchors = (
{
name = bottom;
position = "{145, 0}";
},
{
name = center;
position = "{130, 152}";
}
);
layerId = "7C736124-E567-4D27-84C2-A192D2C2BC4A";
paths = (
{
closed = 1;
nodes = (
"59 694 LINE",
"59 470 LINE",
"58 408 LINE SMOOTH",
"57 349 OFFCURVE",
"97 318 OFFCURVE",
"152 318 CURVE SMOOTH",
"162 302 OFFCURVE",
"193 328 OFFCURVE",
"195 338 CURVE",
"218 429 LINE",
"204 444 LINE",
"216 445 OFFCURVE",
"201 441 OFFCURVE",
"206 441 CURVE SMOOTH",
"213 441 OFFCURVE",
"217 450 OFFCURVE",
"217 476 CURVE SMOOTH",
"230 730 LINE",
"217 734 LINE"
);
},
{
closed = 1;
nodes = (
"36 641 LINE",
"41 560 LINE",
"36 547 LINE",
"207 547 LINE",
"211 637 LINE",
"217 641 LINE"
);
}
);
width = 222;
}
);
},
{
color = 1;
glyphname = u.sups;
layers = (
{
anchors = (
{
name = ogonek;
position = "{202, 6}";
},
{
name = top;
position = "{67, 303}";
}
);
layerId = "7C736124-E567-4D27-84C2-A192D2C2BC4A";
paths = (
{
closed = 1;
nodes = (
"52 638 LINE",
"52 436 LINE",
"63 437 OFFCURVE",
"83 443 OFFCURVE",
"84 443 CURVE SMOOTH",
"96 443 OFFCURVE",
"87 444 OFFCURVE",
"87 466 CURVE SMOOTH",
"87 653 LINE",
"-81 638 LINE",
"-71 470 LINE",
"-72 398 LINE SMOOTH",
"-72 342 OFFCURVE",
"-48 319 OFFCURVE",
"10 319 CURVE SMOOTH",
"26 287 OFFCURVE",
"40 332 OFFCURVE",
"50 370 CURVE",
"54 370 LINE",
"70 332 OFFCURVE",
"103 300 OFFCURVE",
"141 300 CURVE SMOOTH",
"157 300 OFFCURVE",
"181 314 OFFCURVE",
"202 331 CURVE",
"218 421 LINE",
"212 434 LINE",
"205 421 OFFCURVE",
"207 428 OFFCURVE",
"209 428 CURVE SMOOTH",
"206 428 OFFCURVE",
"209 437 OFFCURVE",
"209 431 CURVE SMOOTH",
"212 653 LINE"
);
}
);
width = 246;
}
);
},
{
color = 1;
glyphname = v.sups;
layers = (
{
layerId = "7C736124-E567-4D27-84C2-A192D2C2BC4A";
paths = (
{
closed = 1;
nodes = (
"28 641 LINE",
"59 313 LINE",
"246 313 LINE",
"276 660 LINE",
"137 660 LINE",
"118 561 LINE",
"171 475 LINE",
"158 475 LINE",
"196 582 LINE",
"188 654 LINE"
);
}
);
width = 291;
}
);
},
{
color = 1;
glyphname = w.sups;
layers = (
{
anchors = (
{
name = top;
position = "{251, 303}";
}
);
layerId = "7C736124-E567-4D27-84C2-A192D2C2BC4A";
paths = (
{
closed = 1;
nodes = (
"37 641 LINE",
"77 313 LINE",
"249 313 LINE",
"228 442 LINE",
"251 442 LINE",
"230 313 LINE",
"391 313 LINE",
"438 660 LINE",
"301 660 LINE",
"290 580 LINE",
"312 490 LINE",
"316 490 LINE",
"337 584 LINE",
"330 660 LINE",
"158 660 LINE",
"148 580 LINE",
"186 480 LINE",
"182 480 LINE",
"203 584 LINE",
"195 654 LINE"
);
}
);
width = 462;
}
);
},
{
color = 1;
glyphname = x.sups;
layers = (
{
layerId = "7C736124-E567-4D27-84C2-A192D2C2BC4A";
paths = (
{
closed = 1;
nodes = (
"13 640 LINE",
"27 484 LINE",
"18 313 LINE",
"167 313 LINE",
"164 358 LINE",
"126 376 LINE",
"76 371 LINE",
"83 318 LINE",
"260 316 LINE",
"241 476 LINE",
"257 642 LINE",
"118 642 LINE",
"102 596 LINE",
"153 576 LINE",
"196 604 LINE",
"199 662 LINE"
);
}
);
width = 272;
}
);
},
{
color = 1;
glyphname = y.sups;
layers = (
{
anchors = (
{
name = top;
position = "{147, 303}";
}
);
layerId = "7C736124-E567-4D27-84C2-A192D2C2BC4A";
paths = (
{
closed = 1;
nodes = (
"-1 641 LINE",
"77 313 LINE",
"45 306 OFFCURVE",
"12 298 OFFCURVE",
"16 296 CURVE",
"14 271 LINE",
"22 239 OFFCURVE",
"57 216 OFFCURVE",
"87 178 CURVE",
"93 178 LINE",
"188 229 OFFCURVE",
"223 267 OFFCURVE",
"246 354 CURVE SMOOTH",
"274 660 LINE",
"128 660 LINE",
"117 561 LINE",
"154 480 LINE",
"149 480 LINE",
"170 584 LINE",
"160 654 LINE"
);
}
);
width = 283;
}
);
},
{
color = 1;
glyphname = z.sups;
layers = (
{
anchors = (
{
name = top;
position = "{160, 303}";
}
);
layerId = "7C736124-E567-4D27-84C2-A192D2C2BC4A";
paths = (
{
closed = 1;
nodes = (
"34 559 LINE",
"38 536 LINE",
"101 539 LINE",
"80 539 LINE",
"39 413 LINE",
"39 311 LINE",
"101 313 LINE",
"157 313 LINE",
"257 312 LINE",
"262 415 LINE",
"258 420 LINE",
"201 417 LINE",
"217 417 LINE",
"266 541 LINE",
"257 661 LINE",
"210 660 LINE",
"120 660 LINE",
"39 653 LINE"
);
}
);
width = 292;
}
);
},
{
color = 1;
glyphname = f.t;
layers = (
{
anchors = (
{
name = bottom;
position = "{153, 0}";
},
{
name = top;
position = "{261, 749}";
}
);
layerId = "7C736124-E567-4D27-84C2-A192D2C2BC4A";
paths = (
{
closed = 1;
nodes = (
"174 682 OFFCURVE",
"98 638 OFFCURVE",
"107 561 CURVE SMOOTH",
"126 235 LINE",
"96 0 LINE",
"197 0 LINE",
"167 226 LINE",
"196 566 LINE SMOOTH",
"197 613 OFFCURVE",
"231 612 OFFCURVE",
"262 612 CURVE SMOOTH",
"293 612 OFFCURVE",
"299 600 OFFCURVE",
"376 554 CURVE",
"366 575 LINE",
"356 681 LINE",
"329 679 OFFCURVE",
"302 682 OFFCURVE",
"277 682 CURVE SMOOTH"
);
},
{
closed = 1;
nodes = (
"40 457 LINE",
"35 383 LINE",
"39 377 LINE",
"440 377 LINE",
"445 451 LINE",
"450 457 LINE"
);
}
);
width = 313;
}
);
leftKerningGroup = f;
},
{
color = 1;
glyphname = f_j;
layers = (
{
layerId = "7C736124-E567-4D27-84C2-A192D2C2BC4A";
paths = (
{
closed = 1;
nodes = (
"167 696 OFFCURVE",
"107 629 OFFCURVE",
"107 500 CURVE SMOOTH",
"116 457 LINE",
"40 457 LINE",
"35 383 LINE",
"39 377 LINE",
"108 377 LINE",
"126 235 LINE",
"96 0 LINE",
"197 0 LINE",
"167 226 LINE",
"186 377 LINE",
"396 377 LINE",
"424 194 LINE",
"406 16 LINE",
"406 -64 OFFCURVE",
"350 -105 OFFCURVE",
"159 -146 CURVE",
"159 -156 LINE",
"207 -194 LINE",
"415 -141 OFFCURVE",
"486 -85 OFFCURVE",
"486 20 CURVE",
"465 201 LINE",
"496 477 LINE",
"481 472 LINE",
"415 457 LINE",
"187 457 LINE",
"196 516 LINE SMOOTH",
"188 592 OFFCURVE",
"228 626 OFFCURVE",
"282 626 CURVE SMOOTH",
"338 626 OFFCURVE",
"373 599 OFFCURVE",
"416 562 CURVE",
"426 574 LINE",
"429 676 LINE",
"390 681 OFFCURVE",
"352 696 OFFCURVE",
"299 696 CURVE SMOOTH"
);
}
);
width = 634;
}
);
leftKerningGroup = f;
leftMetricsKey = f;
rightKerningGroup = dotlessj;
rightMetricsKey = j;
},
{
color = 1;
glyphname = fi;
lastChange = "2016-10-28 13:26:40 +0000";
layers = (
{
layerId = "7C736124-E567-4D27-84C2-A192D2C2BC4A";
paths = (
{
closed = 1;
nodes = (
"159 696 OFFCURVE",
"107 629 OFFCURVE",
"107 500 CURVE SMOOTH",
"112 457 LINE",
"40 457 LINE",
"35 383 LINE",
"39 377 LINE",
"109 377 LINE",
"126 267 LINE",
"96 0 LINE",
"197 0 LINE",
"167 274 LINE",
"186 377 LINE",
"396 377 LINE",
"424 258 LINE",
"394 0 LINE",
"495 0 LINE",
"465 265 LINE",
"496 477 LINE",
"481 464 LINE",
"402 457 LINE",
"186 457 LINE",
"196 516 LINE SMOOTH",
"188 592 OFFCURVE",
"228 626 OFFCURVE",
"282 626 CURVE SMOOTH",
"338 626 OFFCURVE",
"373 599 OFFCURVE",
"416 562 CURVE",
"426 574 LINE",
"429 676 LINE",
"390 681 OFFCURVE",
"352 696 OFFCURVE",
"299 696 CURVE SMOOTH"
);
}
);
width = 558;
}
);
leftKerningGroup = f;
leftMetricsKey = f;
rightKerningGroup = i;
rightMetricsKey = i;
unicode = FB01;
},
{
color = 1;
glyphname = a.sc;
layers = (
{
anchors = (
{
name = ogonek;
position = "{493, 8}";
},
{
name = top;
position = "{262, 499}";
}
);
layerId = "7C736124-E567-4D27-84C2-A192D2C2BC4A";
paths = (
{
closed = 1;
nodes = (
"223 499 LINE",
"24 0 LINE SMOOTH",
"95 0 LINE",
"109 60 LINE",
"256 430 LINE",
"262 430 LINE",
"396 56 LINE",
"408 0 LINE",
"473 0 LINE",
"299 499 LINE"
);
},
{
closed = 1;
nodes = (
"253 189 LINE",
"-43 190 LINE",
"-45 101 LINE",
"247 102 LINE",
"539 101 LINE",
"545 190 LINE"
);
}
);
width = 514;
}
);
leftKerningGroup = A;
rightKerningGroup = A;
},
{
color = 0;
glyphname = aogonek.sc;
layers = (
{
components = (
{
name = a.sc;
}
);
layerId = "7C736124-E567-4D27-84C2-A192D2C2BC4A";
paths = (
{
closed = 1;
nodes = (
"423 9 LINE",
"389 -38 OFFCURVE",
"360 -85 OFFCURVE",
"360 -114 CURVE SMOOTH",
"360 -168 OFFCURVE",
"401 -196 OFFCURVE",
"435 -196 CURVE SMOOTH",
"469 -196 OFFCURVE",
"479 -177 OFFCURVE",
"490 -143 CURVE",
"479 -17 LINE",
"474 -17 LINE",
"472 -43 OFFCURVE",
"477 -58 OFFCURVE",
"446 -58 CURVE SMOOTH",
"478 -58 OFFCURVE",
"497 -99 OFFCURVE",
"497 -57 CURVE SMOOTH",
"497 -72 OFFCURVE",
"479 -21 OFFCURVE",
"532 9 CURVE"
);
}
);
width = 514;
}
);
leftKerningGroup = A;
rightKerningGroup = A;
},
{
color = 1;
glyphname = ae.sc;
layers = (
{
anchors = (
{
name = top;
position = "{412, 507}";
}
);
layerId = "7C736124-E567-4D27-84C2-A192D2C2BC4A";
paths = (
{
closed = 1;
nodes = (
"260 499 LINE",
"9 0 LINE",
"104 0 LINE",
"125 67 LINE",
"298 398 LINE",
"304 398 LINE",
"353 63 LINE",
"357 0 LINE",
"670 0 LINE",
"676 144 LINE",
"671 142 LINE",
"534 113 LINE",
"451 113 LINE",
"402 404 LINE",
"480 404 LINE",
"596 374 LINE",
"612 500 LINE",
"615 499 LINE"
);
},
{
closed = 1;
nodes = (
"415 278 LINE",
"138 204 LINE",
"117 68 LINE",
"420 150 LINE",
"606 179 LINE",
"593 339 LINE",
"587 344 LINE"
);
}
);
width = 701;
}
);
leftKerningGroup = A;
rightKerningGroup = E;
},
{
color = 1;
glyphname = b.sc;
layers = (
{
layerId = "7C736124-E567-4D27-84C2-A192D2C2BC4A";
paths = (
{
closed = 1;
nodes = (
"88 499 LINE",
"130 388 LINE",
"166 389 OFFCURVE",
"229 389 OFFCURVE",
"257 389 CURVE SMOOTH",
"319 389 OFFCURVE",
"317 417 OFFCURVE",
"317 368 CURVE SMOOTH",
"317 319 OFFCURVE",
"292 343 OFFCURVE",
"253 333 CURVE",
"118 337 LINE",
"118 206 LINE",
"263 208 LINE",
"325 199 OFFCURVE",
"357 191 OFFCURVE",
"357 144 CURVE SMOOTH",
"357 86 OFFCURVE",
"310 106 OFFCURVE",
"227 106 CURVE SMOOTH",
"201 106 OFFCURVE",
"162 109 OFFCURVE",
"134 113 CURVE",
"88 0 LINE",
"129 -2 OFFCURVE",
"184 -3 OFFCURVE",
"216 -3 CURVE SMOOTH",
"361 -3 OFFCURVE",
"431 44 OFFCURVE",
"431 141 CURVE SMOOTH",
"431 207 OFFCURVE",
"400 245 OFFCURVE",
"329 259 CURVE",
"379 280 OFFCURVE",
"409 320 OFFCURVE",
"409 378 CURVE SMOOTH",
"409 457 OFFCURVE",
"349 500 OFFCURVE",
"249 500 CURVE"
);
},
{
closed = 1;
nodes = (
"88 499 LINE",
"91 150 LINE",
"88 0 LINE",
"167 0 LINE",
"164 157 LINE",
"168 499 LINE"
);
}
);
width = 485;
}
);
leftKerningGroup = H;
rightKerningGroup = B;
},
{
color = 1;
glyphname = c.sc;
layers = (
{
anchors = (
{
name = bottom;
position = "{266, 0}";
},
{
name = top;
position = "{265, 499}";
}
);
layerId = "7C736124-E567-4D27-84C2-A192D2C2BC4A";
paths = (
{
closed = 1;
nodes = (
"140 504 OFFCURVE",
"44 420 OFFCURVE",
"44 238 CURVE SMOOTH",
"44 84 OFFCURVE",
"151 -6 OFFCURVE",
"242 -6 CURVE SMOOTH",
"360 -6 OFFCURVE",
"364 6 OFFCURVE",
"416 29 CURVE",
"423 183 LINE",
"422 187 LINE",
"376 111 OFFCURVE",
"326 61 OFFCURVE",
"229 61 CURVE SMOOTH",
"181 61 OFFCURVE",
"128 136 OFFCURVE",
"128 245 CURVE SMOOTH",
"128 386 OFFCURVE",
"181 438 OFFCURVE",
"204 438 CURVE SMOOTH",
"335 438 OFFCURVE",
"380 389 OFFCURVE",
"405 313 CURVE",
"422 316 LINE",
"437 470 LINE",
"397 492 OFFCURVE",
"356 504 OFFCURVE",
"269 504 CURVE SMOOTH"
);
}
);
width = 460;
}
);
leftKerningGroup = O;
rightKerningGroup = C;
},
{
color = 1;
glyphname = d.sc;
layers = (
{
anchors = (
{
name = center;
position = "{269, 250}";
},
{
name = top;
position = "{267, 499}";
}
);
layerId = "7C736124-E567-4D27-84C2-A192D2C2BC4A";
paths = (
{
closed = 1;
nodes = (
"88 499 LINE",
"157 406 LINE",
"182 409 OFFCURVE",
"261 411 OFFCURVE",
"280 411 CURVE SMOOTH",
"386 411 OFFCURVE",
"440 378 OFFCURVE",
"440 250 CURVE SMOOTH",
"440 120 OFFCURVE",
"380 92 OFFCURVE",
"278 92 CURVE SMOOTH",
"257 92 OFFCURVE",
"181 96 OFFCURVE",
"146 99 CURVE",
"88 0 LINE",
"137 -3 OFFCURVE",
"230 -5 OFFCURVE",
"265 -5 CURVE",
"430 -5 OFFCURVE",
"514 92 OFFCURVE",
"514 267 CURVE SMOOTH",
"514 418 OFFCURVE",
"430 503 OFFCURVE",
"278 503 CURVE"
);
},
{
closed = 1;
nodes = (
"88 499 LINE",
"91 150 LINE",
"88 0 LINE",
"168 0 LINE",
"165 157 LINE",
"169 499 LINE"
);
}
);
width = 566;
}
);
leftKerningGroup = H;
rightKerningGroup = O;
},
{
color = 0;
glyphname = eth.sc;
layers = (
{
components = (
{
name = d.sc;
transform = "{1, 0, 0, 1, 17, 0}";
}
);
layerId = "7C736124-E567-4D27-84C2-A192D2C2BC4A";
paths = (
{
closed = 1;
nodes = (
"20 283 LINE",
"17 209 LINE",
"30 202 LINE",
"318 202 LINE",
"313 276 LINE",
"317 283 LINE"
);
}
);
width = 583;
}
);
leftKerningGroup = H;
rightKerningGroup = O;
rightMetricsKey = d.sc;
},
{
color = 1;
glyphname = e.sc;
layers = (
{
anchors = (
{
name = bottom;
position = "{246, 0}";
},
{
name = ogonek;
position = "{412, 8}";
},
{
name = top;
position = "{243, 499}";
}
);
layerId = "7C736124-E567-4D27-84C2-A192D2C2BC4A";
paths = (
{
closed = 1;
nodes = (
"88 499 LINE",
"91 150 LINE",
"88 0 LINE",
"168 0 LINE",
"165 157 LINE",
"169 499 LINE"
);
},
{
closed = 1;
nodes = (
"263 72 LINE",
"142 81 LINE",
"140 6 LINE",
"142 0 LINE",
"396 0 LINE",
"403 86 LINE",
"397 92 LINE"
);
},
{
closed = 1;
nodes = (
"273 287 LINE",
"154 296 LINE",
"144 220 LINE",
"154 214 LINE",
"258 223 LINE",
"351 204 LINE",
"357 299 LINE",
"352 306 LINE"
);
},
{
closed = 1;
nodes = (
"142 499 LINE",
"140 423 LINE",
"142 418 LINE",
"271 427 LINE",
"397 406 LINE",
"403 492 LINE",
"398 499 LINE"
);
}
);
width = 437;
}
);
leftKerningGroup = H;
rightKerningGroup = E;
},
{
color = 1;
glyphname = f.sc;
layers = (
{
layerId = "7C736124-E567-4D27-84C2-A192D2C2BC4A";
paths = (
{
closed = 1;
nodes = (
"83 499 LINE",
"86 150 LINE",
"83 0 LINE",
"163 0 LINE",
"160 157 LINE",
"164 499 LINE"
);
},
{
closed = 1;
nodes = (
"246 282 LINE",
"140 291 LINE",
"140 201 LINE",
"239 210 LINE",
"334 200 LINE",
"340 286 LINE",
"334 293 LINE"
);
},
{
closed = 1;
nodes = (
"137 499 LINE",
"135 423 LINE",
"137 418 LINE",
"252 427 LINE",
"375 406 LINE",
"390 492 LINE",
"385 499 LINE"
);
}
);
width = 389;
}
);
leftKerningGroup = H;
rightKerningGroup = F;
},
{
color = 1;
glyphname = g.sc;
layers = (
{
anchors = (
{
name = bottom;
position = "{267, 0}";
},
{
name = top;
position = "{279, 499}";
}
);
layerId = "7C736124-E567-4D27-84C2-A192D2C2BC4A";
paths = (
{
closed = 1;
nodes = (
"158 504 OFFCURVE",
"44 412 OFFCURVE",
"44 215 CURVE SMOOTH",
"44 84 OFFCURVE",
"107 -6 OFFCURVE",
"333 -6 CURVE SMOOTH",
"312 -6 OFFCURVE",
"398 3 OFFCURVE",
"468 24 CURVE",
"468 141 LINE",
"469 206 LINE",
"395 201 LINE",
"396 129 LINE",
"396 178 LINE",
"344 113 OFFCURVE",
"311 101 OFFCURVE",
"312 101 CURVE SMOOTH",
"178 101 OFFCURVE",
"136 105 OFFCURVE",
"136 218 CURVE SMOOTH",
"136 371 OFFCURVE",
"184 421 OFFCURVE",
"245 421 CURVE SMOOTH",
"309 421 OFFCURVE",
"298 434 OFFCURVE",
"356 337 CURVE",
"373 337 LINE",
"472 471 LINE",
"328 502 OFFCURVE",
"328 504 OFFCURVE",
"258 504 CURVE SMOOTH"
);
}
);
width = 525;
}
);
leftKerningGroup = O;
rightKerningGroup = G;
},
{
color = 1;
glyphname = h.sc;
layers = (
{
anchors = (
{
name = center;
position = "{280, 250}";
},
{
name = top;
position = "{300, 499}";
}
);
layerId = "7C736124-E567-4D27-84C2-A192D2C2BC4A";
paths = (
{
closed = 1;
nodes = (
"429 499 LINE",
"432 150 LINE",
"429 0 LINE",
"509 0 LINE",
"506 157 LINE",
"510 499 LINE"
);
},
{
closed = 1;
nodes = (
"88 499 LINE",
"91 150 LINE",
"88 0 LINE",
"168 0 LINE",
"165 157 LINE",
"169 499 LINE"
);
},
{
closed = 1;
nodes = (
"156 199 LINE",
"293 200 LINE",
"449 200 LINE",
"449 302 LINE",
"299 301 LINE",
"156 302 LINE"
);
}
);
width = 597;
}
);
leftKerningGroup = H;
rightKerningGroup = H;
},
{
color = 0;
glyphname = hbar.sc;
layers = (
{
components = (
{
name = h.sc;
transform = "{1, 0, 0, 1, 9, 0}";
}
);
layerId = "7C736124-E567-4D27-84C2-A192D2C2BC4A";
paths = (
{
closed = 1;
nodes = (
"47 455 LINE",
"26 370 LINE",
"22 356 LINE",
"550 356 LINE",
"571 459 LINE",
"566 455 LINE"
);
}
);
width = 622;
}
);
leftKerningGroup = H;
rightKerningGroup = H;
},
{
color = 1;
glyphname = i.sc;
layers = (
{
anchors = (
{
name = ogonek;
position = "{196, 8}";
},
{
name = top;
position = "{132, 499}";
}
);
layerId = "7C736124-E567-4D27-84C2-A192D2C2BC4A";
paths = (
{
closed = 1;
nodes = (
"88 499 LINE",
"91 150 LINE",
"88 0 LINE",
"168 0 LINE",
"165 157 LINE",
"169 499 LINE"
);
}
);
width = 261;
}
);
leftKerningGroup = H;
rightKerningGroup = H;
},
{
color = 0;
glyphname = iogonek.sc;
layers = (
{
components = (
{
name = i.sc;
}
);
layerId = "7C736124-E567-4D27-84C2-A192D2C2BC4A";
paths = (
{
closed = 1;
nodes = (
"88 0 LINE",
"38 -35 OFFCURVE",
"98 17 OFFCURVE",
"98 -6 CURVE SMOOTH",
"98 -159 OFFCURVE",
"169 -197 OFFCURVE",
"239 -197 CURVE SMOOTH",
"233 -197 OFFCURVE",
"232 -227 OFFCURVE",
"221 -320 CURVE",
"244 -158 LINE",
"221 -158 LINE",
"216 -91 OFFCURVE",
"242 -68 OFFCURVE",
"258 -68 CURVE SMOOTH",
"255 -68 OFFCURVE",
"218 -73 OFFCURVE",
"218 15 CURVE SMOOTH",
"218 45 OFFCURVE",
"173 -17 OFFCURVE",
"173 -32 CURVE"
);
}
);
width = 261;
}
);
leftKerningGroup = H;
rightKerningGroup = H;
},
{
color = 1;
glyphname = j.sc;
layers = (
{
layerId = "7C736124-E567-4D27-84C2-A192D2C2BC4A";
paths = (
{
closed = 1;
nodes = (
"129 499 LINE",
"132 156 LINE",
"132 92 LINE SMOOTH",
"132 44 OFFCURVE",
"92 27 OFFCURVE",
"14 1 CURVE",
"14 1 LINE",
"86 -48 LINE",
"174 -10 OFFCURVE",
"198 28 OFFCURVE",
"198 93 CURVE SMOOTH",
"206 165 LINE",
"201 499 LINE"
);
},
{
closed = 1;
nodes = (
"28 499 LINE",
"14 443 LINE",
"28 437 LINE",
"142 438 LINE",
"133 499 LINE"
);
}
);
width = 292;
}
);
leftKerningGroup = J;
rightKerningGroup = H;
},
{
color = 0;
glyphname = k.sc;
lastChange = "2016-10-28 13:26:40 +0000";
layers = (
{
anchors = (
{
name = bottom;
position = "{239, 0}";
},
{
name = top;
position = "{229, 499}";
}
);
layerId = "7C736124-E567-4D27-84C2-A192D2C2BC4A";
paths = (
{
closed = 1;
nodes = (
"366 499 LINE",
"325 454 LINE",
"156 266 LINE",
"156 260 LINE",
"236 159 OFFCURVE",
"302 70 OFFCURVE",
"378 -20 CURVE",
"407 -25 LINE",
"433 -22 OFFCURVE",
"474 -17 OFFCURVE",
"494 -6 CURVE",
"501 30 LINE",
"419 104 OFFCURVE",
"346 184 OFFCURVE",
"281 264 CURVE",
"509 508 LINE"
);
},
{
closed = 1;
nodes = (
"88 499 LINE",
"91 150 LINE",
"88 0 LINE",
"168 0 LINE",
"165 157 LINE",
"169 499 LINE"
);
}
);
width = 493;
}
);
leftKerningGroup = H;
rightKerningGroup = K;
},
{
color = 1;
glyphname = l.sc;
layers = (
{
anchors = (
{
name = bottom;
position = "{192, 0}";
},
{
name = top;
position = "{169, 499}";
}
);
layerId = "7C736124-E567-4D27-84C2-A192D2C2BC4A";
paths = (
{
closed = 1;
nodes = (
"86 499 LINE",
"89 150 LINE",
"86 0 LINE",
"166 0 LINE",
"163 157 LINE",
"167 499 LINE"
);
},
{
closed = 1;
nodes = (
"135 67 LINE",
"132 6 LINE",
"135 0 LINE",
"354 0 LINE",
"360 60 LINE",
"355 67 LINE"
);
}
);
width = 378;
}
);
leftKerningGroup = H;
rightKerningGroup = L;
},
{
color = 0;
glyphname = lcaron.sc;
layers = (
{
components = (
{
name = l.sc;
},
{
name = caron.alt;
transform = "{1, 0, 0, 1, -42, -214}";
}
);
layerId = "7C736124-E567-4D27-84C2-A192D2C2BC4A";
paths = (
{
closed = 0;
nodes = (
"-198 24 LINE"
);
}
);
width = 236;
}
);
leftKerningGroup = H;
leftMetricsKey = l.sc;
rightKerningGroup = L;
},
{
color = 0;
glyphname = ldot.sc;
layers = (
{
components = (
{
name = l.sc;
},
{
name = periodcentered;
transform = "{1, 0, 0, 1, 176, 45}";
}
);
layerId = "7C736124-E567-4D27-84C2-A192D2C2BC4A";
paths = (
{
closed = 0;
nodes = (
"203 -89 LINE"
);
}
);
width = 244;
}
);
leftKerningGroup = H;
},
{
color = 0;
glyphname = lslash.sc;
layers = (
{
components = (
{
name = l.sc;
transform = "{1, 0, 0, 1, 16, 0}";
}
);
layerId = "7C736124-E567-4D27-84C2-A192D2C2BC4A";
paths = (
{
closed = 1;
nodes = (
"20 206 LINE",
"33 143 LINE",
"42 138 LINE",
"301 260 LINE",
"287 332 LINE",
"288 327 LINE"
);
}
);
width = 389;
}
);
leftKerningGroup = H;
rightKerningGroup = L;
},
{
color = 1;
glyphname = m.sc;
layers = (
{
layerId = "7C736124-E567-4D27-84C2-A192D2C2BC4A";
paths = (
{
closed = 1;
nodes = (
"497 499 LINE",
"471 427 LINE",
"352 145 LINE",
"346 145 LINE",
"217 424 LINE",
"200 499 LINE",
"115 499 LINE",
"60 0 LINE",
"112 0 LINE",
"134 159 LINE",
"159 400 LINE",
"174 400 LINE",
"313 55 LINE",
"360 55 LINE",
"524 400 LINE",
"522 400 LINE",
"556 152 LINE",
"575 0 LINE",
"630 0 LINE",
"571 499 LINE"
);
}
);
width = 683;
}
);
leftKerningGroup = M;
rightKerningGroup = M;
},
{
color = 1;
glyphname = n.sc;
layers = (
{
anchors = (
{
name = bottom;
position = "{296, 0}";
},
{
name = top;
position = "{297, 499}";
}
);
layerId = "7C736124-E567-4D27-84C2-A192D2C2BC4A";
paths = (
{
closed = 1;
nodes = (
"435 496 LINE",
"437 126 LINE",
"430 126 LINE",
"166 499 LINE",
"89 499 LINE",
"91 147 LINE",
"88 0 LINE",
"153 0 LINE",
"159 167 LINE",
"160 373 LINE",
"157 373 LINE",
"413 0 LINE",
"507 0 LINE",
"505 150 LINE",
"501 501 LINE"
);
}
);
width = 597;
}
);
leftKerningGroup = H;
rightKerningGroup = H;
},
{
color = 1;
glyphname = eng.sc;
layers = (
{
layerId = "7C736124-E567-4D27-84C2-A192D2C2BC4A";
paths = (
{
closed = 1;
nodes = (
"435 496 LINE",
"437 134 LINE",
"430 134 LINE",
"166 499 LINE",
"89 499 LINE",
"92 147 LINE",
"88 0 LINE",
"153 0 LINE",
"159 167 LINE",
"159 373 LINE",
"157 373 LINE",
"428 -1 LINE",
"422 -34 OFFCURVE",
"402 -58 OFFCURVE",
"366 -83 CURVE",
"366 -92 LINE",
"393 -126 LINE",
"478 -82 OFFCURVE",
"498 -39 OFFCURVE",
"498 38 CURVE SMOOTH",
"505 150 LINE",
"501 501 LINE"
);
}
);
width = 597;
}
);
leftKerningGroup = H;
rightKerningGroup = H;
},
{
color = 1;
glyphname = o.sc;
layers = (
{
anchors = (
{
name = top;
position = "{280, 499}";
}
);
layerId = "7C736124-E567-4D27-84C2-A192D2C2BC4A";
paths = (
{
closed = 1;
nodes = (
"139 505 OFFCURVE",
"44 411 OFFCURVE",
"44 245 CURVE SMOOTH",
"44 84 OFFCURVE",
"126 -7 OFFCURVE",
"271 -7 CURVE SMOOTH",
"426 -7 OFFCURVE",
"522 89 OFFCURVE",
"522 260 CURVE SMOOTH",
"522 416 OFFCURVE",
"432 505 OFFCURVE",
"295 505 CURVE"
);
},
{
closed = 1;
nodes = (
"382 430 OFFCURVE",
"431 389 OFFCURVE",
"431 253 CURVE SMOOTH",
"431 123 OFFCURVE",
"380 100 OFFCURVE",
"277 100 CURVE SMOOTH",
"176 100 OFFCURVE",
"127 124 OFFCURVE",
"127 263 CURVE SMOOTH",
"127 391 OFFCURVE",
"177 430 OFFCURVE",
"279 430 CURVE SMOOTH"
);
}
);
width = 557;
}
);
leftKerningGroup = O;
rightKerningGroup = O;
},
{
color = 1;
glyphname = ohorn.sc;
layers = (
{
anchors = (
{
name = top;
position = "{275, 499}";
}
);
layerId = "7C736124-E567-4D27-84C2-A192D2C2BC4A";
paths = (
{
closed = 1;
nodes = (
"455 576 LINE",
"472 560 OFFCURVE",
"490 542 OFFCURVE",
"490 515 CURVE SMOOTH",
"490 495 OFFCURVE",
"483 498 OFFCURVE",
"470 498 CURVE SMOOTH",
"424 498 OFFCURVE",
"393 505 OFFCURVE",
"317 505 CURVE SMOOTH",
"124 505 OFFCURVE",
"44 411 OFFCURVE",
"44 253 CURVE SMOOTH",
"44 85 OFFCURVE",
"134 -7 OFFCURVE",
"273 -7 CURVE SMOOTH",
"426 -7 OFFCURVE",
"522 92 OFFCURVE",
"522 248 CURVE SMOOTH",
"522 302 OFFCURVE",
"510 327 OFFCURVE",
"511 361 CURVE",
"556 410 OFFCURVE",
"553 468 OFFCURVE",
"553 493 CURVE SMOOTH",
"553 560 OFFCURVE",
"501 598 OFFCURVE",
"478 598 CURVE SMOOTH",
"483 598 OFFCURVE",
"469 591 OFFCURVE",
"457 583 CURVE"
);
},
{
closed = 1;
nodes = (
"176 55 OFFCURVE",
"127 115 OFFCURVE",
"127 241 CURVE SMOOTH",
"127 373 OFFCURVE",
"167 439 OFFCURVE",
"278 439 CURVE SMOOTH",
"373 439 OFFCURVE",
"431 382 OFFCURVE",
"431 256 CURVE SMOOTH",
"431 114 OFFCURVE",
"381 55 OFFCURVE",
"279 55 CURVE SMOOTH"
);
}
);
width = 562;
}
);
leftKerningGroup = O;
rightKerningGroup = O;
},
{
color = 0;
glyphname = oogonek.sc;
layers = (
{
components = (
{
name = o.sc;
}
);
layerId = "7C736124-E567-4D27-84C2-A192D2C2BC4A";
paths = (
{
closed = 1;
nodes = (
"534 217 LINE",
"393 -49 LINE SMOOTH",
"377 -73 OFFCURVE",
"395 -79 OFFCURVE",
"395 -84 CURVE SMOOTH",
"395 -156 OFFCURVE",
"426 -197 OFFCURVE",
"466 -197 CURVE SMOOTH",
"510 -197 OFFCURVE",
"542 -178 OFFCURVE",
"566 -144 CURVE",
"554 -72 LINE",
"549 -72 LINE",
"518 -89 OFFCURVE",
"500 -77 OFFCURVE",
"485 -77 CURVE SMOOTH",
"476 -77 OFFCURVE",
"497 -96 OFFCURVE",
"497 -108 CURVE SMOOTH",
"497 -102 OFFCURVE",
"511 -59 OFFCURVE",
"506 -58 CURVE SMOOTH",
"592 177 LINE"
);
}
);
width = 557;
}
);
leftKerningGroup = O;
rightKerningGroup = O;
},
{
color = 11;
glyphname = oslash.sc;
layers = (
{
anchors = (
{
name = top;
position = "{261, 500}";
}
);
components = (
{
name = o.sc;
}
);
layerId = "7C736124-E567-4D27-84C2-A192D2C2BC4A";
paths = (
{
closed = 1;
nodes = (
"385 570 LINE",
"61 -70 LINE",
"64 -79 LINE",
"143 -117 LINE",
"466 523 LINE",
"461 524 LINE"
);
}
);
width = 557;
}
);
leftKerningGroup = O;
rightKerningGroup = O;
},
{
color = 1;
glyphname = oe.sc;
layers = (
{
anchors = (
{
name = top;
position = "{468, 499}";
}
);
layerId = "7C736124-E567-4D27-84C2-A192D2C2BC4A";
paths = (
{
closed = 1;
nodes = (
"149 508 OFFCURVE",
"44 411 OFFCURVE",
"44 245 CURVE SMOOTH",
"44 84 OFFCURVE",
"133.998 -9 OFFCURVE",
"294 -9 CURVE SMOOTH",
"347 -9 OFFCURVE",
"410 -8 OFFCURVE",
"451 0 CURVE SMOOTH",
"690 0 LINE",
"705 86 LINE",
"700 92 LINE",
"570 72 LINE",
"469 72 LINE",
"477 154 LINE",
"477 214 LINE",
"557 223 LINE",
"662 204 LINE",
"660 299 LINE",
"663 306 LINE",
"562 287 LINE",
"479 296 LINE",
"471 427 LINE",
"579 427 LINE",
"708 406 LINE",
"706 492 LINE",
"701 499 LINE",
"451 499 LINE SMOOTH",
"413 499 OFFCURVE",
"361 508 OFFCURVE",
"308 508 CURVE SMOOTH"
);
},
{
closed = 1;
nodes = (
"336 398 OFFCURVE",
"369 391 OFFCURVE",
"381 387 CURVE SMOOTH",
"389 384 OFFCURVE",
"391 376 OFFCURVE",
"391 356 CURVE SMOOTH",
"394 145 LINE SMOOTH",
"394 128 OFFCURVE",
"391 121 OFFCURVE",
"376 116 CURVE SMOOTH",
"364 111 OFFCURVE",
"332 106 OFFCURVE",
"301 106 CURVE SMOOTH",
"182 106 OFFCURVE",
"127 119 OFFCURVE",
"127 251 CURVE SMOOTH",
"127 380 OFFCURVE",
"184 398 OFFCURVE",
"301 398 CURVE SMOOTH"
);
}
);
width = 737;
}
);
leftKerningGroup = O;
rightKerningGroup = E;
},
{
color = 1;
glyphname = p.sc;
layers = (
{
layerId = "7C736124-E567-4D27-84C2-A192D2C2BC4A";
paths = (
{
closed = 1;
nodes = (
"88 499 LINE",
"132 411 LINE",
"241 397 LINE",
"310 394 OFFCURVE",
"345 406 OFFCURVE",
"345 344 CURVE SMOOTH",
"345 280 OFFCURVE",
"312 267 OFFCURVE",
"241 256 CURVE",
"118 259 LINE",
"118 170 LINE",
"225 170 LINE",
"351 170 OFFCURVE",
"429 238 OFFCURVE",
"429 351 CURVE SMOOTH",
"429 447 OFFCURVE",
"369 500 OFFCURVE",
"263 500 CURVE"
);
},
{
closed = 1;
nodes = (
"88 499 LINE",
"91 150 LINE",
"88 0 LINE",
"168 0 LINE",
"165 157 LINE",
"169 499 LINE"
);
}
);
width = 469;
}
);
leftKerningGroup = H;
rightKerningGroup = P;
},
{
color = 1;
glyphname = thorn.sc;
layers = (
{
layerId = "7C736124-E567-4D27-84C2-A192D2C2BC4A";
paths = (
{
closed = 1;
nodes = (
"97 433 LINE",
"133 345 LINE",
"243 331 LINE",
"312 328 OFFCURVE",
"347 324 OFFCURVE",
"347 260 CURVE SMOOTH",
"347 196 OFFCURVE",
"313 186 OFFCURVE",
"251 174 CURVE",
"118 178 LINE",
"118 87 LINE",
"227 88 LINE",
"359 88 OFFCURVE",
"432 153 OFFCURVE",
"432 267 CURVE SMOOTH",
"432 365 OFFCURVE",
"381 434 OFFCURVE",
"274 434 CURVE"
);
},
{
closed = 1;
nodes = (
"88 499 LINE",
"91 150 LINE",
"88 0 LINE",
"169 0 LINE",
"166 157 LINE",
"170 499 LINE"
);
}
);
width = 474;
}
);
leftKerningGroup = H;
rightKerningGroup = Thorn;
},
{
color = 0;
glyphname = q.sc;
layers = (
{
layerId = "7C736124-E567-4D27-84C2-A192D2C2BC4A";
paths = (
{
closed = 1;
nodes = (
"139 505 OFFCURVE",
"44 411 OFFCURVE",
"44 245 CURVE SMOOTH",
"44 84 OFFCURVE",
"126 -7 OFFCURVE",
"271 -7 CURVE SMOOTH",
"426 -7 OFFCURVE",
"522 89 OFFCURVE",
"522 260 CURVE SMOOTH",
"522 416 OFFCURVE",
"432 505 OFFCURVE",
"295 505 CURVE"
);
},
{
closed = 1;
nodes = (
"258 13 LINE",
"376 -59 OFFCURVE",
"442 -121 OFFCURVE",
"593 -176 CURVE",
"600 -158 LINE",
"623 -153 OFFCURVE",
"633 -138 OFFCURVE",
"636 -117 CURVE",
"625 -108 LINE",
"514 -72 OFFCURVE",
"461 -30 OFFCURVE",
"336 29 CURVE"
);
},
{
closed = 1;
nodes = (
"382 430 OFFCURVE",
"431 389 OFFCURVE",
"431 253 CURVE SMOOTH",
"431 123 OFFCURVE",
"380 100 OFFCURVE",
"277 100 CURVE SMOOTH",
"176 100 OFFCURVE",
"127 124 OFFCURVE",
"127 263 CURVE SMOOTH",
"127 391 OFFCURVE",
"177 430 OFFCURVE",
"279 430 CURVE SMOOTH"
);
}
);
width = 561;
}
);
leftKerningGroup = O;
rightKerningGroup = O;
},
{
color = 1;
glyphname = r.sc;
layers = (
{
anchors = (
{
name = bottom;
position = "{233, 0}";
},
{
name = top;
position = "{233, 499}";
}
);
layerId = "7C736124-E567-4D27-84C2-A192D2C2BC4A";
paths = (
{
closed = 1;
nodes = (
"88 499 LINE",
"123 402 LINE",
"250 388 LINE",
"319 385 OFFCURVE",
"345 407 OFFCURVE",
"345 348 CURVE SMOOTH",
"345 292 OFFCURVE",
"307 290 OFFCURVE",
"242 274 CURVE",
"109 279 LINE",
"118 171 LINE",
"255 180 LINE",
"358 202 OFFCURVE",
"429 269 OFFCURVE",
"429 355 CURVE SMOOTH",
"429 448 OFFCURVE",
"369 500 OFFCURVE",
"263 500 CURVE"
);
},
{
closed = 1;
nodes = (
"88 499 LINE",
"91 150 LINE",
"88 0 LINE",
"168 0 LINE",
"165 157 LINE",
"169 499 LINE"
);
},
{
closed = 1;
nodes = (
"236 220 LINE",
"276 145 OFFCURVE",
"331 72 OFFCURVE",
"370 1 CURVE",
"383 -7 LINE",
"417 -5 OFFCURVE",
"433 1 OFFCURVE",
"466 9 CURVE",
"467 19 LINE",
"413 85 OFFCURVE",
"364 152 OFFCURVE",
"311 221 CURVE"
);
}
);
width = 499;
}
);
leftKerningGroup = H;
rightKerningGroup = R;
},
{
color = 1;
glyphname = s.sc;
layers = (
{
anchors = (
{
name = bottom;
position = "{197, 0}";
},
{
name = top;
position = "{215, 499}";
}
);
layerId = "7C736124-E567-4D27-84C2-A192D2C2BC4A";
paths = (
{
closed = 1;
nodes = (
"129 504 OFFCURVE",
"61 440 OFFCURVE",
"61 360 CURVE SMOOTH",
"61 210 OFFCURVE",
"305 227 OFFCURVE",
"305 129 CURVE SMOOTH",
"305 90 OFFCURVE",
"252 80 OFFCURVE",
"229 80 CURVE SMOOTH",
"163 80 OFFCURVE",
"91 116 OFFCURVE",
"76 237 CURVE",
"58 232 LINE",
"48 27 LINE",
"104 4 OFFCURVE",
"159 -6 OFFCURVE",
"203 -6 CURVE SMOOTH",
"313 -6 OFFCURVE",
"384 66 OFFCURVE",
"384 151 CURVE SMOOTH",
"384 284 OFFCURVE",
"140 268 OFFCURVE",
"140 379 CURVE SMOOTH",
"140 405 OFFCURVE",
"171 442 OFFCURVE",
"246 442 CURVE SMOOTH",
"371 442 OFFCURVE",
"315 396 OFFCURVE",
"336 293 CURVE",
"349 296 LINE",
"370 480 LINE",
"321 496 OFFCURVE",
"277 504 OFFCURVE",
"239 504 CURVE SMOOTH"
);
}
);
width = 427;
}
);
leftKerningGroup = S;
rightKerningGroup = S;
},
{
color = 1;
glyphname = germandbls.sc;
layers = (
{
layerId = "7C736124-E567-4D27-84C2-A192D2C2BC4A";
paths = (
{
closed = 1;
nodes = (
"152 504 OFFCURVE",
"74 433 OFFCURVE",
"74 326 CURVE SMOOTH",
"75 147 LINE",
"72 0 LINE",
"151.998 0 LINE",
"149 157 LINE",
"151 326 LINE SMOOTH",
"151 398 OFFCURVE",
"198 439 OFFCURVE",
"279 439 CURVE SMOOTH",
"298 439 OFFCURVE",
"322 414 OFFCURVE",
"343 362 CURVE",
"258 262 LINE",
"261 248 LINE",
"378 217 OFFCURVE",
"438 188 OFFCURVE",
"438 135 CURVE SMOOTH",
"438 92 OFFCURVE",
"403 59 OFFCURVE",
"350 59 CURVE SMOOTH",
"307 59 OFFCURVE",
"243 110 OFFCURVE",
"197 192 CURVE",
"189 188 LINE",
"213 28 LINE",
"254 6 OFFCURVE",
"308 -6 OFFCURVE",
"355 -6 CURVE SMOOTH",
"448 -6 OFFCURVE",
"524 43 OFFCURVE",
"524 134 CURVE SMOOTH",
"524 243 OFFCURVE",
"487 308 OFFCURVE",
"415 363 CURVE",
"487 442 LINE",
"483 455 LINE",
"409 488 OFFCURVE",
"352 504 OFFCURVE",
"286 504 CURVE SMOOTH"
);
}
);
width = 561;
}
);
leftKerningGroup = Germandbls;
rightKerningGroup = Germandbls;
},
{
color = 1;
glyphname = t.sc;
layers = (
{
anchors = (
{
name = bottom;
position = "{216, 0}";
},
{
name = center;
position = "{205, 250}";
},
{
name = top;
position = "{213, 499}";
}
);
layerId = "7C736124-E567-4D27-84C2-A192D2C2BC4A";
paths = (
{
closed = 1;
nodes = (
"181 487 LINE",
"183 150 LINE",
"180 0 LINE",
"260 0 LINE",
"257 157 LINE",
"260 487 LINE"
);
},
{
closed = 1;
nodes = (
"37 499 LINE",
"31 368 LINE",
"37 361 LINE",
"133 400 LINE",
"308 400 LINE",
"402 361 LINE",
"399 492 LINE",
"403 499 LINE"
);
}
);
width = 438;
}
);
leftKerningGroup = T;
rightKerningGroup = T;
},
{
color = 0;
glyphname = tbar.sc;
layers = (
{
components = (
{
name = t.sc;
}
);
layerId = "7C736124-E567-4D27-84C2-A192D2C2BC4A";
paths = (
{
closed = 1;
nodes = (
"90 231 LINE",
"86 144 LINE",
"92 146 LINE",
"395 146 LINE",
"399 225 LINE",
"384 231 LINE"
);
}
);
width = 438;
}
);
leftKerningGroup = T;
rightKerningGroup = T;
},
{
color = 0;
glyphname = tcedilla.sc;
layers = (
{
components = (
{
name = t.sc;
transform = "{1, 0, 0, 1, -2, 0}";
}
);
layerId = "7C736124-E567-4D27-84C2-A192D2C2BC4A";
paths = (
{
closed = 1;
nodes = (
"191 12 LINE",
"170 -78 LINE",
"225 -115 LINE SMOOTH",
"229 -114 OFFCURVE",
"245 -129 OFFCURVE",
"245 -142 CURVE SMOOTH",
"245 -158 OFFCURVE",
"224 -177 OFFCURVE",
"222 -177 CURVE SMOOTH",
"183 -177 OFFCURVE",
"167 -156 OFFCURVE",
"151 -138 CURVE",
"146 -139 LINE",
"138 -186 LINE",
"154 -210 OFFCURVE",
"177 -225 OFFCURVE",
"218 -225 CURVE SMOOTH",
"255 -225 OFFCURVE",
"305 -190 OFFCURVE",
"305 -143 CURVE SMOOTH",
"305 -120 OFFCURVE",
"286 -104 OFFCURVE",
"259 -79 CURVE SMOOTH",
"218 -60 LINE",
"243 12 LINE"
);
}
);
width = 438;
}
);
leftKerningGroup = T;
rightKerningGroup = T;
},
{
color = 1;
glyphname = u.sc;
layers = (
{
anchors = (
{
name = ogonek;
position = "{451, 8}";
},
{
name = top;
position = "{277, 499}";
}
);
layerId = "7C736124-E567-4D27-84C2-A192D2C2BC4A";
paths = (
{
closed = 1;
nodes = (
"397 499 LINE",
"400 210 LINE SMOOTH",
"401 128 OFFCURVE",
"349 86 OFFCURVE",
"274 86 CURVE SMOOTH",
"190 86 OFFCURVE",
"139 128 OFFCURVE",
"140 210 CURVE SMOOTH",
"153 499 LINE",
"64 499 LINE",
"74 249 LINE",
"73 173 LINE SMOOTH",
"70 58 OFFCURVE",
"133 -6 OFFCURVE",
"271 -6 CURVE SMOOTH",
"402 -6 OFFCURVE",
"477 59 OFFCURVE",
"475 173 CURVE",
"467 245 LINE",
"478 499 LINE"
);
}
);
width = 550;
}
);
leftKerningGroup = U;
rightKerningGroup = U;
},
{
color = 0;
glyphname = uhorn.sc;
layers = (
{
anchors = (
{
name = top;
position = "{267, 499}";
}
);
components = (
{
name = u.sc;
transform = "{1, 0, 0, 1, -2, 0}";
}
);
layerId = "7C736124-E567-4D27-84C2-A192D2C2BC4A";
paths = (
{
closed = 1;
nodes = (
"481 607 OFFCURVE",
"476 601 OFFCURVE",
"455 592 CURVE",
"461 585 LINE",
"480 569 OFFCURVE",
"479 554 OFFCURVE",
"479 538 CURVE SMOOTH",
"479 513 OFFCURVE",
"469 499 OFFCURVE",
"435 499 CURVE",
"437 457 LINE",
"508 463 OFFCURVE",
"542 498 OFFCURVE",
"542 545 CURVE SMOOTH",
"542 580 OFFCURVE",
"524 607 OFFCURVE",
"494 607 CURVE SMOOTH"
);
}
);
width = 559;
}
);
leftKerningGroup = U;
rightKerningGroup = Uhorn;
},
{
color = 0;
glyphname = uogonek.sc;
layers = (
{
components = (
{
name = u.sc;
}
);
layerId = "7C736124-E567-4D27-84C2-A192D2C2BC4A";
paths = (
{
closed = 1;
nodes = (
"334 193 LINE",
"225 -33 LINE SMOOTH",
"217 -57 OFFCURVE",
"227 -63 OFFCURVE",
"227 -68 CURVE SMOOTH",
"227 -140 OFFCURVE",
"258 -181 OFFCURVE",
"306 -181 CURVE SMOOTH",
"342 -181 OFFCURVE",
"374 -162 OFFCURVE",
"406 -128 CURVE",
"386 -56 LINE",
"381 -56 LINE",
"358 -73 OFFCURVE",
"332 -61 OFFCURVE",
"325 -61 CURVE SMOOTH",
"308 -61 OFFCURVE",
"329 -80 OFFCURVE",
"329 -92 CURVE SMOOTH",
"329 -86 OFFCURVE",
"343 -43 OFFCURVE",
"338 -42 CURVE SMOOTH",
"392 137 LINE"
);
}
);
width = 550;
}
);
leftKerningGroup = U;
rightKerningGroup = U;
},
{
color = 1;
glyphname = v.sc;
layers = (
{
layerId = "7C736124-E567-4D27-84C2-A192D2C2BC4A";
paths = (
{
closed = 1;
nodes = (
"403 499 LINE",
"398 438 LINE",
"251 78 LINE",
"254 78 LINE",
"121 442 LINE",
"108 499 LINE",
"26 499 LINE",
"199 0 LINE",
"302 0 LINE",
"483 499 LINE SMOOTH"
);
}
);
width = 502;
}
);
leftKerningGroup = V;
rightKerningGroup = V;
},
{
color = 1;
glyphname = w.sc;
layers = (
{
anchors = (
{
name = top;
position = "{364, 499}";
}
);
layerId = "7C736124-E567-4D27-84C2-A192D2C2BC4A";
paths = (
{
closed = 1;
nodes = (
"673 499 LINE",
"660 440 LINE",
"530 88 LINE",
"523 88 LINE",
"405 437 LINE",
"394 499 LINE",
"311 499 LINE",
"351 375 LINE",
"245 88 LINE",
"239 88 LINE",
"122 444 LINE",
"113 499 LINE",
"32 499 LINE",
"193 0 LINE",
"279 0 LINE",
"379 266 LINE",
"385 266 LINE",
"480 0 LINE",
"566 0 LINE",
"750 499 LINE"
);
}
);
width = 769;
}
);
leftKerningGroup = W;
rightKerningGroup = W;
},
{
color = 1;
glyphname = x.sc;
layers = (
{
layerId = "7C736124-E567-4D27-84C2-A192D2C2BC4A";
paths = (
{
closed = 1;
nodes = (
"389 499 LINE",
"376 457 LINE",
"270 311 LINE",
"165 455 LINE",
"143 499 LINE",
"36 499 LINE",
"217 250 LINE",
"32 0 LINE",
"116 0 LINE",
"146 40 LINE",
"264 198 LINE",
"376 44 LINE",
"391 0 LINE",
"488 0 LINE",
"318 261 LINE",
"484 499 LINE"
);
}
);
width = 522;
}
);
leftKerningGroup = X;
rightKerningGroup = X;
},
{
color = 1;
glyphname = y.sc;
layers = (
{
anchors = (
{
name = top;
position = "{242, 499}";
}
);
layerId = "7C736124-E567-4D27-84C2-A192D2C2BC4A";
paths = (
{
closed = 1;
nodes = (
"368 499 LINE",
"346 466 LINE",
"227 259 LINE",
"221 259 LINE",
"121 469 LINE",
"102 499 LINE",
"24 499 LINE",
"207 128 LINE",
"242 128 LINE",
"444 499 LINE SMOOTH"
);
},
{
closed = 1;
nodes = (
"192 213 LINE",
"185 142 LINE",
"190 0 LINE",
"270 0 LINE",
"267 142 LINE",
"269 213 LINE"
);
}
);
width = 475;
}
);
leftKerningGroup = Y;
rightKerningGroup = Y;
},
{
color = 1;
glyphname = z.sc;
layers = (
{
anchors = (
{
name = top;
position = "{222, 499}";
}
);
layerId = "7C736124-E567-4D27-84C2-A192D2C2BC4A";
paths = (
{
closed = 1;
nodes = (
"387 499 LINE",
"236 499 LINE",
"54 500 LINE",
"47 376 LINE",
"51 370 LINE",
"211 419 LINE",
"328 419 LINE",
"40 56 LINE",
"40 -2 LINE",
"92 0 LINE",
"243 0 LINE",
"422 -2 LINE",
"429 123 LINE",
"433 128 LINE",
"259 79 LINE",
"136 79 LINE",
"423 440 LINE",
"423 500 LINE"
);
}
);
width = 471;
}
);
leftKerningGroup = Z;
rightKerningGroup = Z;
},
{
color = 1;
glyphname = Gamma;
layers = (
{
layerId = "7C736124-E567-4D27-84C2-A192D2C2BC4A";
paths = (
{
closed = 1;
nodes = (
"92 641 LINE",
"96 193 LINE",
"92 0 LINE",
"177 0 LINE",
"174 200 LINE",
"178 641 LINE"
);
},
{
closed = 1;
nodes = (
"142 641 LINE",
"139 579 LINE",
"142 572 LINE",
"272 572 LINE",
"408 570 LINE",
"414 633 LINE",
"409 641 LINE"
);
}
);
width = 418;
}
);
leftKerningGroup = H;
leftMetricsKey = "=H";
rightKerningGroup = Gamma;
unicode = 0393;
},
{
color = 1;
glyphname = Delta;
layers = (
{
layerId = "7C736124-E567-4D27-84C2-A192D2C2BC4A";
paths = (
{
closed = 1;
nodes = (
"246 641 LINE",
"13 0 LINE",
"559 0 LINE",
"346 641 LINE"
);
},
{
closed = 1;
nodes = (
"458 65 LINE",
"111 65 LINE",
"290 554 LINE",
"298 554 LINE"
);
}
);
width = 580;
}
);
leftKerningGroup = A;
leftMetricsKey = "=A";
rightKerningGroup = A;
rightMetricsKey = "=A";
unicode = 0394;
},
{
color = 1;
glyphname = Theta;
layers = (
{
anchors = (
{
name = top;
position = "{319, 641}";
}
);
layerId = "7C736124-E567-4D27-84C2-A192D2C2BC4A";
paths = (
{
closed = 1;
nodes = (
"440 292 LINE",
"443 348 LINE",
"436 354 LINE",
"196 346 LINE",
"193 290 LINE",
"199 283 LINE"
);
},
{
closed = 1;
nodes = (
"141 648 OFFCURVE",
"37 529 OFFCURVE",
"37 315 CURVE SMOOTH",
"37 109 OFFCURVE",
"135 -8 OFFCURVE",
"309 -8 CURVE SMOOTH",
"495 -8 OFFCURVE",
"600 115 OFFCURVE",
"600 333 CURVE SMOOTH",
"600 535 OFFCURVE",
"502 648 OFFCURVE",
"326 648 CURVE"
);
},
{
closed = 1;
nodes = (
"450 580 OFFCURVE",
"515 498 OFFCURVE",
"515 317 CURVE SMOOTH",
"515 140 OFFCURVE",
"448 56 OFFCURVE",
"316 56 CURVE SMOOTH",
"186 56 OFFCURVE",
"122 140 OFFCURVE",
"122 325 CURVE SMOOTH",
"122 498 OFFCURVE",
"188 580 OFFCURVE",
"320 580 CURVE SMOOTH"
);
}
);
width = 636;
}
);
leftKerningGroup = O;
leftMetricsKey = "=O";
rightKerningGroup = O;
rightMetricsKey = "=O";
unicode = 0398;
},
{
color = 1;
glyphname = Lambda;
layers = (
{
layerId = "7C736124-E567-4D27-84C2-A192D2C2BC4A";
paths = (
{
closed = 1;
nodes = (
"241 641 LINE",
"13 0 LINE SMOOTH",
"101 0 LINE",
"117 71 LINE",
"287 553 LINE",
"294 553 LINE",
"447 67 LINE",
"462 0 LINE",
"552 0 LINE",
"344 641 LINE"
);
}
);
width = 573;
}
);
leftKerningGroup = A;
leftMetricsKey = "=A";
rightKerningGroup = A;
rightMetricsKey = "=A";
unicode = 039B;
},
{
color = 1;
glyphname = Xi;
layers = (
{
layerId = "7C736124-E567-4D27-84C2-A192D2C2BC4A";
paths = (
{
closed = 1;
nodes = (
"484 0 LINE",
"491 70 LINE",
"485 78 LINE",
"270 75 LINE",
"66 78 LINE",
"60 70 LINE",
"67 0 LINE"
);
},
{
closed = 1;
nodes = (
"268 291 LINE",
"437 289 LINE",
"443 358 LINE",
"438 366 LINE",
"276 365 LINE",
"110 366 LINE",
"104 298 LINE",
"109 289 LINE"
);
},
{
closed = 1;
nodes = (
"275 565 LINE",
"482 563 LINE",
"490 633 LINE",
"484 641 LINE",
"70 641 LINE",
"63 571 LINE",
"69 563 LINE"
);
}
);
width = 550;
}
);
leftKerningGroup = Xi;
rightKerningGroup = E;
unicode = 039E;
},
{
color = 1;
glyphname = Pi;
layers = (
{
layerId = "7C736124-E567-4D27-84C2-A192D2C2BC4A";
paths = (
{
closed = 1;
nodes = (
"560 0 LINE",
"557 200 LINE",
"561 641 LINE",
"475 641 LINE",
"479 193 LINE",
"475 0 LINE"
);
},
{
closed = 1;
nodes = (
"168 0 LINE",
"165 200 LINE",
"169 641 LINE",
"83 641 LINE",
"87 193 LINE",
"83 0 LINE"
);
},
{
closed = 1;
nodes = (
"317 571 LINE",
"489 569 LINE",
"489 641 LINE",
"155 641 LINE",
"155 568 LINE"
);
}
);
width = 645;
}
);
leftKerningGroup = H;
leftMetricsKey = "=I";
rightKerningGroup = H;
rightMetricsKey = "=I";
unicode = 03A0;
},
{
color = 1;
glyphname = Sigma;
layers = (
{
layerId = "7C736124-E567-4D27-84C2-A192D2C2BC4A";
paths = (
{
closed = 1;
nodes = (
"369 641 LINE",
"116 641 LINE",
"34 641 LINE",
"34 575 LINE",
"249 324 LINE",
"31 61 LINE",
"31 -1 LINE",
"113 0 LINE",
"345 0 LINE",
"454 -1 LINE",
"461 62 LINE",
"454 70 LINE",
"364 66 LINE",
"136 66 LINE",
"344 316 LINE",
"344 333 LINE",
"139 574 LINE",
"376 574 LINE",
"455 571 LINE",
"462 634 LINE",
"454 642 LINE"
);
}
);
width = 488;
}
);
leftKerningGroup = X;
rightKerningGroup = E;
unicode = 03A3;
},
{
color = 1;
glyphname = Phi;
layers = (
{
layerId = "7C736124-E567-4D27-84C2-A192D2C2BC4A";
paths = (
{
closed = 1;
nodes = (
"571 59 OFFCURVE",
"683 151 OFFCURVE",
"683 328 CURVE SMOOTH",
"683 498 OFFCURVE",
"581 580 OFFCURVE",
"368 580 CURVE SMOOTH",
"148 580 OFFCURVE",
"37 492 OFFCURVE",
"37 316 CURVE SMOOTH",
"37 144 OFFCURVE",
"141 59 OFFCURVE",
"352 59 CURVE SMOOTH"
);
},
{
closed = 1;
nodes = (
"188 116 OFFCURVE",
"119 180 OFFCURVE",
"119 319 CURVE SMOOTH",
"119 458 OFFCURVE",
"188 519 OFFCURVE",
"361 519 CURVE SMOOTH",
"534 519 OFFCURVE",
"601 460 OFFCURVE",
"601 322 CURVE SMOOTH",
"601 183 OFFCURVE",
"531 116 OFFCURVE",
"359 116 CURVE SMOOTH"
);
},
{
closed = 1;
nodes = (
"320 640 LINE",
"324 193 LINE",
"320 0 LINE",
"400 0 LINE",
"397 200 LINE",
"401 640 LINE"
);
}
);
width = 720;
}
);
leftKerningGroup = O;
rightKerningGroup = O;
unicode = 03A6;
},
{
color = 1;
glyphname = Psi;
layers = (
{
layerId = "7C736124-E567-4D27-84C2-A192D2C2BC4A";
paths = (
{
closed = 1;
nodes = (
"321 641 LINE",
"325 193 LINE",
"321 0 LINE",
"403 0 LINE",
"400 200 LINE",
"404 641 LINE"
);
},
{
closed = 1;
nodes = (
"582 641 LINE",
"585 370 LINE SMOOTH",
"586 250 OFFCURVE",
"510 183 OFFCURVE",
"362 183 CURVE SMOOTH",
"214 183 OFFCURVE",
"139 250 OFFCURVE",
"140 370 CURVE SMOOTH",
"143 641 LINE",
"61 641 LINE",
"62 455 LINE",
"62 359 LINE SMOOTH",
"62 204 OFFCURVE",
"166 114 OFFCURVE",
"359 114 CURVE SMOOTH",
"554 114 OFFCURVE",
"664 206 OFFCURVE",
"663 359 CURVE",
"663 447 LINE",
"665 641 LINE"
);
}
);
width = 725;
}
);
leftKerningGroup = Psi;
rightKerningGroup = Psi;
unicode = 03A8;
},
{
color = 1;
glyphname = Omega;
layers = (
{
anchors = (
{
name = bottom;
position = "{348, 0}";
},
{
name = top;
position = "{348, 641}";
},
{
name = topleft;
position = "{19, 641}";
}
);
layerId = "7C736124-E567-4D27-84C2-A192D2C2BC4A";
paths = (
{
closed = 1;
nodes = (
"46 4 LINE",
"52 -3 LINE",
"126 0 LINE",
"250 0 LINE",
"291 -2 LINE",
"295 2 LINE",
"294 94 LINE",
"190 162 OFFCURVE",
"145 245 OFFCURVE",
"145 359 CURVE SMOOTH",
"145 500 OFFCURVE",
"217 578 OFFCURVE",
"348 578 CURVE SMOOTH",
"480 578 OFFCURVE",
"552 500 OFFCURVE",
"552 359 CURVE SMOOTH",
"552 245 OFFCURVE",
"504 162 OFFCURVE",
"402 94 CURVE",
"401 2 LINE",
"406 -2 LINE",
"447 0 LINE",
"570 0 LINE",
"642 -1 LINE",
"651 63 LINE",
"645 70 LINE",
"571 65 LINE",
"480 65 LINE",
"480 70 LINE",
"587 139 OFFCURVE",
"639 237 OFFCURVE",
"639 361 CURVE SMOOTH",
"639 545 OFFCURVE",
"533 648 OFFCURVE",
"348 648 CURVE SMOOTH",
"164 648 OFFCURVE",
"58 545 OFFCURVE",
"58 361 CURVE SMOOTH",
"58 237 OFFCURVE",
"109 139 OFFCURVE",
"217 70 CURVE",
"217 65 LINE",
"127 65 LINE",
"55 69 LINE"
);
}
);
width = 697;
}
);
leftKerningGroup = Omega;
rightKerningGroup = Omega;
unicode = 03A9;
},
{
color = 1;
glyphname = alpha;
layers = (
{
anchors = (
{
name = top;
position = "{270, 459}";
}
);
layerId = "7C736124-E567-4D27-84C2-A192D2C2BC4A";
paths = (
{
closed = 1;
nodes = (
"273 -1 OFFCURVE",
"314 23 OFFCURVE",
"352 66 CURVE",
"379 66 LINE",
"364 154 LINE",
"331 89 OFFCURVE",
"290 58 OFFCURVE",
"239 58 CURVE SMOOTH",
"165 58 OFFCURVE",
"120 122 OFFCURVE",
"120 232 CURVE SMOOTH",
"120 347 OFFCURVE",
"169 406 OFFCURVE",
"263 406 CURVE SMOOTH",
"300 406 OFFCURVE",
"333 400 OFFCURVE",
"364 387 CURVE",
"385 444 LINE",
"342 457 OFFCURVE",
"300 464 OFFCURVE",
"260 466 CURVE SMOOTH",
"121 465 OFFCURVE",
"41 375 OFFCURVE",
"41 221 CURVE SMOOTH",
"41 81 OFFCURVE",
"112 -6 OFFCURVE",
"225 -6 CURVE SMOOTH"
);
},
{
closed = 1;
nodes = (
"459 -3 OFFCURVE",
"483 6 OFFCURVE",
"504 21 CURVE",
"513 66 LINE",
"505 74 LINE",
"489 64 OFFCURVE",
"475 60 OFFCURVE",
"462 60 CURVE SMOOTH",
"436 60 OFFCURVE",
"427 73 OFFCURVE",
"427 110 CURVE SMOOTH",
"430 460 LINE",
"347 450 LINE",
"350 232 LINE",
"350 85 LINE SMOOTH",
"358 22 OFFCURVE",
"385 -6 OFFCURVE",
"439 -5 CURVE SMOOTH"
);
}
);
width = 520;
}
);
leftKerningGroup = alpha;
rightKerningGroup = alpha;
unicode = 03B1;
},
{
color = 1;
glyphname = beta;
layers = (
{
layerId = "7C736124-E567-4D27-84C2-A192D2C2BC4A";
paths = (
{
closed = 1;
nodes = (
"121 -234 OFFCURVE",
"136 -230 OFFCURVE",
"147 -231 CURVE",
"131 86 LINE",
"131 365 LINE",
"136 607 OFFCURVE",
"174 697 OFFCURVE",
"278 697 CURVE SMOOTH",
"334 697 OFFCURVE",
"363 669 OFFCURVE",
"363 616 CURVE SMOOTH",
"363 546 OFFCURVE",
"331 474 OFFCURVE",
"210 327 CURVE",
"234 290 LINE",
"343 415 OFFCURVE",
"405 521 OFFCURVE",
"405 599 CURVE SMOOTH",
"405 677 OFFCURVE",
"336 737 OFFCURVE",
"261 737 CURVE SMOOTH",
"149 737 OFFCURVE",
"89 641 OFFCURVE",
"86 482 CURVE SMOOTH",
"80 -225 LINE",
"83 -236 LINE"
);
},
{
closed = 1;
nodes = (
"378 -12 OFFCURVE",
"474 69 OFFCURVE",
"474 177 CURVE SMOOTH",
"474 311 OFFCURVE",
"308 413 OFFCURVE",
"195 348 CURVE",
"193 338 LINE",
"195 322 OFFCURVE",
"207 302 OFFCURVE",
"222 290 CURVE",
"234 290 LINE",
"319 353 OFFCURVE",
"412 322 OFFCURVE",
"412 210 CURVE SMOOTH",
"412 56 OFFCURVE",
"229 -17 OFFCURVE",
"120 112 CURVE",
"120 40 LINE",
"142 44 LINE",
"175 12 OFFCURVE",
"208 2 OFFCURVE",
"236 -12 CURVE"
);
}
);
width = 505;
}
);
leftKerningGroup = h;
rightKerningGroup = beta;
unicode = 03B2;
},
{
color = 1;
glyphname = gamma;
layers = (
{
layerId = "7C736124-E567-4D27-84C2-A192D2C2BC4A";
paths = (
{
closed = 1;
nodes = (
"240 -213 LINE",
"243 -8 OFFCURVE",
"236 91 OFFCURVE",
"222 219 CURVE SMOOTH",
"193 385 OFFCURVE",
"146 458 OFFCURVE",
"67 458 CURVE",
"34 437 OFFCURVE",
"18 407 OFFCURVE",
"18 355 CURVE",
"24 349 LINE",
"128 395 OFFCURVE",
"152 375 OFFCURVE",
"177 212 CURVE SMOOTH",
"190 128 OFFCURVE",
"203 83 OFFCURVE",
"205 -11 CURVE",
"210 31 LINE",
"154 -80 OFFCURVE",
"155 -98 OFFCURVE",
"146 -198 CURVE",
"179 -234 LINE",
"188 -236 LINE"
);
},
{
closed = 1;
nodes = (
"281 110 OFFCURVE",
"365 249 OFFCURVE",
"445 390 CURVE",
"444 420 OFFCURVE",
"437 436 OFFCURVE",
"415 452 CURVE",
"399 452 LINE",
"357 353 OFFCURVE",
"289 236 OFFCURVE",
"243 109 CURVE",
"218 110 LINE",
"217 -29 LINE"
);
}
);
width = 473;
}
);
leftKerningGroup = gamma;
rightKerningGroup = gamma;
unicode = 03B3;
},
{
color = 1;
glyphname = delta;
layers = (
{
layerId = "7C736124-E567-4D27-84C2-A192D2C2BC4A";
paths = (
{
closed = 1;
nodes = (
"343 -7 OFFCURVE",
"429 90 OFFCURVE",
"429 208 CURVE SMOOTH",
"429 444 OFFCURVE",
"156 581 OFFCURVE",
"153 651 CURVE SMOOTH",
"153 669 OFFCURVE",
"159 676 OFFCURVE",
"170 676 CURVE SMOOTH",
"221 676 OFFCURVE",
"351 615 OFFCURVE",
"452 540 CURVE",
"457 552 LINE",
"411 651 OFFCURVE",
"325 714 OFFCURVE",
"208 743 CURVE",
"146 732 OFFCURVE",
"112 712 OFFCURVE",
"112 668 CURVE SMOOTH",
"112 536 OFFCURVE",
"374 466 OFFCURVE",
"374 237 CURVE SMOOTH",
"374 117 OFFCURVE",
"315 41 OFFCURVE",
"218 41 CURVE SMOOTH",
"135 41 OFFCURVE",
"86 97 OFFCURVE",
"86 183 CURVE SMOOTH",
"86 290 OFFCURVE",
"158 380 OFFCURVE",
"250 380 CURVE SMOOTH",
"292 380 OFFCURVE",
"323 360 OFFCURVE",
"366 331 CURVE",
"331 420 LINE",
"312 401 LINE",
"283 412 OFFCURVE",
"256 421 OFFCURVE",
"228 425 CURVE",
"113 411 OFFCURVE",
"32 338 OFFCURVE",
"32 214 CURVE SMOOTH",
"32 89 OFFCURVE",
"120 -7 OFFCURVE",
"226 -7 CURVE SMOOTH"
);
}
);
width = 498;
}
);
leftKerningGroup = o;
rightKerningGroup = delta;
unicode = 03B4;
},
{
color = 1;
glyphname = epsilon;
layers = (
{
anchors = (
{
name = top;
position = "{220, 444}";
}
);
layerId = "7C736124-E567-4D27-84C2-A192D2C2BC4A";
paths = (
{
closed = 1;
nodes = (
"269 -4 OFFCURVE",
"311 15 OFFCURVE",
"349 37 CURVE",
"351 57 OFFCURVE",
"366 82 OFFCURVE",
"368 109 CURVE",
"353 105 LINE",
"292 69 OFFCURVE",
"233 43 OFFCURVE",
"190 43 CURVE SMOOTH",
"129 43 OFFCURVE",
"91 72 OFFCURVE",
"91 117 CURVE SMOOTH",
"91 175 OFFCURVE",
"163 206 OFFCURVE",
"296 203 CURVE",
"302 224 OFFCURVE",
"304 246 OFFCURVE",
"304 259 CURVE",
"295 266 LINE",
"164 255 OFFCURVE",
"46 188 OFFCURVE",
"46 96 CURVE SMOOTH",
"46 28 OFFCURVE",
"109 -12 OFFCURVE",
"226 -12 CURVE"
);
},
{
closed = 1;
nodes = (
"248 192 OFFCURVE",
"280 195 OFFCURVE",
"296 203 CURVE",
"181 246 LINE",
"129 250 OFFCURVE",
"105 261 OFFCURVE",
"105 299 CURVE SMOOTH",
"105 362 OFFCURVE",
"180 398 OFFCURVE",
"267 398 CURVE SMOOTH",
"283 398 OFFCURVE",
"300 403 OFFCURVE",
"326 396 CURVE",
"335 403 LINE",
"334 416 OFFCURVE",
"330 437 OFFCURVE",
"332 449 CURVE",
"304 457 OFFCURVE",
"278 451 OFFCURVE",
"250 451 CURVE SMOOTH",
"158 451 OFFCURVE",
"55 399 OFFCURVE",
"55 324 CURVE SMOOTH",
"55 243 OFFCURVE",
"133 192 OFFCURVE",
"224 192 CURVE SMOOTH"
);
}
);
width = 399;
}
);
leftKerningGroup = epsilon;
rightKerningGroup = epsilon;
unicode = 03B5;
},
{
color = 1;
glyphname = zeta;
layers = (
{
layerId = "7C736124-E567-4D27-84C2-A192D2C2BC4A";
paths = (
{
closed = 1;
nodes = (
"229 -158 OFFCURVE",
"283 -107 OFFCURVE",
"283 -17 CURVE SMOOTH",
"283 39 OFFCURVE",
"264 70 OFFCURVE",
"206 85 CURVE SMOOTH",
"101 117 OFFCURVE",
"59 125 OFFCURVE",
"59 182 CURVE SMOOTH",
"59 260 OFFCURVE",
"127 377 OFFCURVE",
"358 669 CURVE",
"355 680 LINE",
"346 689 OFFCURVE",
"336 695 OFFCURVE",
"323 706 CURVE",
"312 707 LINE",
"116 453 OFFCURVE",
"28 312 OFFCURVE",
"28 191 CURVE SMOOTH",
"28 92 OFFCURVE",
"86 47 OFFCURVE",
"164 25 CURVE SMOOTH",
"240 11 OFFCURVE",
"256 1 OFFCURVE",
"256 -19 CURVE SMOOTH",
"256 -49 OFFCURVE",
"229 -76 OFFCURVE",
"89 -106 CURVE",
"92 -119 LINE",
"125 -179 LINE"
);
},
{
closed = 1;
nodes = (
"188 603 OFFCURVE",
"237 612 OFFCURVE",
"271 625 CURVE",
"269 645 LINE",
"137 614 OFFCURVE",
"70 647 OFFCURVE",
"128 731 CURVE",
"114 738 LINE",
"65 719 OFFCURVE",
"46 688 OFFCURVE",
"46 657 CURVE SMOOTH",
"46 625 OFFCURVE",
"91 606 OFFCURVE",
"146 606 CURVE"
);
}
);
width = 308;
}
);
leftKerningGroup = zeta;
rightKerningGroup = zeta;
unicode = 03B6;
},
{
color = 1;
glyphname = eta;
layers = (
{
anchors = (
{
name = top;
position = "{268, 459}";
}
);
layerId = "7C736124-E567-4D27-84C2-A192D2C2BC4A";
paths = (
{
closed = 1;
nodes = (
"456 -185 LINE",
"453 200 LINE",
"455 330 LINE SMOOTH",
"456 416 OFFCURVE",
"406 465 OFFCURVE",
"317 465 CURVE SMOOTH",
"268 459 OFFCURVE",
"217 431 OFFCURVE",
"173 385 CURVE",
"160 385 LINE",
"160 324 LINE",
"202 370 OFFCURVE",
"248 397 OFFCURVE",
"289 397 CURVE SMOOTH",
"345 397 OFFCURVE",
"376 362 OFFCURVE",
"376 300 CURVE SMOOTH",
"371 -185 LINE"
);
},
{
closed = 1;
nodes = (
"173 0 LINE",
"170 201 LINE",
"170 372 LINE SMOOTH",
"170 434 OFFCURVE",
"139 464 OFFCURVE",
"79 464 CURVE SMOOTH",
"58 462 OFFCURVE",
"34 453 OFFCURVE",
"14 438 CURVE",
"5 388 LINE",
"13 381 LINE",
"29 390 OFFCURVE",
"43 394 OFFCURVE",
"57 394 CURVE SMOOTH",
"82 394 OFFCURVE",
"91 381 OFFCURVE",
"91 344 CURVE SMOOTH",
"93 194 LINE",
"89 0 LINE"
);
}
);
width = 522;
}
);
leftKerningGroup = n;
rightKerningGroup = n;
unicode = 03B7;
},
{
color = 1;
glyphname = theta;
layers = (
{
layerId = "7C736124-E567-4D27-84C2-A192D2C2BC4A";
paths = (
{
closed = 1;
nodes = (
"307 -8 OFFCURVE",
"387 159 OFFCURVE",
"387 367 CURVE SMOOTH",
"387 583 OFFCURVE",
"316 734 OFFCURVE",
"229 734 CURVE SMOOTH",
"133 734 OFFCURVE",
"62 566 OFFCURVE",
"62 350 CURVE SMOOTH",
"62 142 OFFCURVE",
"125 -8 OFFCURVE",
"213 -8 CURVE SMOOTH"
);
},
{
closed = 1;
nodes = (
"133 59 OFFCURVE",
"94 191 OFFCURVE",
"108 361 CURVE SMOOTH",
"124 537 OFFCURVE",
"186 676 OFFCURVE",
"252 670 CURVE SMOOTH",
"311 673 OFFCURVE",
"361 531 OFFCURVE",
"338 362 CURVE SMOOTH",
"330 179 OFFCURVE",
"268 40 OFFCURVE",
"202 54 CURVE SMOOTH"
);
},
{
closed = 1;
nodes = (
"113 350 LINE",
"364 363 LINE",
"364 420 LINE",
"344 401 LINE",
"79 401 LINE",
"84 327 LINE"
);
}
);
width = 439;
}
);
leftKerningGroup = theta;
rightKerningGroup = theta;
unicode = 03B8;
},
{
color = 1;
glyphname = iota;
layers = (
{
anchors = (
{
name = top;
position = "{108, 459}";
}
);
layerId = "7C736124-E567-4D27-84C2-A192D2C2BC4A";
paths = (
{
closed = 1;
nodes = (
"68 453 LINE",
"71 232 LINE",
"69 98 LINE SMOOTH",
"69 32 OFFCURVE",
"104 -5 OFFCURVE",
"159 -5 CURVE SMOOTH",
"181 -3 OFFCURVE",
"205 6 OFFCURVE",
"225 21 CURVE",
"234 66 LINE",
"225 74 LINE",
"209 64 OFFCURVE",
"196 60 OFFCURVE",
"182 60 CURVE SMOOTH",
"157 60 OFFCURVE",
"147 73 OFFCURVE",
"147 110 CURVE SMOOTH",
"151 461 LINE"
);
}
);
width = 240;
}
);
leftKerningGroup = iota;
rightKerningGroup = iota;
unicode = 03B9;
},
{
color = 1;
glyphname = kappa;
layers = (
{
layerId = "7C736124-E567-4D27-84C2-A192D2C2BC4A";
paths = (
{
closed = 1;
nodes = (
"336 459 LINE",
"310 417 LINE",
"166 248 LINE",
"166 241 LINE",
"224 156 OFFCURVE",
"288 75 OFFCURVE",
"355 -5 CURVE",
"364 -9 LINE",
"390 -5 OFFCURVE",
"415 -2 OFFCURVE",
"440 5 CURVE",
"440 15 LINE",
"374 90 OFFCURVE",
"309 169 OFFCURVE",
"249 249 CURVE",
"427 459 LINE"
);
},
{
closed = 1;
nodes = (
"152 0 LINE",
"150 201 LINE",
"153 461 LINE",
"70 453 LINE",
"72 194 LINE",
"69 0 LINE"
);
}
);
width = 448;
}
);
leftKerningGroup = n;
leftMetricsKey = "=idotless";
rightKerningGroup = x;
rightMetricsKey = "=k";
unicode = 03BA;
},
{
color = 1;
glyphname = lambda;
layers = (
{
layerId = "7C736124-E567-4D27-84C2-A192D2C2BC4A";
paths = (
{
closed = 1;
nodes = (
"96 59 LINE",
"209 368 LINE",
"215 368 LINE",
"321 65 LINE",
"338 0 LINE",
"419 0 LINE",
"250 459 LINE SMOOTH",
"196 604 OFFCURVE",
"126 654 OFFCURVE",
"1 647 CURVE",
"-9 631 OFFCURVE",
"-17 613 OFFCURVE",
"-23 588 CURVE",
"-19 581 LINE",
"114 586 OFFCURVE",
"157 550 OFFCURVE",
"212 389 CURVE",
"187 493 LINE",
"8 2 LINE",
"82 -3 LINE"
);
}
);
width = 429;
}
);
leftKerningGroup = lambda;
rightKerningGroup = lambda;
unicode = 03BB;
},
{
color = 1;
glyphname = mu;
layers = (
{
layerId = "7C736124-E567-4D27-84C2-A192D2C2BC4A";
paths = (
{
closed = 1;
nodes = (
"273 4 OFFCURVE",
"316 32 OFFCURVE",
"354 77 CURVE",
"361 77 LINE",
"369 18 OFFCURVE",
"391 -5 OFFCURVE",
"431 -5 CURVE SMOOTH",
"453 -5 OFFCURVE",
"474 2 OFFCURVE",
"491 14 CURVE",
"501 62 LINE",
"493 68 LINE",
"482 61 OFFCURVE",
"470 57 OFFCURVE",
"460 57 CURVE SMOOTH",
"440 57 OFFCURVE",
"431 72 OFFCURVE",
"431 105 CURVE SMOOTH",
"435 461 LINE",
"356 453 LINE",
"356 128 LINE",
"316 85 OFFCURVE",
"276 64 OFFCURVE",
"236 64 CURVE SMOOTH",
"184 64 OFFCURVE",
"158 95 OFFCURVE",
"158 157 CURVE",
"102 130 LINE",
"102 44 OFFCURVE",
"144 -5 OFFCURVE",
"228 -5 CURVE SMOOTH"
);
},
{
closed = 1;
nodes = (
"158 -185 LINE",
"158 201 LINE",
"158 461 LINE",
"78 453 LINE",
"80 194 LINE",
"79 -185 LINE"
);
}
);
width = 523;
}
);
leftKerningGroup = p;
leftMetricsKey = p;
rightKerningGroup = u;
rightMetricsKey = u;
unicode = 03BC;
},
{
color = 1;
glyphname = nu;
layers = (
{
layerId = "7C736124-E567-4D27-84C2-A192D2C2BC4A";
paths = (
{
closed = 1;
nodes = (
"192 -7 LINE",
"307 108 OFFCURVE",
"371 241 OFFCURVE",
"394 391 CURVE",
"372 416 OFFCURVE",
"361 434 OFFCURVE",
"318 455 CURVE",
"305 450 LINE",
"322 408 OFFCURVE",
"334 373 OFFCURVE",
"335 341 CURVE",
"300 219 OFFCURVE",
"233 110 OFFCURVE",
"135 21 CURVE",
"136 15 LINE",
"149 -2 OFFCURVE",
"166 -12 OFFCURVE",
"178 -10 CURVE"
);
},
{
closed = 1;
nodes = (
"210 65 LINE",
"186 82 LINE",
"204 263 OFFCURVE",
"143 450 OFFCURVE",
"72 450 CURVE",
"40 434 OFFCURVE",
"20 410 OFFCURVE",
"11 370 CURVE",
"18 369 LINE",
"115 391 OFFCURVE",
"160 340 OFFCURVE",
"160 183 CURVE SMOOTH",
"160 117 OFFCURVE",
"152 68 OFFCURVE",
"135 21 CURVE"
);
}
);
width = 417;
}
);
leftKerningGroup = nu;
rightKerningGroup = nu;
unicode = 03BD;
},
{
color = 1;
glyphname = xi;
layers = (
{
layerId = "7C736124-E567-4D27-84C2-A192D2C2BC4A";
paths = (
{
closed = 1;
nodes = (
"280 -146 OFFCURVE",
"326 -98 OFFCURVE",
"326 -33 CURVE SMOOTH",
"326 28 OFFCURVE",
"287 71 OFFCURVE",
"216 78 CURVE SMOOTH",
"96 90 OFFCURVE",
"72 109 OFFCURVE",
"72 158 CURVE SMOOTH",
"72 200 OFFCURVE",
"127 284 OFFCURVE",
"335 408 CURVE",
"335 418 LINE",
"292 440 LINE",
"272 442 LINE",
"102 331 OFFCURVE",
"48 233 OFFCURVE",
"48 178 CURVE SMOOTH",
"48 86 OFFCURVE",
"98 27 OFFCURVE",
"203 16 CURVE SMOOTH",
"287 2 OFFCURVE",
"301 -5 OFFCURVE",
"301 -25 CURVE SMOOTH",
"301 -58 OFFCURVE",
"270 -78 OFFCURVE",
"144 -111 CURVE",
"140 -126 LINE",
"181 -180 LINE"
);
},
{
closed = 1;
nodes = (
"177 344 LINE",
"105 370 OFFCURVE",
"85 385 OFFCURVE",
"85 409 CURVE SMOOTH",
"85 467 OFFCURVE",
"170 551 OFFCURVE",
"313 657 CURVE",
"301 667 LINE",
"252 687 LINE",
"249 688 LINE",
"120 587 OFFCURVE",
"61 502 OFFCURVE",
"53 430 CURVE SMOOTH",
"61 378 OFFCURVE",
"84 338 OFFCURVE",
"166 319 CURVE"
);
},
{
closed = 1;
nodes = (
"143 600 OFFCURVE",
"191 608 OFFCURVE",
"225 622 CURVE",
"224 642 LINE",
"101 609 OFFCURVE",
"44 647 OFFCURVE",
"99 726 CURVE",
"84 734 LINE",
"46 715 OFFCURVE",
"16 683 OFFCURVE",
"16 653 CURVE SMOOTH",
"16 622 OFFCURVE",
"56 596 OFFCURVE",
"115 596 CURVE"
);
}
);
width = 343;
}
);
leftKerningGroup = xi;
rightKerningGroup = xi;
unicode = 03BE;
},
{
color = 1;
glyphname = pi;
layers = (
{
layerId = "7C736124-E567-4D27-84C2-A192D2C2BC4A";
paths = (
{
closed = 1;
nodes = (
"531 -3 OFFCURVE",
"561 7 OFFCURVE",
"586 21 CURVE",
"595 69 LINE",
"587 77 LINE",
"565 66 OFFCURVE",
"546 61 OFFCURVE",
"527 61 CURVE SMOOTH",
"494 61 OFFCURVE",
"482 77 OFFCURVE",
"482 119 CURVE SMOOTH",
"486 453 LINE",
"404 451 LINE",
"406 227 LINE",
"404 100 LINE SMOOTH",
"404 32 OFFCURVE",
"439 -5 OFFCURVE",
"505 -5 CURVE SMOOTH"
);
},
{
closed = 1;
nodes = (
"24 355 LINE",
"65 393 OFFCURVE",
"92 404 OFFCURVE",
"143 404 CURVE SMOOTH",
"615 404 LINE",
"620 453 LINE",
"617 459 LINE",
"134 459 LINE SMOOTH",
"78 459 OFFCURVE",
"40 442 OFFCURVE",
"-3 394 CURVE",
"-3 385 LINE",
"15 355 LINE"
);
},
{
closed = 1;
nodes = (
"233 0 LINE",
"230 201 LINE",
"230 453 LINE",
"151 453 LINE",
"153 194 LINE",
"150 0 LINE"
);
}
);
width = 630;
}
);
leftKerningGroup = pi;
rightKerningGroup = pi;
unicode = 03C0;
},
{
color = 1;
glyphname = rho;
layers = (
{
layerId = "7C736124-E567-4D27-84C2-A192D2C2BC4A";
paths = (
{
closed = 1;
nodes = (
"210 -185 LINE",
"207 246 LINE SMOOTH",
"207 345 OFFCURVE",
"258 397 OFFCURVE",
"333 397 CURVE SMOOTH",
"410 397 OFFCURVE",
"443 340 OFFCURVE",
"443 233 CURVE SMOOTH",
"443 112 OFFCURVE",
"399 49 OFFCURVE",
"290 49 CURVE SMOOTH",
"248 49 OFFCURVE",
"199 67 OFFCURVE",
"149 94 CURVE",
"153 22 LINE",
"195 3 OFFCURVE",
"241 -8 OFFCURVE",
"291 -8 CURVE SMOOTH",
"441 -8 OFFCURVE",
"530 80 OFFCURVE",
"530 243 CURVE SMOOTH",
"530 388 OFFCURVE",
"457 465 OFFCURVE",
"337 465 CURVE SMOOTH",
"214 465 OFFCURVE",
"130 381 OFFCURVE",
"130 225 CURVE SMOOTH",
"127 -185 LINE"
);
}
);
width = 564;
}
);
leftKerningGroup = rho;
rightKerningGroup = o;
rightMetricsKey = "=p";
unicode = 03C1;
},
{
color = 1;
glyphname = sigmafinal;
layers = (
{
layerId = "7C736124-E567-4D27-84C2-A192D2C2BC4A";
paths = (
{
closed = 1;
nodes = (
"259 -148 OFFCURVE",
"303 -107 OFFCURVE",
"303 -38 CURVE SMOOTH",
"303 32 OFFCURVE",
"264 74 OFFCURVE",
"209 82 CURVE SMOOTH",
"90 96 OFFCURVE",
"68 112 OFFCURVE",
"68 193 CURVE SMOOTH",
"68 339 OFFCURVE",
"158 412 OFFCURVE",
"304 382 CURVE",
"320 392 LINE",
"307 412 OFFCURVE",
"298 432 OFFCURVE",
"293 442 CURVE",
"154 488 OFFCURVE",
"34 380 OFFCURVE",
"34 218 CURVE SMOOTH",
"34 95 OFFCURVE",
"87 22 OFFCURVE",
"189 10 CURVE SMOOTH",
"263 4 OFFCURVE",
"276 -2 OFFCURVE",
"276 -33 CURVE SMOOTH",
"276 -58 OFFCURVE",
"245 -77 OFFCURVE",
"131 -119 CURVE",
"128 -132 LINE",
"165 -182 LINE"
);
}
);
width = 343;
}
);
leftKerningGroup = o;
rightKerningGroup = sigmafinal;
unicode = 03C2;
},
{
color = 1;
glyphname = sigma;
layers = (
{
layerId = "7C736124-E567-4D27-84C2-A192D2C2BC4A";
paths = (
{
closed = 1;
nodes = (
"366 -8 OFFCURVE",
"440 78 OFFCURVE",
"440 227 CURVE SMOOTH",
"440 289 OFFCURVE",
"423 344 OFFCURVE",
"387 398 CURVE",
"396 421 LINE",
"303 434 LINE",
"341 371 OFFCURVE",
"363 292 OFFCURVE",
"363 220 CURVE SMOOTH",
"363 109 OFFCURVE",
"320 51 OFFCURVE",
"238 51 CURVE SMOOTH",
"162 51 OFFCURVE",
"121 112 OFFCURVE",
"121 235 CURVE SMOOTH",
"121 353 OFFCURVE",
"165 404 OFFCURVE",
"264 404 CURVE SMOOTH",
"498 404 LINE",
"503 453 LINE",
"499 459 LINE",
"270 459 LINE SMOOTH",
"119 459 OFFCURVE",
"42 381 OFFCURVE",
"42 229 CURVE SMOOTH",
"42 76 OFFCURVE",
"110 -8 OFFCURVE",
"233 -8 CURVE SMOOTH"
);
}
);
width = 511;
}
);
leftKerningGroup = o;
rightKerningGroup = sigma;
unicode = 03C3;
},
{
color = 1;
glyphname = tau;
layers = (
{
layerId = "7C736124-E567-4D27-84C2-A192D2C2BC4A";
paths = (
{
closed = 1;
nodes = (
"281 -3 OFFCURVE",
"311 7 OFFCURVE",
"336 21 CURVE",
"345 69 LINE",
"337 77 LINE",
"315 66 OFFCURVE",
"296 61 OFFCURVE",
"277 61 CURVE SMOOTH",
"243 61 OFFCURVE",
"231 77 OFFCURVE",
"231 119 CURVE SMOOTH",
"235 453 LINE",
"153 451 LINE",
"154 227 LINE",
"153 100 LINE SMOOTH",
"153 32 OFFCURVE",
"188 -5 OFFCURVE",
"255 -5 CURVE SMOOTH"
);
},
{
closed = 1;
nodes = (
"24 355 LINE",
"65 393 OFFCURVE",
"93 404 OFFCURVE",
"144 404 CURVE SMOOTH",
"375 404 LINE",
"381 453 LINE",
"377 459 LINE",
"135 459 LINE SMOOTH",
"78 459 OFFCURVE",
"40 442 OFFCURVE",
"-3 394 CURVE",
"-3 385 LINE",
"15 355 LINE"
);
}
);
width = 388;
}
);
leftKerningGroup = pi;
rightKerningGroup = pi;
unicode = 03C4;
},
{
color = 1;
glyphname = upsilon;
layers = (
{
anchors = (
{
name = top;
position = "{237, 459}";
}
);
layerId = "7C736124-E567-4D27-84C2-A192D2C2BC4A";
paths = (
{
closed = 1;
nodes = (
"353 -6 OFFCURVE",
"418 56 OFFCURVE",
"417 165 CURVE",
"418 309 LINE",
"418 371 OFFCURVE",
"409 418 OFFCURVE",
"387 462 CURVE",
"317 447 LINE",
"315 441 LINE",
"333 399 OFFCURVE",
"341 357 OFFCURVE",
"342 298 CURVE SMOOTH",
"342 174 LINE SMOOTH",
"342 97 OFFCURVE",
"307.998 58.998 OFFCURVE",
"241 59 CURVE SMOOTH",
"173 59 OFFCURVE",
"138 97 OFFCURVE",
"139 174 CURVE SMOOTH",
"144 461 LINE",
"64 454 LINE",
"65 237 LINE",
"63 165 LINE SMOOTH",
"61 55 OFFCURVE",
"124 -6 OFFCURVE",
"238 -6 CURVE SMOOTH"
);
}
);
width = 478;
}
);
leftKerningGroup = upsilon;
rightKerningGroup = upsilon;
unicode = 03C5;
},
{
color = 1;
glyphname = phi;
layers = (
{
layerId = "7C736124-E567-4D27-84C2-A192D2C2BC4A";
paths = (
{
closed = 1;
nodes = (
"434 -12 OFFCURVE",
"546 86 OFFCURVE",
"546 226 CURVE SMOOTH",
"546 365 OFFCURVE",
"437 464 OFFCURVE",
"288 464 CURVE SMOOTH",
"138 464 OFFCURVE",
"26 366 OFFCURVE",
"26 225 CURVE SMOOTH",
"26 87 OFFCURVE",
"134 -12 OFFCURVE",
"283 -12 CURVE SMOOTH"
);
},
{
closed = 1;
nodes = (
"314 -230 LINE",
"305 9 OFFCURVE",
"312 396 OFFCURVE",
"331 634 CURVE",
"312 644 OFFCURVE",
"294 649 OFFCURVE",
"272 652 CURVE",
"273 641 LINE",
"256 -223 LINE",
"272 -231 OFFCURVE",
"280 -236 OFFCURVE",
"306 -241 CURVE"
);
},
{
closed = 1;
nodes = (
"150 35 OFFCURVE",
"79 85 OFFCURVE",
"79 184 CURVE SMOOTH",
"79 313 OFFCURVE",
"180 419 OFFCURVE",
"312 419 CURVE SMOOTH",
"421 419 OFFCURVE",
"493 358 OFFCURVE",
"493 264 CURVE SMOOTH",
"493 127 OFFCURVE",
"397 35 OFFCURVE",
"260 35 CURVE SMOOTH"
);
}
);
width = 572;
}
);
leftKerningGroup = o;
rightKerningGroup = o;
unicode = 03C6;
},
{
color = 1;
glyphname = chi;
layers = (
{
layerId = "7C736124-E567-4D27-84C2-A192D2C2BC4A";
paths = (
{
closed = 1;
nodes = (
"342 -232 OFFCURVE",
"334 -111 OFFCURVE",
"269 132 CURVE SMOOTH",
"245 241 LINE SMOOTH",
"197 386 OFFCURVE",
"144 457 OFFCURVE",
"61 457 CURVE",
"36 435 OFFCURVE",
"18 395 OFFCURVE",
"17 350 CURVE",
"15 351 LINE",
"150 397 OFFCURVE",
"164 388 OFFCURVE",
"210 219 CURVE SMOOTH",
"233 124 LINE SMOOTH",
"312 -192 OFFCURVE",
"341 -240 OFFCURVE",
"443 -240 CURVE",
"486 -219 OFFCURVE",
"513 -167 OFFCURVE",
"521 -123 CURVE",
"510 -120 LINE"
);
},
{
closed = 1;
nodes = (
"170 -21 OFFCURVE",
"287 176 OFFCURVE",
"412 344 CURVE",
"458 402 LINE",
"459 417 LINE",
"452 432 OFFCURVE",
"439 450 OFFCURVE",
"421 453 CURVE",
"281 258 OFFCURVE",
"138 36 OFFCURVE",
"11 -189 CURVE",
"11 -212 OFFCURVE",
"29 -227 OFFCURVE",
"43 -239 CURVE",
"51 -241 LINE"
);
}
);
width = 519;
}
);
leftKerningGroup = chi;
rightKerningGroup = chi;
unicode = 03C7;
},
{
color = 1;
glyphname = psi;
layers = (
{
layerId = "7C736124-E567-4D27-84C2-A192D2C2BC4A";
paths = (
{
closed = 1;
nodes = (
"485 -13 OFFCURVE",
"583 158 OFFCURVE",
"518 395 CURVE",
"497 415 OFFCURVE",
"463 440 OFFCURVE",
"430 456 CURVE",
"415 454 LINE",
"441 415 OFFCURVE",
"471 373 OFFCURVE",
"495 317 CURVE",
"506 144 OFFCURVE",
"423 51 OFFCURVE",
"289 51 CURVE SMOOTH",
"179 51 OFFCURVE",
"113 111 OFFCURVE",
"127 188 CURVE SMOOTH",
"146 293 LINE SMOOTH",
"162 390 OFFCURVE",
"131 457 OFFCURVE",
"61 449 CURVE",
"26 437 OFFCURVE",
"11 406 OFFCURVE",
"-2 370 CURVE",
"3 370 LINE",
"88 390 OFFCURVE",
"129 370 OFFCURVE",
"119 307 CURVE SMOOTH",
"88 136 LINE SMOOTH",
"74 45 OFFCURVE",
"151 -13 OFFCURVE",
"274 -13 CURVE SMOOTH"
);
},
{
closed = 1;
nodes = (
"323 -230 LINE",
"322 9 OFFCURVE",
"321 396 OFFCURVE",
"340 634 CURVE",
"329 644 OFFCURVE",
"311 649 OFFCURVE",
"289 652 CURVE",
"282 641 LINE",
"265 -223 LINE",
"281 -231 OFFCURVE",
"297 -236 OFFCURVE",
"323 -241 CURVE"
);
}
);
width = 580;
}
);
leftKerningGroup = upsilon;
rightKerningGroup = upsilon;
unicode = 03C8;
},
{
color = 1;
glyphname = omega;
layers = (
{
anchors = (
{
name = bottom;
position = "{318, 0}";
},
{
name = top;
position = "{335, 444}";
}
);
layerId = "7C736124-E567-4D27-84C2-A192D2C2BC4A";
paths = (
{
closed = 1;
nodes = (
"160 448 LINE",
"86 390 OFFCURVE",
"54 299 OFFCURVE",
"54 190 CURVE SMOOTH",
"54 76 OFFCURVE",
"95 -7 OFFCURVE",
"175 -7 CURVE SMOOTH",
"239 -7 OFFCURVE",
"298 55 OFFCURVE",
"328 123 CURVE",
"319 116 LINE",
"343 54 OFFCURVE",
"419 -12 OFFCURVE",
"462 -12 CURVE SMOOTH",
"536 -12 OFFCURVE",
"593 99 OFFCURVE",
"593 232 CURVE SMOOTH",
"593 328 OFFCURVE",
"565 409 OFFCURVE",
"508 458 CURVE",
"499 458 LINE",
"470 426 LINE",
"465 416 LINE",
"516 353 OFFCURVE",
"542 289 OFFCURVE",
"560 222 CURVE",
"560 108 OFFCURVE",
"513 58 OFFCURVE",
"433 58 CURVE SMOOTH",
"375 58 OFFCURVE",
"345 77 OFFCURVE",
"326 120 CURVE",
"353 176 OFFCURVE",
"358 235 OFFCURVE",
"340 303 CURVE",
"332 314 OFFCURVE",
"319 327 OFFCURVE",
"306 344 CURVE",
"296 330 LINE",
"278 277 OFFCURVE",
"282 203 OFFCURVE",
"304 143 CURVE",
"282 93 OFFCURVE",
"251 61 OFFCURVE",
"183 61 CURVE SMOOTH",
"119 61 OFFCURVE",
"81 102 OFFCURVE",
"81 166 CURVE SMOOTH",
"81 258 OFFCURVE",
"126 358 OFFCURVE",
"219 423 CURVE",
"201 440 OFFCURVE",
"191 452 OFFCURVE",
"174 452 CURVE"
);
}
);
width = 652;
}
);
leftKerningGroup = omega;
rightKerningGroup = omega;
unicode = 03C9;
},
{
color = 1;
glyphname = prosgegrammeni;
layers = (
{
anchors = (
{
name = top;
position = "{124, 384}";
}
);
layerId = "7C736124-E567-4D27-84C2-A192D2C2BC4A";
paths = (
{
closed = 1;
nodes = (
"208 4 OFFCURVE",
"220 32 OFFCURVE",
"229 61 CURVE",
"223 72 LINE",
"147 54 OFFCURVE",
"119 68 OFFCURVE",
"125 127 CURVE SMOOTH",
"147 378 LINE",
"129 389 OFFCURVE",
"113 395 OFFCURVE",
"83 389 CURVE",
"82 391 LINE",
"86 116 LINE SMOOTH",
"79 34 OFFCURVE",
"113 -8 OFFCURVE",
"177 -8 CURVE"
);
}
);
width = 266;
}
);
unicode = 1FBE;
},
{
color = 1;
glyphname = gamma_gamma;
layers = (
{
layerId = "7C736124-E567-4D27-84C2-A192D2C2BC4A";
paths = (
{
closed = 1;
nodes = (
"624 -213 LINE",
"627 -8 OFFCURVE",
"620 91 OFFCURVE",
"606 219 CURVE SMOOTH",
"577 385 OFFCURVE",
"530 458 OFFCURVE",
"451 458 CURVE",
"418 451 LINE",
"389 437 LINE",
"343 337 OFFCURVE",
"286 220 OFFCURVE",
"243 109 CURVE",
"218 110 LINE",
"217 -29 LINE",
"281 103 OFFCURVE",
"349 228 OFFCURVE",
"428 356 CURVE",
"515 392 OFFCURVE",
"546 365 OFFCURVE",
"569 212 CURVE SMOOTH",
"573 136 OFFCURVE",
"586 87 OFFCURVE",
"580 16 CURVE",
"545 -85 OFFCURVE",
"538 -107 OFFCURVE",
"530 -198 CURVE",
"563 -234 LINE",
"580 -236 LINE"
);
},
{
closed = 1;
nodes = (
"240 -213 LINE",
"243 -8 OFFCURVE",
"236 91 OFFCURVE",
"222 219 CURVE SMOOTH",
"193 385 OFFCURVE",
"146 458 OFFCURVE",
"67 458 CURVE",
"34 437 OFFCURVE",
"18 407 OFFCURVE",
"18 355 CURVE",
"24 349 LINE",
"128 395 OFFCURVE",
"152 375 OFFCURVE",
"177 212 CURVE SMOOTH",
"190 128 OFFCURVE",
"203 83 OFFCURVE",
"205 -11 CURVE",
"210 31 LINE",
"154 -80 OFFCURVE",
"155 -98 OFFCURVE",
"146 -198 CURVE",
"179 -234 LINE",
"188 -236 LINE"
);
},
{
closed = 1;
nodes = (
"665 110 OFFCURVE",
"741 249 OFFCURVE",
"837 390 CURVE",
"828 420 OFFCURVE",
"821 436 OFFCURVE",
"807 452 CURVE",
"791 452 LINE",
"733 353 OFFCURVE",
"681 236 OFFCURVE",
"627 109 CURVE",
"602 110 LINE",
"601 -29 LINE"
);
}
);
width = 857;
}
);
leftKerningGroup = gamma;
leftMetricsKey = gamma;
rightKerningGroup = gamma;
rightMetricsKey = gamma;
},
{
color = 1;
glyphname = lambda_lambda;
layers = (
{
layerId = "7C736124-E567-4D27-84C2-A192D2C2BC4A";
paths = (
{
closed = 1;
nodes = (
"524 358 OFFCURVE",
"470 230 OFFCURVE",
"400 72 CURVE",
"358 64 OFFCURVE",
"346 82 OFFCURVE",
"328 145 CURVE SMOOTH",
"206 574 LINE SMOOTH",
"174 678 OFFCURVE",
"121 738 OFFCURVE",
"61 738 CURVE",
"18 727 OFFCURVE",
"-4 698 OFFCURVE",
"-3 646 CURVE",
"5 645 LINE",
"125 687 OFFCURVE",
"135 679 OFFCURVE",
"166 558 CURVE SMOOTH",
"302 99 LINE SMOOTH",
"325 16 OFFCURVE",
"339 -5 OFFCURVE",
"404 -7 CURVE SMOOTH",
"418 -8 LINE",
"444 20 LINE",
"488 118 OFFCURVE",
"530 236 OFFCURVE",
"576 373 CURVE",
"611 373 LINE",
"569 466 LINE"
);
},
{
closed = 1;
nodes = (
"83 -6 LINE",
"115 100 OFFCURVE",
"167 215 OFFCURVE",
"218 373 CURVE",
"245 373 LINE",
"211 466 LINE",
"159 342 OFFCURVE",
"96 203 OFFCURVE",
"11 12 CURVE",
"16 4 LINE",
"75 -10 LINE"
);
},
{
closed = 1;
nodes = (
"789 6 OFFCURVE",
"811 40 OFFCURVE",
"816 85 CURVE",
"808 87 LINE",
"723 48 OFFCURVE",
"709 55 OFFCURVE",
"686 145 CURVE SMOOTH",
"564 574 LINE SMOOTH",
"532 678 OFFCURVE",
"479 738 OFFCURVE",
"419 738 CURVE",
"376 727 OFFCURVE",
"354 698 OFFCURVE",
"355 646 CURVE",
"363 645 LINE",
"475 687 OFFCURVE",
"493 679 OFFCURVE",
"524 558 CURVE SMOOTH",
"660 99 LINE SMOOTH",
"683 16 OFFCURVE",
"705 -7 OFFCURVE",
"754 -7 CURVE"
);
}
);
width = 806;
}
);
leftKerningGroup = lambda;
leftMetricsKey = lambda;
rightKerningGroup = lambda;
rightMetricsKey = lambda;
},
{
color = 1;
glyphname = gamma.sc;
layers = (
{
layerId = "7C736124-E567-4D27-84C2-A192D2C2BC4A";
paths = (
{
closed = 1;
nodes = (
"94 -3 OFFCURVE",
"137 0 OFFCURVE",
"156 0 CURVE SMOOTH",
"178 0 OFFCURVE",
"211 -2 OFFCURVE",
"265 -3 CURVE",
"272 33 LINE",
"269 38 LINE",
"252 37 OFFCURVE",
"233 35 OFFCURVE",
"221 35 CURVE SMOOTH",
"184 35 OFFCURVE",
"185 46 OFFCURVE",
"185 87 CURVE",
"188 429 LINE",
"189 456 OFFCURVE",
"200 466 OFFCURVE",
"256 466 CURVE SMOOTH",
"357 466 OFFCURVE",
"358 461 OFFCURVE",
"358 399 CURVE SMOOTH",
"358 380 OFFCURVE",
"366 377 OFFCURVE",
"364 348 CURVE",
"396 352 LINE",
"392 407 OFFCURVE",
"398 456 OFFCURVE",
"407 502 CURVE",
"412 508 LINE",
"366 501 OFFCURVE",
"312 498 OFFCURVE",
"185 498 CURVE SMOOTH",
"147 498 OFFCURVE",
"108 500 OFFCURVE",
"78 500 CURVE",
"72 470 LINE",
"74 465 LINE",
"87 466 OFFCURVE",
"96 467 OFFCURVE",
"101 467 CURVE SMOOTH",
"125 467 OFFCURVE",
"139 459 OFFCURVE",
"139 425 CURVE SMOOTH",
"138 92 LINE SMOOTH",
"138 48 OFFCURVE",
"125 34 OFFCURVE",
"67 25 CURVE",
"62 -9 LINE"
);
}
);
width = 417;
}
);
leftKerningGroup = H;
rightKerningGroup = Gamma;
userData = {
RMXScaler = {
source = Gamma;
};
};
},
{
color = 1;
glyphname = delta.sc;
layers = (
{
layerId = "7C736124-E567-4D27-84C2-A192D2C2BC4A";
paths = (
{
closed = 1;
nodes = (
"406 0 LINE",
"412 5 LINE",
"352 190 OFFCURVE",
"254 521 OFFCURVE",
"257 508 CURVE",
"251 508 LINE",
"219 494 LINE",
"20 10 LINE",
"28 0 LINE"
);
},
{
closed = 1;
nodes = (
"78 41 LINE",
"75 45 LINE",
"223 424 LINE",
"222 424 LINE",
"346 50 LINE",
"340 41 LINE",
"211 38 LINE"
);
}
);
width = 457;
}
);
leftKerningGroup = A;
rightKerningGroup = A;
userData = {
RMXScaler = {
source = Delta;
};
};
},
{
color = 1;
glyphname = theta.sc;
layers = (
{
layerId = "7C736124-E567-4D27-84C2-A192D2C2BC4A";
paths = (
{
closed = 1;
nodes = (
"426 -9 OFFCURVE",
"544 116 OFFCURVE",
"544 266 CURVE SMOOTH",
"544 411 OFFCURVE",
"450 507 OFFCURVE",
"319 507 CURVE SMOOTH",
"165 507 OFFCURVE",
"49 382 OFFCURVE",
"49 233 CURVE SMOOTH",
"49 88 OFFCURVE",
"141 -9 OFFCURVE",
"270 -9 CURVE SMOOTH"
);
},
{
closed = 1;
nodes = (
"191 22 OFFCURVE",
"113 126 OFFCURVE",
"113 260 CURVE SMOOTH",
"113 375 OFFCURVE",
"178 468 OFFCURVE",
"284 468 CURVE SMOOTH",
"406 468 OFFCURVE",
"478 365 OFFCURVE",
"478 239 CURVE SMOOTH",
"478 115 OFFCURVE",
"410 22 OFFCURVE",
"302 22 CURVE SMOOTH"
);
},
{
closed = 1;
nodes = (
"203 215 OFFCURVE",
"255 227 OFFCURVE",
"279 227 CURVE SMOOTH",
"323 227 OFFCURVE",
"391 225 OFFCURVE",
"425 224 CURVE",
"438 281 LINE",
"433 278 LINE",
"396 273 OFFCURVE",
"336 268 OFFCURVE",
"312 268 CURVE SMOOTH",
"269 268 OFFCURVE",
"208 271 OFFCURVE",
"166 271 CURVE",
"153 223 LINE",
"158 217 LINE"
);
}
);
width = 593;
}
);
leftKerningGroup = O;
rightKerningGroup = O;
userData = {
RMXScaler = {
source = Theta;
};
};
},
{
color = 1;
glyphname = lambda.sc;
layers = (
{
layerId = "7C736124-E567-4D27-84C2-A192D2C2BC4A";
paths = (
{
closed = 1;
nodes = (
"284 -7 OFFCURVE",
"338 0 OFFCURVE",
"403 0 CURVE SMOOTH",
"425 0 OFFCURVE",
"485 -2 OFFCURVE",
"485 -2 CURVE",
"491 27 LINE",
"489 30 LINE",
"436 34 OFFCURVE",
"418 47 OFFCURVE",
"405 85 CURVE SMOOTH",
"342 270 OFFCURVE",
"271 506 OFFCURVE",
"271 506 CURVE",
"272 507 LINE",
"240 494 LINE",
"76 97 LINE",
"51 48 OFFCURVE",
"36 35 OFFCURVE",
"6 32 CURVE",
"0 -2 LINE",
"0 -2 OFFCURVE",
"44 0 OFFCURVE",
"84 0 CURVE SMOOTH",
"138 0 OFFCURVE",
"200 -5 OFFCURVE",
"200 -5 CURVE",
"205 26 LINE",
"203 29 LINE",
"151 29 LINE",
"118 29 OFFCURVE",
"105 38 OFFCURVE",
"105 59 CURVE SMOOTH",
"105 65 OFFCURVE",
"107 74 OFFCURVE",
"111 95 CURVE SMOOTH",
"236 421 LINE",
"244 421 LINE",
"349 89 LINE",
"353 76 OFFCURVE",
"355 65 OFFCURVE",
"355 56 CURVE SMOOTH",
"355 37 OFFCURVE",
"341 31 OFFCURVE",
"285 27 CURVE",
"281 -2 LINE",
"284 -7 LINE"
);
}
);
width = 494;
}
);
leftKerningGroup = A;
rightKerningGroup = A;
userData = {
RMXScaler = {
source = Lambda;
};
};
},
{
color = 1;
glyphname = xi.sc;
layers = (
{
layerId = "7C736124-E567-4D27-84C2-A192D2C2BC4A";
paths = (
{
closed = 1;
nodes = (
"91 382 LINE",
"109 447 OFFCURVE",
"122 455 OFFCURVE",
"202 455 CURVE SMOOTH",
"337 455 LINE SMOOTH",
"388 455 OFFCURVE",
"404 445 OFFCURVE",
"392 378 CURVE",
"434 381 LINE",
"428 413 OFFCURVE",
"443 468 OFFCURVE",
"454 502 CURVE",
"442 508 LINE",
"411 500 OFFCURVE",
"361 498 OFFCURVE",
"242 499 CURVE SMOOTH",
"88 501 LINE",
"75 490 LINE",
"73 465 OFFCURVE",
"61 428 OFFCURVE",
"62 378 CURVE"
);
},
{
closed = 1;
nodes = (
"244 1 LINE",
"435 -2 LINE",
"440 10 LINE",
"451 57 OFFCURVE",
"455 92 OFFCURVE",
"459 119 CURVE",
"456 123 LINE",
"431 119 LINE",
"414 54 OFFCURVE",
"400 45 OFFCURVE",
"322 45 CURVE SMOOTH",
"188 45 LINE SMOOTH",
"102 45 OFFCURVE",
"94 55 OFFCURVE",
"70 123 CURVE",
"47 118 LINE",
"44 113 LINE",
"49 98 OFFCURVE",
"52 67 OFFCURVE",
"54 10 CURVE",
"66 -2 LINE"
);
},
{
closed = 1;
nodes = (
"158 225 OFFCURVE",
"215 229 OFFCURVE",
"240 229 CURVE SMOOTH",
"271 229 OFFCURVE",
"336 227 OFFCURVE",
"372 226 CURVE",
"386 287 LINE",
"380 285 LINE",
"341 279 OFFCURVE",
"284 275 OFFCURVE",
"266 275 CURVE SMOOTH",
"227 275 OFFCURVE",
"163 277 OFFCURVE",
"127 278 CURVE",
"113 225 LINE",
"118 219 LINE"
);
}
);
width = 507;
}
);
leftKerningGroup = Xi;
rightKerningGroup = E;
userData = {
RMXScaler = {
source = Xi;
};
};
},
{
color = 1;
glyphname = pi.sc;
layers = (
{
layerId = "7C736124-E567-4D27-84C2-A192D2C2BC4A";
paths = (
{
closed = 1;
nodes = (
"96 -4 OFFCURVE",
"129 0 OFFCURVE",
"153 0 CURVE SMOOTH",
"180 0 OFFCURVE",
"232 -2 OFFCURVE",
"256 -2 CURVE",
"263 30 LINE",
"261 34 LINE",
"252 33 OFFCURVE",
"234 32 OFFCURVE",
"220 32 CURVE SMOOTH",
"192 32 OFFCURVE",
"177 43 OFFCURVE",
"177 85 CURVE SMOOTH",
"177 141 OFFCURVE",
"181 300 OFFCURVE",
"196 427 CURVE SMOOTH",
"198 457 OFFCURVE",
"216 464 OFFCURVE",
"261 464 CURVE",
"390 464 LINE",
"417 464 OFFCURVE",
"430 457 OFFCURVE",
"430 424 CURVE SMOOTH",
"429 88 LINE SMOOTH",
"429 48 OFFCURVE",
"415 35 OFFCURVE",
"367 31 CURVE",
"362 0 LINE",
"444 0 LINE",
"479 0 OFFCURVE",
"523 -2 OFFCURVE",
"555 -2 CURVE",
"555 30 LINE",
"552 34 LINE",
"543 33 OFFCURVE",
"533 32 OFFCURVE",
"511 32 CURVE SMOOTH",
"483 32 OFFCURVE",
"476 43 OFFCURVE",
"476 85 CURVE SMOOTH",
"476 152 OFFCURVE",
"481 307 OFFCURVE",
"487 428 CURVE SMOOTH",
"489 458 OFFCURVE",
"500 466 OFFCURVE",
"545 472 CURVE",
"548 505 LINE",
"515 501 OFFCURVE",
"484 498 OFFCURVE",
"456 498 CURVE SMOOTH",
"165 498 LINE SMOOTH",
"146 498 OFFCURVE",
"101 499 OFFCURVE",
"71 500 CURVE",
"66 470 LINE",
"68 465 LINE",
"82 466 OFFCURVE",
"94 467 OFFCURVE",
"101 467 CURVE SMOOTH",
"124 467 OFFCURVE",
"139 458 OFFCURVE",
"139 425 CURVE SMOOTH",
"130 90 LINE SMOOTH",
"130 47 OFFCURVE",
"117 34 OFFCURVE",
"66 24 CURVE",
"61 -8 LINE"
);
}
);
width = 619;
}
);
leftKerningGroup = H;
rightKerningGroup = H;
userData = {
RMXScaler = {
source = Pi;
};
};
},
{
color = 1;
glyphname = sigma.sc;
layers = (
{
layerId = "7C736124-E567-4D27-84C2-A192D2C2BC4A";
paths = (
{
closed = 1;
nodes = (
"107 2 LINE",
"381 -2 LINE",
"386 11 LINE",
"388 52 OFFCURVE",
"403 116 OFFCURVE",
"412 157 CURVE",
"409 160 LINE",
"374 156 LINE",
"357 65 OFFCURVE",
"341 50 OFFCURVE",
"259 50 CURVE",
"91 50 LINE",
"268 245 LINE",
"269 265 LINE",
"113 460 LINE",
"245 460 LINE SMOOTH",
"316 460 OFFCURVE",
"350 435 OFFCURVE",
"358 362 CURVE",
"385 369 LINE",
"380 409 OFFCURVE",
"377 464 OFFCURVE",
"376 500 CURVE",
"368 508 LINE",
"321 503 OFFCURVE",
"264 500 OFFCURVE",
"223 499 CURVE",
"48 494 LINE",
"38 465 LINE",
"224 236 LINE",
"26 26 LINE",
"39 -3 LINE"
);
}
);
width = 478;
}
);
leftKerningGroup = X;
rightKerningGroup = E;
userData = {
RMXScaler = {
source = Sigma;
};
};
},
{
color = 1;
glyphname = upsilon.sc;
layers = (
{
anchors = (
{
name = top;
position = "{228, 497}";
}
);
layerId = "7C736124-E567-4D27-84C2-A192D2C2BC4A";
paths = (
{
closed = 1;
nodes = (
"234 267 LINE",
"197 453 OFFCURVE",
"118 528 OFFCURVE",
"-7 488 CURVE",
"-18 472 LINE",
"-16 467 LINE",
"115 467 OFFCURVE",
"198 334 OFFCURVE",
"198 142 CURVE"
);
},
{
closed = 1;
nodes = (
"145 -3 OFFCURVE",
"184 0 OFFCURVE",
"221 0 CURVE SMOOTH",
"238 0 OFFCURVE",
"281 -2 OFFCURVE",
"316 -3 CURVE",
"324 31 LINE",
"322 35 LINE",
"312 34 OFFCURVE",
"293 32 OFFCURVE",
"282 32 CURVE SMOOTH",
"253 32 OFFCURVE",
"244 44 OFFCURVE",
"245 92 CURVE SMOOTH",
"248 272 LINE",
"198 272 LINE",
"198 106 LINE SMOOTH",
"198 46 OFFCURVE",
"188 34 OFFCURVE",
"139 29 CURVE",
"134 -5 LINE"
);
},
{
closed = 1;
nodes = (
"246 323 OFFCURVE",
"352 491 OFFCURVE",
"471 467 CURVE",
"465 474 LINE",
"443 498 LINE",
"343 522 OFFCURVE",
"276 432 OFFCURVE",
"233 260 CURVE",
"245 115 LINE"
);
}
);
width = 455;
}
);
leftKerningGroup = Y;
rightKerningGroup = Y;
userData = {
RMXScaler = {
source = Upsilon;
};
};
},
{
color = 1;
glyphname = phi.sc;
layers = (
{
layerId = "7C736124-E567-4D27-84C2-A192D2C2BC4A";
paths = (
{
closed = 1;
nodes = (
"208 -4 OFFCURVE",
"249 0 OFFCURVE",
"274 0 CURVE SMOOTH",
"301 0 OFFCURVE",
"345 -2 OFFCURVE",
"377 -2 CURVE",
"384 27 LINE",
"382 31 LINE",
"372 30 OFFCURVE",
"354 29 OFFCURVE",
"332 29 CURVE SMOOTH",
"304 29 OFFCURVE",
"296 36 OFFCURVE",
"296 77 CURVE SMOOTH",
"296 129 OFFCURVE",
"301 296 OFFCURVE",
"307 440 CURVE SMOOTH",
"308 463 OFFCURVE",
"330 471 OFFCURVE",
"374 475 CURVE",
"378 505 LINE",
"337 501 OFFCURVE",
"305 498 OFFCURVE",
"286 498 CURVE SMOOTH",
"267 498 OFFCURVE",
"214 499 OFFCURVE",
"192 500 CURVE",
"186 465 LINE",
"189 469 LINE",
"203 461 OFFCURVE",
"216 462 OFFCURVE",
"221 462 CURVE SMOOTH",
"245 462 OFFCURVE",
"254 463 OFFCURVE",
"254 429 CURVE SMOOTH",
"253 75 LINE SMOOTH",
"252 39 OFFCURVE",
"240 30 OFFCURVE",
"187 21 CURVE",
"182 -8 LINE"
);
},
{
closed = 1;
nodes = (
"281 95 LINE",
"281 129 LINE",
"260 129 LINE SMOOTH",
"153 129 OFFCURVE",
"100 175 OFFCURVE",
"100 262 CURVE SMOOTH",
"100 338 OFFCURVE",
"158 378 OFFCURVE",
"252 378 CURVE SMOOTH",
"281 378 LINE",
"281 412 LINE",
"272 412 LINE SMOOTH",
"139 412 OFFCURVE",
"49 343 OFFCURVE",
"49 233 CURVE SMOOTH",
"49 150 OFFCURVE",
"112 95 OFFCURVE",
"231 95 CURVE"
);
},
{
closed = 1;
nodes = (
"280 95 LINE SMOOTH",
"413 95 OFFCURVE",
"511 163 OFFCURVE",
"511 273 CURVE SMOOTH",
"511 357 OFFCURVE",
"440 412 OFFCURVE",
"321 412 CURVE",
"272 412 LINE",
"272 378 LINE",
"301 378 LINE SMOOTH",
"399 378 OFFCURVE",
"460 323 OFFCURVE",
"460 245 CURVE SMOOTH",
"460 168 OFFCURVE",
"403 129 OFFCURVE",
"309 129 CURVE SMOOTH",
"272 129 LINE",
"272 95 LINE"
);
}
);
width = 552;
}
);
leftKerningGroup = O;
rightKerningGroup = O;
userData = {
RMXScaler = {
source = Phi;
};
};
},
{
color = 1;
glyphname = psi.sc;
layers = (
{
layerId = "7C736124-E567-4D27-84C2-A192D2C2BC4A";
paths = (
{
closed = 1;
nodes = (
"229 -4 OFFCURVE",
"270 0 OFFCURVE",
"287 0 CURVE SMOOTH",
"315 0 OFFCURVE",
"367 -2 OFFCURVE",
"399 -2 CURVE",
"406 30 LINE",
"404 34 LINE",
"394 33 OFFCURVE",
"376 32 OFFCURVE",
"362 32 CURVE SMOOTH",
"326 32 OFFCURVE",
"319 43 OFFCURVE",
"319 85 CURVE SMOOTH",
"319 146 OFFCURVE",
"324 311 OFFCURVE",
"330 428 CURVE SMOOTH",
"332 458 OFFCURVE",
"351 466 OFFCURVE",
"395 472 CURVE",
"399 505 LINE",
"370 501 OFFCURVE",
"329 498 OFFCURVE",
"307 498 CURVE SMOOTH",
"280 498 OFFCURVE",
"235 499 OFFCURVE",
"213 500 CURVE",
"208 470 LINE",
"210 465 LINE",
"220 466 OFFCURVE",
"235 467 OFFCURVE",
"243 467 CURVE SMOOTH",
"266 467 OFFCURVE",
"273 458 OFFCURVE",
"272 425 CURVE SMOOTH",
"272 91 LINE SMOOTH",
"272 47 OFFCURVE",
"258 33 OFFCURVE",
"207 24 CURVE",
"202 -8 LINE"
);
},
{
closed = 1;
nodes = (
"285 247 LINE",
"182 248 OFFCURVE",
"152 296 OFFCURVE",
"114 471 CURVE",
"104 478 LINE",
"23 460 LINE",
"27 432 LINE",
"71 439 OFFCURVE",
"67 428 OFFCURVE",
"74 396 CURVE SMOOTH",
"117 243 OFFCURVE",
"154 221 OFFCURVE",
"285 221 CURVE"
);
},
{
closed = 1;
nodes = (
"431 221 OFFCURVE",
"479 250 OFFCURVE",
"513 372 CURVE SMOOTH",
"525 426 OFFCURVE",
"533 439 OFFCURVE",
"571 433 CURVE",
"574 460 LINE",
"494 478 LINE",
"484 471 LINE",
"446 296 OFFCURVE",
"416 248 OFFCURVE",
"313 247 CURVE",
"313 221 LINE"
);
}
);
width = 594;
}
);
leftKerningGroup = Y;
rightKerningGroup = Y;
userData = {
RMXScaler = {
source = Psi;
};
};
},
{
color = 1;
glyphname = omega.sc;
layers = (
{
anchors = (
{
name = bottom;
position = "{345, 0}";
},
{
name = top;
position = "{344, 497}";
}
);
layerId = "7C736124-E567-4D27-84C2-A192D2C2BC4A";
paths = (
{
closed = 1;
nodes = (
"292 0 LINE",
"298 7 LINE",
"288 46 LINE",
"203 92 OFFCURVE",
"159 182 OFFCURVE",
"159 276 CURVE SMOOTH",
"159 386 OFFCURVE",
"230 467 OFFCURVE",
"334 467 CURVE SMOOTH",
"447 467 OFFCURVE",
"516 384 OFFCURVE",
"516 266 CURVE SMOOTH",
"516 182 OFFCURVE",
"481 105 OFFCURVE",
"393 39 CURVE",
"375 8 LINE",
"380 1 LINE",
"608 -4 LINE",
"622 9 LINE",
"623 36 OFFCURVE",
"629 87 OFFCURVE",
"637 125 CURVE",
"611 121 LINE",
"591 55 OFFCURVE",
"582 39 OFFCURVE",
"526 39 CURVE",
"430 39 LINE",
"430 47 LINE",
"524 106 OFFCURVE",
"579 190 OFFCURVE",
"579 286 CURVE SMOOTH",
"579 413 OFFCURVE",
"484 508 OFFCURVE",
"354 508 CURVE SMOOTH",
"216 508 OFFCURVE",
"99 404 OFFCURVE",
"99 276 CURVE SMOOTH",
"99 190 OFFCURVE",
"149 103 OFFCURVE",
"241 47 CURVE",
"241 39 LINE",
"154 39 LINE",
"105 39 OFFCURVE",
"89 64 OFFCURVE",
"77 124 CURVE",
"44 121 LINE",
"59 77 OFFCURVE",
"64 37 OFFCURVE",
"58 9 CURVE",
"80 -4 LINE"
);
}
);
width = 681;
}
);
leftKerningGroup = Omega;
rightKerningGroup = Omega;
userData = {
RMXScaler = {
source = Omega;
};
};
},
{
color = 1;
glyphname = zero;
layers = (
{
layerId = "7C736124-E567-4D27-84C2-A192D2C2BC4A";
paths = (
{
closed = 1;
nodes = (
"135 505 OFFCURVE",
"46 410 OFFCURVE",
"46 242 CURVE SMOOTH",
"46 83 OFFCURVE",
"123 -7 OFFCURVE",
"259 -7 CURVE SMOOTH",
"410 -7 OFFCURVE",
"490 87 OFFCURVE",
"490 253 CURVE SMOOTH",
"490 415 OFFCURVE",
"405 505 OFFCURVE",
"278 505 CURVE SMOOTH"
);
},
{
closed = 1;
nodes = (
"362 427 OFFCURVE",
"423 365 OFFCURVE",
"423 243 CURVE SMOOTH",
"423 128 OFFCURVE",
"363 68 OFFCURVE",
"264 68 CURVE SMOOTH",
"164 68 OFFCURVE",
"113 129 OFFCURVE",
"113 248 CURVE SMOOTH",
"113 367 OFFCURVE",
"164 427 OFFCURVE",
"263 427 CURVE SMOOTH"
);
}
);
width = 527;
}
);
unicode = 0030;
},
{
color = 1;
glyphname = one;
layers = (
{
layerId = "7C736124-E567-4D27-84C2-A192D2C2BC4A";
paths = (
{
closed = 1;
nodes = (
"11 442 LINE",
"11 375 LINE",
"19 370 LINE",
"146 406 LINE",
"155 197 LINE",
"134 0 LINE",
"228 0 LINE",
"207 207 LINE",
"237 494 LINE",
"216 503 LINE"
);
}
);
width = 346;
}
);
unicode = 0031;
},
{
color = 1;
glyphname = two;
layers = (
{
layerId = "7C736124-E567-4D27-84C2-A192D2C2BC4A";
paths = (
{
closed = 1;
nodes = (
"192 503 OFFCURVE",
"130 474 OFFCURVE",
"78 429 CURVE",
"92 363 LINE",
"94 363 LINE",
"133 405 OFFCURVE",
"191 430 OFFCURVE",
"238 430 CURVE SMOOTH",
"286 430 OFFCURVE",
"312 404 OFFCURVE",
"312 370 CURVE SMOOTH",
"312 329 OFFCURVE",
"301 295 OFFCURVE",
"209 213 CURVE SMOOTH",
"46 55 LINE",
"46 2 LINE",
"51 -2 LINE",
"88 0 LINE",
"313 0 LINE",
"417 -4 LINE",
"428 91 LINE",
"422 97 LINE",
"329 66 LINE",
"158 66 LINE",
"156 70 LINE",
"270 174 LINE SMOOTH",
"358 290 OFFCURVE",
"395 336 OFFCURVE",
"395 391 CURVE SMOOTH",
"395 459 OFFCURVE",
"328 503 OFFCURVE",
"256 503 CURVE SMOOTH"
);
}
);
width = 457;
}
);
unicode = 0032;
},
{
color = 1;
glyphname = three;
layers = (
{
layerId = "7C736124-E567-4D27-84C2-A192D2C2BC4A";
paths = (
{
closed = 1;
nodes = (
"127 504 OFFCURVE",
"82 484 OFFCURVE",
"30 442 CURVE",
"43 319 LINE",
"44 319 LINE",
"95 389 OFFCURVE",
"125 434 OFFCURVE",
"176 434 CURVE SMOOTH",
"211 434 OFFCURVE",
"253 405 OFFCURVE",
"253 358 CURVE SMOOTH",
"253 293 OFFCURVE",
"196 248 OFFCURVE",
"135 248 CURVE SMOOTH",
"91 247 LINE",
"97 188 LINE",
"102 182 LINE",
"154 182 LINE",
"235 179 OFFCURVE",
"279 143 OFFCURVE",
"279 82 CURVE SMOOTH",
"279 13 OFFCURVE",
"213 -31 OFFCURVE",
"175 -31 CURVE SMOOTH",
"100 -31 OFFCURVE",
"73 0 OFFCURVE",
"31 71 CURVE",
"33 65 LINE",
"38 -88 LINE",
"60 -93 OFFCURVE",
"98 -97 OFFCURVE",
"146 -97 CURVE SMOOTH",
"275 -97 OFFCURVE",
"368 20 OFFCURVE",
"368 197 CURVE SMOOTH",
"368 200 OFFCURVE",
"326 221 OFFCURVE",
"239 224 CURVE",
"239 228 LINE",
"341 280 OFFCURVE",
"347 339 OFFCURVE",
"347 384 CURVE SMOOTH",
"347 444 OFFCURVE",
"293 504 OFFCURVE",
"192 504 CURVE SMOOTH"
);
}
);
width = 414;
}
);
unicode = 0033;
},
{
color = 1;
glyphname = four;
layers = (
{
layerId = "7C736124-E567-4D27-84C2-A192D2C2BC4A";
paths = (
{
closed = 1;
nodes = (
"277 499 LINE",
"26 136 LINE",
"26 81 LINE",
"32 73 LINE",
"108 75 LINE",
"353 75 LINE",
"447 73 LINE",
"452 133 LINE",
"446 141 LINE",
"101 141 LINE",
"278 397 LINE",
"293 397 LINE",
"285 122 LINE",
"282 -91 LINE",
"287 -97 LINE",
"352 -92 LINE",
"357 -85 LINE",
"353 109 LINE",
"355 499 LINE"
);
}
);
width = 483;
}
);
unicode = 0034;
},
{
color = 1;
glyphname = five;
layers = (
{
layerId = "7C736124-E567-4D27-84C2-A192D2C2BC4A";
paths = (
{
closed = 1;
nodes = (
"199 499 LINE",
"152 499 LINE",
"98 501 LINE",
"77 489 LINE",
"72 218 LINE",
"87 210 LINE",
"165 202 LINE SMOOTH",
"288 209 OFFCURVE",
"292 159 OFFCURVE",
"292 69 CURVE SMOOTH",
"292 36 OFFCURVE",
"301 -31 OFFCURVE",
"301 -31 CURVE SMOOTH",
"210 -31 OFFCURVE",
"134 17 OFFCURVE",
"45 115 CURVE",
"30 108 LINE",
"44 -88 LINE",
"75 -94 OFFCURVE",
"93 -98 OFFCURVE",
"156 -98 CURVE SMOOTH",
"265 -98 OFFCURVE",
"372 18 OFFCURVE",
"372 148 CURVE SMOOTH",
"372 170 OFFCURVE",
"435 247 OFFCURVE",
"202 273 CURVE SMOOTH",
"147 278 LINE",
"143 405 LINE",
"206 405 LINE",
"371 399 LINE",
"369 405 LINE",
"378 497 LINE",
"381 503 LINE"
);
}
);
width = 419;
}
);
unicode = 0035;
},
{
color = 1;
glyphname = six;
layers = (
{
layerId = "7C736124-E567-4D27-84C2-A192D2C2BC4A";
paths = (
{
closed = 1;
nodes = (
"348 594 LINE",
"161 519 OFFCURVE",
"45 381 OFFCURVE",
"45 211 CURVE",
"45 73 OFFCURVE",
"42 -8 OFFCURVE",
"216 -8 CURVE",
"309 -8 OFFCURVE",
"429 72 OFFCURVE",
"429 173 CURVE",
"429 281 OFFCURVE",
"370 350 OFFCURVE",
"285 350 CURVE SMOOTH",
"212 350 OFFCURVE",
"178 334 OFFCURVE",
"150 308 CURVE",
"134 326 LINE",
"113 173 LINE",
"153 251 OFFCURVE",
"198 288 OFFCURVE",
"245 288 CURVE SMOOTH",
"314 288 OFFCURVE",
"353 221 OFFCURVE",
"353 112 CURVE",
"353 67 OFFCURVE",
"293 50 OFFCURVE",
"271 50 CURVE",
"157 50 OFFCURVE",
"122 81 OFFCURVE",
"122 212 CURVE",
"122 375 OFFCURVE",
"213 475 OFFCURVE",
"540 547 CURVE",
"540 556 LINE",
"345 594 LINE"
);
}
);
width = 471;
}
);
unicode = 0036;
},
{
color = 1;
glyphname = seven;
layers = (
{
layerId = "7C736124-E567-4D27-84C2-A192D2C2BC4A";
paths = (
{
closed = 1;
nodes = (
"21 405 LINE",
"27 396 LINE",
"104 428 LINE",
"327 428 LINE",
"80 -69 LINE",
"85 -83 LINE",
"162 -102 LINE",
"192 20 LINE",
"391 438 LINE",
"390 501 LINE",
"347 499 LINE",
"119 499 LINE",
"27 502 LINE"
);
}
);
width = 419;
}
);
unicode = 0037;
},
{
color = 1;
glyphname = eight;
layers = (
{
layerId = "7C736124-E567-4D27-84C2-A192D2C2BC4A";
paths = (
{
closed = 1;
nodes = (
"143 592 OFFCURVE",
"70 535 OFFCURVE",
"70 438 CURVE SMOOTH",
"70 362 OFFCURVE",
"109 324 OFFCURVE",
"66 316 CURVE",
"66 311 LINE",
"98 267 OFFCURVE",
"47 225 OFFCURVE",
"47 143 CURVE SMOOTH",
"47 55 OFFCURVE",
"113 -7 OFFCURVE",
"218 -7 CURVE SMOOTH",
"336 -7 OFFCURVE",
"414 57 OFFCURVE",
"414 159 CURVE SMOOTH",
"414 244 OFFCURVE",
"362 278 OFFCURVE",
"397 288 CURVE",
"397 293 LINE",
"350 339 OFFCURVE",
"396 379 OFFCURVE",
"396 452 CURVE SMOOTH",
"396 539 OFFCURVE",
"336 592 OFFCURVE",
"238 592 CURVE SMOOTH"
);
},
{
closed = 1;
nodes = (
"274 235 OFFCURVE",
"326 212 OFFCURVE",
"326 153 CURVE SMOOTH",
"326 103 OFFCURVE",
"291 61 OFFCURVE",
"233 61 CURVE SMOOTH",
"179 61 OFFCURVE",
"136 101 OFFCURVE",
"136 152 CURVE SMOOTH",
"136 221 OFFCURVE",
"173 241 OFFCURVE",
"228 261 CURVE"
);
},
{
closed = 1;
nodes = (
"292 523 OFFCURVE",
"328 490 OFFCURVE",
"328 444 CURVE SMOOTH",
"328 382 OFFCURVE",
"291 362 OFFCURVE",
"251 341 CURVE",
"206 354 OFFCURVE",
"149 379 OFFCURVE",
"149 440 CURVE SMOOTH",
"149 488 OFFCURVE",
"180 523 OFFCURVE",
"242 523 CURVE SMOOTH"
);
}
);
width = 468;
}
);
unicode = 0038;
},
{
color = 1;
glyphname = zero.lf;
layers = (
{
layerId = "7C736124-E567-4D27-84C2-A192D2C2BC4A";
paths = (
{
closed = 1;
nodes = (
"130 591 OFFCURVE",
"52 482 OFFCURVE",
"52 287 CURVE SMOOTH",
"52 98 OFFCURVE",
"126 -7 OFFCURVE",
"260 -7 CURVE SMOOTH",
"400 -7 OFFCURVE",
"477 102 OFFCURVE",
"477 298 CURVE SMOOTH",
"477 486 OFFCURVE",
"395 591 OFFCURVE",
"262 591 CURVE SMOOTH"
);
},
{
closed = 1;
nodes = (
"360 512 OFFCURVE",
"410 435 OFFCURVE",
"410 288 CURVE SMOOTH",
"410 144 OFFCURVE",
"352 68 OFFCURVE",
"265 68 CURVE SMOOTH",
"169 68 OFFCURVE",
"119 146 OFFCURVE",
"119 293 CURVE SMOOTH",
"119 436 OFFCURVE",
"160 512 OFFCURVE",
"255 512 CURVE SMOOTH"
);
}
);
width = 530;
}
);
},
{
color = 1;
glyphname = one.lf;
layers = (
{
layerId = "7C736124-E567-4D27-84C2-A192D2C2BC4A";
paths = (
{
closed = 1;
nodes = (
"10 532 LINE",
"10 465 LINE",
"18 460 LINE",
"154 496 LINE",
"163 197 LINE",
"142 0 LINE",
"244 0 LINE",
"223 207 LINE",
"245 584 LINE",
"232 594 LINE"
);
}
);
width = 358;
}
);
},
{
color = 1;
glyphname = two.lf;
layers = (
{
layerId = "7C736124-E567-4D27-84C2-A192D2C2BC4A";
paths = (
{
closed = 1;
nodes = (
"177 592 OFFCURVE",
"110 558 OFFCURVE",
"55 503 CURVE",
"69 437 LINE",
"79 437 LINE",
"123 489 OFFCURVE",
"177 519 OFFCURVE",
"229 519 CURVE SMOOTH",
"285 519 OFFCURVE",
"314 485 OFFCURVE",
"314 443 CURVE SMOOTH",
"314 392 OFFCURVE",
"269 333 OFFCURVE",
"198 242 CURVE SMOOTH",
"49 56 LINE",
"49 2 LINE",
"62 -2 LINE",
"95 0 LINE",
"342 0 LINE",
"454 -4 LINE",
"465 91 LINE",
"459 99 LINE",
"366 68 LINE",
"160 68 LINE",
"166 72 LINE",
"270 220 LINE SMOOTH",
"355 330 OFFCURVE",
"397 398 OFFCURVE",
"397 462 CURVE SMOOTH",
"397 541 OFFCURVE",
"334 592 OFFCURVE",
"248 592 CURVE SMOOTH"
);
}
);
width = 491;
}
);
},
{
color = 1;
glyphname = three.lf;
layers = (
{
layerId = "7C736124-E567-4D27-84C2-A192D2C2BC4A";
paths = (
{
closed = 1;
nodes = (
"156 611 OFFCURVE",
"111 591 OFFCURVE",
"51 549 CURVE",
"64 426 LINE",
"65 426 LINE",
"108 496 OFFCURVE",
"138 549 OFFCURVE",
"197 549 CURVE SMOOTH",
"232 549 OFFCURVE",
"274 512 OFFCURVE",
"274 465 CURVE SMOOTH",
"274 392 OFFCURVE",
"209 347 OFFCURVE",
"156 347 CURVE SMOOTH",
"104 346 LINE",
"102 287 LINE",
"107 281 LINE",
"167 281 LINE",
"240 278 OFFCURVE",
"284 234 OFFCURVE",
"284 173 CURVE SMOOTH",
"284 104 OFFCURVE",
"218 52 OFFCURVE",
"180 52 CURVE SMOOTH",
"105 52 OFFCURVE",
"78 83 OFFCURVE",
"36 154 CURVE",
"38 148 LINE",
"35 -5 LINE",
"57 -2 OFFCURVE",
"95 -14 OFFCURVE",
"143 -14 CURVE SMOOTH",
"272 -14 OFFCURVE",
"373 111 OFFCURVE",
"373 296 CURVE SMOOTH",
"373 299 OFFCURVE",
"331 312 OFFCURVE",
"252 323 CURVE",
"252 327 LINE",
"354 387 OFFCURVE",
"360 446 OFFCURVE",
"360 491 CURVE SMOOTH",
"360 559 OFFCURVE",
"314 611 OFFCURVE",
"213 611 CURVE SMOOTH"
);
}
);
width = 430;
}
);
},
{
color = 1;
glyphname = four.lf;
layers = (
{
layerId = "7C736124-E567-4D27-84C2-A192D2C2BC4A";
paths = (
{
closed = 1;
nodes = (
"279 586 LINE",
"29 226 LINE",
"29 171 LINE",
"35 163 LINE",
"111 165 LINE",
"363 165 LINE",
"448 163 LINE",
"453 223 LINE",
"455 231 LINE",
"104 231 LINE",
"280 484 LINE",
"286 484 LINE",
"295 212 LINE",
"284 1 LINE",
"297 -5 LINE",
"354 0 LINE",
"359 7 LINE",
"363 199 LINE",
"357 586 LINE"
);
}
);
width = 493;
}
);
},
{
color = 1;
glyphname = five.lf;
layers = (
{
layerId = "7C736124-E567-4D27-84C2-A192D2C2BC4A";
paths = (
{
closed = 1;
nodes = (
"191 586 LINE",
"136 586 LINE",
"82 588 LINE",
"69 576 LINE",
"48 289 LINE",
"55 281 LINE",
"141 281 LINE SMOOTH",
"256 280 OFFCURVE",
"268 238 OFFCURVE",
"268 140 CURVE SMOOTH",
"268 99 OFFCURVE",
"269 68 OFFCURVE",
"278 68 CURVE SMOOTH",
"178 68 OFFCURVE",
"102 108 OFFCURVE",
"13 206 CURVE",
"-2 199 LINE",
"4 3 LINE",
"35 -3 OFFCURVE",
"53 -7 OFFCURVE",
"116 -7 CURVE SMOOTH",
"225 -7 OFFCURVE",
"348 81 OFFCURVE",
"348 219 CURVE SMOOTH",
"348 249 OFFCURVE",
"403 326 OFFCURVE",
"178 344 CURVE SMOOTH",
"123 349 LINE",
"127 492 LINE",
"190 492 LINE",
"355 486 LINE",
"353 492 LINE",
"370 584 LINE",
"373 590 LINE"
);
}
);
width = 425;
}
);
},
{
color = 1;
glyphname = six.lf;
layers = (
{
layerId = "7C736124-E567-4D27-84C2-A192D2C2BC4A";
paths = (
{
closed = 1;
nodes = (
"348 594 LINE",
"161 519 OFFCURVE",
"45 381 OFFCURVE",
"45 211 CURVE",
"45 73 OFFCURVE",
"42 -8 OFFCURVE",
"224 -8 CURVE",
"309 -8 OFFCURVE",
"429 72 OFFCURVE",
"429 173 CURVE",
"429 281 OFFCURVE",
"370 350 OFFCURVE",
"285 350 CURVE SMOOTH",
"212 350 OFFCURVE",
"178 334 OFFCURVE",
"150 308 CURVE",
"134 326 LINE",
"113 173 LINE",
"153 251 OFFCURVE",
"198 288 OFFCURVE",
"245 288 CURVE SMOOTH",
"314 288 OFFCURVE",
"353 221 OFFCURVE",
"353 112 CURVE",
"353 67 OFFCURVE",
"293 50 OFFCURVE",
"271 50 CURVE",
"165 50 OFFCURVE",
"130 81 OFFCURVE",
"130 212 CURVE",
"130 375 OFFCURVE",
"213 475 OFFCURVE",
"540 547 CURVE",
"540 556 LINE",
"345 594 LINE"
);
}
);
width = 473;
}
);
},
{
color = 1;
glyphname = seven.lf;
layers = (
{
layerId = "7C736124-E567-4D27-84C2-A192D2C2BC4A";
paths = (
{
closed = 1;
nodes = (
"24 519 LINE",
"30 510 LINE",
"114 515 LINE",
"305 515 LINE",
"82 22 LINE",
"87 9 LINE",
"155 -11 LINE",
"211 111 LINE",
"387 525 LINE",
"387 587 LINE",
"344 586 LINE",
"121 586 LINE",
"30 588 LINE"
);
}
);
width = 419;
}
);
},
{
color = 1;
glyphname = eight.lf;
layers = (
{
layerId = "7C736124-E567-4D27-84C2-A192D2C2BC4A";
paths = (
{
closed = 1;
nodes = (
"143 592 OFFCURVE",
"70 535 OFFCURVE",
"70 438 CURVE SMOOTH",
"70 362 OFFCURVE",
"109 324 OFFCURVE",
"165 298 CURVE",
"165 293 LINE",
"98 267 OFFCURVE",
"47 225 OFFCURVE",
"47 143 CURVE SMOOTH",
"47 55 OFFCURVE",
"113 -7 OFFCURVE",
"218 -7 CURVE SMOOTH",
"336 -7 OFFCURVE",
"414 57 OFFCURVE",
"414 159 CURVE SMOOTH",
"414 244 OFFCURVE",
"362 278 OFFCURVE",
"307 306 CURVE",
"307 311 LINE",
"350 339 OFFCURVE",
"396 379 OFFCURVE",
"396 452 CURVE SMOOTH",
"396 539 OFFCURVE",
"336 592 OFFCURVE",
"238 592 CURVE SMOOTH"
);
},
{
closed = 1;
nodes = (
"274 235 OFFCURVE",
"326 212 OFFCURVE",
"326 153 CURVE SMOOTH",
"326 103 OFFCURVE",
"291 61 OFFCURVE",
"233 61 CURVE SMOOTH",
"179 61 OFFCURVE",
"136 101 OFFCURVE",
"136 152 CURVE SMOOTH",
"136 221 OFFCURVE",
"173 241 OFFCURVE",
"228 261 CURVE"
);
},
{
closed = 1;
nodes = (
"292 523 OFFCURVE",
"328 490 OFFCURVE",
"328 444 CURVE SMOOTH",
"328 382 OFFCURVE",
"291 362 OFFCURVE",
"251 341 CURVE",
"206 354 OFFCURVE",
"149 379 OFFCURVE",
"149 440 CURVE SMOOTH",
"149 488 OFFCURVE",
"180 523 OFFCURVE",
"242 523 CURVE SMOOTH"
);
}
);
width = 468;
}
);
leftMetricsKey = eight;
rightMetricsKey = eight;
},
{
color = 1;
glyphname = nine.lf;
layers = (
{
layerId = "7C736124-E567-4D27-84C2-A192D2C2BC4A";
paths = (
{
closed = 1;
nodes = (
"185 595 OFFCURVE",
"57 507 OFFCURVE",
"57 406 CURVE",
"57 306 OFFCURVE",
"124 237 OFFCURVE",
"201 237 CURVE SMOOTH",
"274 237 OFFCURVE",
"308 245 OFFCURVE",
"344 279 CURVE",
"360 253 LINE",
"373 414 LINE",
"333 328 OFFCURVE",
"288 299 OFFCURVE",
"249 299 CURVE SMOOTH",
"172 299 OFFCURVE",
"133 366 OFFCURVE",
"133 467 CURVE",
"133 512 OFFCURVE",
"201 529 OFFCURVE",
"223 529 CURVE",
"329 529 OFFCURVE",
"364 506 OFFCURVE",
"364 375 CURVE",
"364 212 OFFCURVE",
"281 104 OFFCURVE",
"-54 32 CURVE",
"-54 31 LINE",
"141 -7 LINE",
"146 -7 LINE",
"333 68 OFFCURVE",
"441 206 OFFCURVE",
"441 376 CURVE",
"441 506 OFFCURVE",
"444 595 OFFCURVE",
"270 595 CURVE"
);
}
);
width = 455;
}
);
},
{
color = 1;
glyphname = zero.sinf;
layers = (
{
layerId = "7C736124-E567-4D27-84C2-A192D2C2BC4A";
paths = (
{
closed = 1;
nodes = (
"85 279 OFFCURVE",
"39 209 OFFCURVE",
"39 64 CURVE SMOOTH",
"39 -58 OFFCURVE",
"90 -125 OFFCURVE",
"174 -125 CURVE SMOOTH",
"281 -125 OFFCURVE",
"326 -55 OFFCURVE",
"326 91 CURVE SMOOTH",
"326 212 OFFCURVE",
"284 279 OFFCURVE",
"192 279 CURVE SMOOTH"
);
},
{
closed = 1;
nodes = (
"205 147 OFFCURVE",
"219 128 OFFCURVE",
"219 65 CURVE SMOOTH",
"219 14 OFFCURVE",
"214 -5 OFFCURVE",
"179 -5 CURVE SMOOTH",
"160 -5 OFFCURVE",
"155 14 OFFCURVE",
"155 78 CURVE SMOOTH",
"155 129 OFFCURVE",
"160 147 OFFCURVE",
"186 147 CURVE SMOOTH"
);
}
);
width = 374;
}
);
},
{
color = 1;
glyphname = one.sinf;
layers = (
{
layerId = "7C736124-E567-4D27-84C2-A192D2C2BC4A";
paths = (
{
closed = 1;
nodes = (
"30 231 LINE",
"30 108 LINE",
"44 104 LINE",
"10 117 LINE",
"10 6 LINE",
"8 -120 LINE",
"156 -120 LINE",
"154 23 LINE",
"156 264 LINE",
"138 281 LINE"
);
}
);
width = 260;
}
);
},
{
color = 1;
glyphname = two.sinf;
layers = (
{
layerId = "7C736124-E567-4D27-84C2-A192D2C2BC4A";
paths = (
{
closed = 1;
nodes = (
"137 279 OFFCURVE",
"99 258 OFFCURVE",
"50 233 CURVE",
"62 120 LINE",
"87 120 LINE",
"99 143 OFFCURVE",
"136 162 OFFCURVE",
"144 162 CURVE SMOOTH",
"153 162 OFFCURVE",
"162 151 OFFCURVE",
"162 144 CURVE SMOOTH",
"162 121 OFFCURVE",
"141 94 OFFCURVE",
"120 55 CURVE SMOOTH",
"55 -33 LINE",
"55 -118 LINE",
"59 -121 LINE",
"78 -120 LINE",
"203 -120 LINE",
"301 -123 LINE",
"309 -8 LINE",
"314 -2 LINE",
"258 -5 LINE",
"252 -5 LINE",
"250 -3 LINE",
"242 31 LINE SMOOTH",
"291 101 OFFCURVE",
"310 136 OFFCURVE",
"310 176 CURVE SMOOTH",
"310 247 OFFCURVE",
"247 279 OFFCURVE",
"186 279 CURVE SMOOTH"
);
}
);
width = 350;
}
);
},
{
color = 1;
glyphname = three.sinf;
layers = (
{
layerId = "7C736124-E567-4D27-84C2-A192D2C2BC4A";
paths = (
{
closed = 1;
nodes = (
"128 280 OFFCURVE",
"72 267 OFFCURVE",
"45 241 CURVE",
"65 151 LINE",
"81 151 LINE",
"110 163 OFFCURVE",
"110 165 OFFCURVE",
"119 165 CURVE SMOOTH",
"118 165 OFFCURVE",
"113 166 OFFCURVE",
"113 147 CURVE SMOOTH",
"113 136 OFFCURVE",
"125 127 OFFCURVE",
"117 126 CURVE SMOOTH",
"95 126 LINE",
"94 28 LINE",
"98 15 LINE",
"150 15 LINE",
"130 22 OFFCURVE",
"113 10 OFFCURVE",
"113 1 CURVE SMOOTH",
"113 -13 OFFCURVE",
"121 -20 OFFCURVE",
"124 -20 CURVE SMOOTH",
"103 -20 OFFCURVE",
"95 -17 OFFCURVE",
"71 -3 CURVE",
"57 -16 LINE",
"62 -117 LINE",
"75 -122 OFFCURVE",
"110 -124 OFFCURVE",
"131 -124 CURVE SMOOTH",
"202 -124 OFFCURVE",
"258 -78 OFFCURVE",
"258 -1 CURVE SMOOTH",
"258 37 OFFCURVE",
"257 69 OFFCURVE",
"248 82 CURVE",
"248 94 LINE",
"267 115 OFFCURVE",
"261 153 OFFCURVE",
"261 177 CURVE SMOOTH",
"261 238 OFFCURVE",
"225 280 OFFCURVE",
"159 280 CURVE SMOOTH"
);
}
);
width = 309;
}
);
},
{
color = 1;
glyphname = four.sinf;
layers = (
{
layerId = "7C736124-E567-4D27-84C2-A192D2C2BC4A";
paths = (
{
closed = 1;
nodes = (
"141 276 LINE",
"42 46 LINE",
"42 -41 LINE",
"47 -56 LINE",
"124 -45 LINE",
"214 -45 LINE",
"299 -56 LINE",
"303 44 LINE",
"298 59 LINE",
"164 59 LINE",
"151 120 LINE",
"164 120 LINE",
"156 35 LINE",
"154 -119 LINE",
"158 -123 LINE",
"282 -120 LINE",
"286 -106 LINE",
"273 7 LINE",
"274 276 LINE"
);
}
);
width = 353;
}
);
},
{
color = 1;
glyphname = five.sinf;
layers = (
{
layerId = "7C736124-E567-4D27-84C2-A192D2C2BC4A";
paths = (
{
closed = 1;
nodes = (
"178 276 LINE",
"104 276 LINE",
"76 277 LINE",
"67 259 LINE",
"73 52 LINE",
"69 37 LINE",
"131 26 LINE SMOOTH",
"116 23 OFFCURVE",
"105 13 OFFCURVE",
"105 -1 CURVE SMOOTH",
"105 -11 OFFCURVE",
"127 -21 OFFCURVE",
"127 -21 CURVE SMOOTH",
"97 -21 OFFCURVE",
"74 -19 OFFCURVE",
"67 -4 CURVE",
"45 -18 LINE",
"50 -118 LINE",
"71 -122 OFFCURVE",
"107 -125 OFFCURVE",
"126 -125 CURVE SMOOTH",
"200 -125 OFFCURVE",
"250 -74 OFFCURVE",
"250 13 CURVE SMOOTH",
"250 77 OFFCURVE",
"231 110 OFFCURVE",
"196 126 CURVE SMOOTH",
"179 136 LINE",
"173 162 LINE",
"156 162 LINE",
"231 157 LINE",
"237 162 LINE",
"252 274 LINE",
"248 278 LINE"
);
}
);
width = 306;
}
);
},
{
color = 1;
glyphname = six.sinf;
layers = (
{
layerId = "7C736124-E567-4D27-84C2-A192D2C2BC4A";
paths = (
{
closed = 1;
nodes = (
"164 281 LINE",
"99 222 OFFCURVE",
"52 134 OFFCURVE",
"52 26 CURVE",
"52 -64 OFFCURVE",
"101 -125 OFFCURVE",
"176 -125 CURVE",
"259 -125 OFFCURVE",
"287 -54 OFFCURVE",
"287 17 CURVE",
"287 71 OFFCURVE",
"273 135 OFFCURVE",
"210 135 CURVE SMOOTH",
"216 135 OFFCURVE",
"207 134 OFFCURVE",
"218 128 CURVE",
"188 160 LINE",
"179 32 LINE",
"178 33 OFFCURVE",
"171 35 OFFCURVE",
"165 35 CURVE SMOOTH",
"165 35 OFFCURVE",
"163 29 OFFCURVE",
"163 2 CURVE",
"163 -29 OFFCURVE",
"172 -38 OFFCURVE",
"178 -38 CURVE",
"171 -38 OFFCURVE",
"185 -11 OFFCURVE",
"185 27 CURVE",
"185 130 OFFCURVE",
"185 154 OFFCURVE",
"272 210 CURVE",
"272 217 LINE",
"177 281 LINE"
);
}
);
width = 338;
}
);
},
{
color = 1;
glyphname = seven.sinf;
layers = (
{
layerId = "7C736124-E567-4D27-84C2-A192D2C2BC4A";
paths = (
{
closed = 1;
nodes = (
"39 162 LINE",
"43 146 LINE",
"116 159 LINE",
"119 159 LINE",
"60 -75 LINE",
"72 -95 LINE",
"190 -127 LINE",
"233 2 LINE",
"274 175 LINE",
"265 277 LINE",
"235 276 LINE",
"137 276 LINE",
"61 277 LINE"
);
}
);
width = 301;
}
);
},
{
color = 1;
glyphname = eight.sinf;
layers = (
{
layerId = "7C736124-E567-4D27-84C2-A192D2C2BC4A";
paths = (
{
closed = 1;
nodes = (
"112 280 OFFCURVE",
"61 233 OFFCURVE",
"61 160 CURVE SMOOTH",
"61 112 OFFCURVE",
"75 87 OFFCURVE",
"86 61 CURVE",
"86 58 LINE",
"58 41 OFFCURVE",
"64 14 OFFCURVE",
"64 -28 CURVE SMOOTH",
"64 -85 OFFCURVE",
"92 -125 OFFCURVE",
"163 -125 CURVE SMOOTH",
"237 -125 OFFCURVE",
"283 -83 OFFCURVE",
"283 2 CURVE SMOOTH",
"283 46 OFFCURVE",
"279 68 OFFCURVE",
"272 86 CURVE",
"272 90 LINE",
"286 118 OFFCURVE",
"280 144 OFFCURVE",
"280 180 CURVE SMOOTH",
"280 236 OFFCURVE",
"247 280 OFFCURVE",
"187 280 CURVE SMOOTH"
);
},
{
closed = 1;
nodes = (
"170 16 OFFCURVE",
"165 2 OFFCURVE",
"165 -12 CURVE SMOOTH",
"165 -19 OFFCURVE",
"173 -36 OFFCURVE",
"177 -36 CURVE SMOOTH",
"175 -36 OFFCURVE",
"183 -21 OFFCURVE",
"183 -3 CURVE SMOOTH",
"183 11 OFFCURVE",
"164 20 OFFCURVE",
"164 23 CURVE"
);
},
{
closed = 1;
nodes = (
"167 190 OFFCURVE",
"164 179 OFFCURVE",
"164 164 CURVE SMOOTH",
"164 146 OFFCURVE",
"189 137 OFFCURVE",
"202 123 CURVE",
"193 137 OFFCURVE",
"189 144 OFFCURVE",
"189 162 CURVE SMOOTH",
"189 178 OFFCURVE",
"178 190 OFFCURVE",
"174 190 CURVE SMOOTH"
);
}
);
width = 343;
}
);
},
{
color = 1;
glyphname = nine.sinf;
layers = (
{
layerId = "7C736124-E567-4D27-84C2-A192D2C2BC4A";
paths = (
{
closed = 1;
nodes = (
"91 282 OFFCURVE",
"54 210 OFFCURVE",
"54 140 CURVE",
"54 77 OFFCURVE",
"86 21 OFFCURVE",
"139 21 CURVE SMOOTH",
"133 21 OFFCURVE",
"134 22 OFFCURVE",
"131 19 CURVE",
"161 -3 LINE",
"171 125 LINE",
"171 115 OFFCURVE",
"179 113 OFFCURVE",
"184 113 CURVE SMOOTH",
"184 113 OFFCURVE",
"186 128 OFFCURVE",
"186 155 CURVE",
"186 177 OFFCURVE",
"177 194 OFFCURVE",
"172 194 CURVE",
"179 194 OFFCURVE",
"165 167 OFFCURVE",
"165 121 CURVE",
"165 26 OFFCURVE",
"165 2 OFFCURVE",
"78 -53 CURVE",
"78 -69 LINE",
"172 -125 LINE",
"176 -125 LINE",
"251 -66 OFFCURVE",
"297 22 OFFCURVE",
"297 121 CURVE",
"297 220 OFFCURVE",
"248 282 OFFCURVE",
"165 282 CURVE"
);
}
);
width = 339;
}
);
},
{
color = 1;
glyphname = zero.tf;
layers = (
{
layerId = "7C736124-E567-4D27-84C2-A192D2C2BC4A";
paths = (
{
closed = 1;
nodes = (
"112 591 OFFCURVE",
"39 482 OFFCURVE",
"39 287 CURVE SMOOTH",
"39 98 OFFCURVE",
"108 -7 OFFCURVE",
"233 -7 CURVE SMOOTH",
"364 -7 OFFCURVE",
"436.002 102 OFFCURVE",
"436 298 CURVE SMOOTH",
"436 486 OFFCURVE",
"367 591 OFFCURVE",
"243 591 CURVE SMOOTH"
);
},
{
closed = 1;
nodes = (
"315 512 OFFCURVE",
"361 435 OFFCURVE",
"361 288 CURVE SMOOTH",
"361 144 OFFCURVE",
"324 68 OFFCURVE",
"238 68 CURVE SMOOTH",
"150 68 OFFCURVE",
"105 146 OFFCURVE",
"105 293 CURVE SMOOTH",
"105 436 OFFCURVE",
"150 512 OFFCURVE",
"228 512 CURVE SMOOTH"
);
}
);
width = 475;
}
);
},
{
color = 1;
glyphname = one.tf;
layers = (
{
layerId = "7C736124-E567-4D27-84C2-A192D2C2BC4A";
paths = (
{
closed = 1;
nodes = (
"39 532 LINE",
"39 465 LINE",
"47 460 LINE",
"223 496 LINE",
"232 197 LINE",
"211 0 LINE",
"305 0 LINE",
"284 207 LINE",
"314 584 LINE",
"301 594 LINE"
);
}
);
width = 475;
}
);
},
{
color = 1;
glyphname = two.tf;
lastChange = "2016-10-28 13:26:40 +0000";
layers = (
{
layerId = "7C736124-E567-4D27-84C2-A192D2C2BC4A";
paths = (
{
closed = 1;
nodes = (
"179 592 OFFCURVE",
"105 558 OFFCURVE",
"51 503 CURVE",
"65 437 LINE",
"75 437 LINE",
"118 489 OFFCURVE",
"171 519 OFFCURVE",
"229 519 CURVE SMOOTH",
"275 519 OFFCURVE",
"312 485 OFFCURVE",
"312 443 CURVE SMOOTH",
"312 392 OFFCURVE",
"260 333 OFFCURVE",
"199 242 CURVE SMOOTH",
"45 56 LINE",
"45 2 LINE",
"58 -2 LINE",
"90 0 LINE",
"340 0 LINE",
"450 -4 LINE",
"452 64 LINE",
"455 72 LINE",
"355 68 LINE",
"156 68 LINE",
"162 72 LINE",
"263 220 LINE SMOOTH",
"345 330 OFFCURVE",
"387 398 OFFCURVE",
"387 462 CURVE SMOOTH",
"387 541 OFFCURVE",
"333 592 OFFCURVE",
"240 592 CURVE SMOOTH"
);
}
);
width = 475;
}
);
},
{
color = 1;
glyphname = three.tf;
layers = (
{
layerId = "7C736124-E567-4D27-84C2-A192D2C2BC4A";
paths = (
{
closed = 1;
nodes = (
"200 611 OFFCURVE",
"162 591 OFFCURVE",
"116 549 CURVE",
"121 426 LINE",
"122 426 LINE",
"167 496 OFFCURVE",
"182 549 OFFCURVE",
"227 549 CURVE SMOOTH",
"240 549 OFFCURVE",
"276 512 OFFCURVE",
"276 465 CURVE SMOOTH",
"276 392 OFFCURVE",
"232 347 OFFCURVE",
"192 347 CURVE SMOOTH",
"155 346 LINE",
"153 287 LINE",
"158 281 LINE",
"212 281 LINE",
"257 278 OFFCURVE",
"279 234 OFFCURVE",
"279 173 CURVE SMOOTH",
"279 104 OFFCURVE",
"234 52 OFFCURVE",
"224 52 CURVE SMOOTH",
"148 52 OFFCURVE",
"128 83 OFFCURVE",
"93 154 CURVE",
"103 148 LINE",
"92 -5 LINE",
"115 -2 OFFCURVE",
"138 -14 OFFCURVE",
"187 -14 CURVE SMOOTH",
"288 -14 OFFCURVE",
"360 111 OFFCURVE",
"360 296 CURVE SMOOTH",
"360 299 OFFCURVE",
"332 312 OFFCURVE",
"282 323 CURVE",
"282 327 LINE",
"370 387 OFFCURVE",
"362 446 OFFCURVE",
"362 491 CURVE SMOOTH",
"362 559 OFFCURVE",
"330 611 OFFCURVE",
"251 611 CURVE SMOOTH"
);
}
);
width = 475;
}
);
},
{
color = 1;
glyphname = four.tf;
layers = (
{
layerId = "7C736124-E567-4D27-84C2-A192D2C2BC4A";
paths = (
{
closed = 1;
nodes = (
"268 586 LINE",
"25 226 LINE",
"25 171 LINE",
"31 163 LINE",
"97 165 LINE",
"342 165 LINE",
"434 163 LINE",
"439 223 LINE",
"433 231 LINE",
"100 231 LINE",
"268 484 LINE",
"275 484 LINE",
"275 212 LINE",
"272 1 LINE",
"277 -5 LINE",
"343 0 LINE",
"348 7 LINE",
"343 199 LINE",
"345 586 LINE"
);
}
);
width = 475;
}
);
},
{
color = 1;
glyphname = five.tf;
layers = (
{
layerId = "7C736124-E567-4D27-84C2-A192D2C2BC4A";
paths = (
{
closed = 1;
nodes = (
"321 586 LINE",
"166 586 LINE",
"108 588 LINE",
"95 576 LINE",
"91 316 LINE",
"98 308 LINE",
"190 290 LINE SMOOTH",
"287 271 OFFCURVE",
"331 238 OFFCURVE",
"331 185 CURVE SMOOTH",
"331 108 OFFCURVE",
"261 59 OFFCURVE",
"153 59 CURVE SMOOTH",
"123 59 OFFCURVE",
"90 63 OFFCURVE",
"54 71 CURVE",
"47 64 LINE",
"62 3 LINE",
"86 -3 OFFCURVE",
"124 -7 OFFCURVE",
"153 -7 CURVE SMOOTH",
"316 -7 OFFCURVE",
"411 72 OFFCURVE",
"411 192 CURVE SMOOTH",
"411 276 OFFCURVE",
"352 326 OFFCURVE",
"226 353 CURVE SMOOTH",
"157 367 LINE",
"162 519 LINE",
"331 519 LINE",
"400 513 LINE",
"407 519 LINE",
"415 584 LINE",
"409 590 LINE"
);
}
);
width = 475;
}
);
},
{
color = 1;
glyphname = six.tf;
layers = (
{
layerId = "7C736124-E567-4D27-84C2-A192D2C2BC4A";
paths = (
{
closed = 1;
nodes = (
"340 594 LINE",
"153 519 OFFCURVE",
"45 381 OFFCURVE",
"45 211 CURVE",
"45 73 OFFCURVE",
"34 -8 OFFCURVE",
"216 -8 CURVE",
"293 -8 OFFCURVE",
"421 72 OFFCURVE",
"421 173 CURVE",
"421 281 OFFCURVE",
"362 350 OFFCURVE",
"277 350 CURVE SMOOTH",
"212 350 OFFCURVE",
"178 334 OFFCURVE",
"142 308 CURVE",
"126 326 LINE",
"113 173 LINE",
"145 251 OFFCURVE",
"190 288 OFFCURVE",
"237 288 CURVE SMOOTH",
"306 288 OFFCURVE",
"345 221 OFFCURVE",
"345 112 CURVE",
"345 67 OFFCURVE",
"277 50 OFFCURVE",
"263 50 CURVE",
"157 50 OFFCURVE",
"122 81 OFFCURVE",
"122 212 CURVE",
"122 375 OFFCURVE",
"205 475 OFFCURVE",
"540 547 CURVE",
"540 556 LINE",
"337 594 LINE"
);
}
);
width = 475;
}
);
},
